SplineFontDB: 3.2
FontName: NewCM10-Italic
FullName: NewComputerModern10-Italic
FamilyName: NewComputerModern10
Weight: Normal
Copyright: Antonis Tsolomitis. This work is released under the GUST Font License --  see http://tug.org/fonts/licenses/GUST-FONT-LICENSE.txt for details.
Version: 3.93
ItalicAngle: -14.0362
UnderlinePosition: -146
UnderlineWidth: 40
Ascent: 806
Descent: 194
InvalidEm: 0
sfntRevision: 0x00010041
LayerCount: 2
Layer: 0 0 "Back" 1
Layer: 1 0 "Fore" 0
XUID: [1021 970 578947182 2430912]
StyleMap: 0x0001
FSType: 12
OS2Version: 3
OS2_WeightWidthSlopeOnly: 0
OS2_UseTypoMetrics: 0
CreationTime: 1254995898
ModificationTime: 1633793652
PfmFamily: 81
TTFWeight: 400
TTFWidth: 5
LineGap: 0
VLineGap: 0
Panose: 0 0 5 0 0 0 0 0 0 0
OS2TypoAscent: 806
OS2TypoAOffset: 0
OS2TypoDescent: -194
OS2TypoDOffset: 0
OS2TypoLinegap: 200
OS2WinAscent: 1125
OS2WinAOffset: 0
OS2WinDescent: 290
OS2WinDOffset: 0
HheadAscent: 1125
HheadAOffset: 0
HheadDescent: -290
HheadDOffset: 0
OS2SubXSize: 650
OS2SubYSize: 600
OS2SubXOff: -19
OS2SubYOff: 75
OS2SupXSize: 650
OS2SupYSize: 600
OS2SupXOff: 87
OS2SupYOff: 350
OS2StrikeYSize: 40
OS2StrikeYPos: 258
OS2CapHeight: 683
OS2XHeight: 431
OS2Vendor: 'UKWN'
OS2CodePages: 20000193.00000000
OS2UnicodeRanges: 20000007.00000000.00000000.00000000
Lookup: 1 0 0 "'aalt' Access All Alternates lookup 0" { "'aalt' Access All Alternates lookup 0 subtable"  } ['aalt' ('DFLT' <'dflt' > 'cyrl' <'dflt' > 'latn' <'AZE ' 'CRT ' 'MOL ' 'NLD ' 'PLK ' 'ROM ' 'TRK ' 'dflt' > ) ]
Lookup: 3 0 0 "'aalt' Access All Alternates lookup 1" { "'aalt' Access All Alternates lookup 1 subtable"  } ['aalt' ('DFLT' <'dflt' > 'cyrl' <'dflt' > 'latn' <'AZE ' 'CRT ' 'MOL ' 'NLD ' 'PLK ' 'ROM ' 'TRK ' 'dflt' > ) ]
Lookup: 1 0 0 "'locl' Localized Forms in Latin lookup 2" { "'locl' Localized Forms in Latin lookup 2 subtable"  } ['locl' ('latn' <'MOL ' 'ROM ' > ) ]

StartChar: exclam
Encoding: 33 33 2
Width: 307
GlyphClass: 2
Flags: MW
HStem: 0 106<161.5 174> 187 21G<198.5 208.5> 696 20G<328.5 345>
VStem: 113 109<47.5 60>
LayerCount: 2
Fore
SplineSet
370 654 m 2
 221 204 l 2
 215 188 214 187 203 187 c 0
 194 187 188 189 188 199 c 2
 188 199 188 202 190 211 c 2
 265 656 l 2
 275 715 327 716 330 716 c 0
 360 716 375 695 375 675 c 0
 375 669 374 665 370 654 c 2
222 63 m 0
 222 32 191 0 157 0 c 0
 132 0 113 18 113 43 c 0
 113 77 146 106 177 106 c 0
 207 106 222 83 222 63 c 0
EndSplineSet
EndChar

StartChar: quotedbl
Encoding: 34 34 3
Width: 401
GlyphClass: 2
Flags: MW
HStem: 423 21G<244 274 244 244 338 338 338 368> 685 20G<321 339 415 433>
LayerCount: 2
Fore
SplineSet
354 673 m 2
 274 423 l 1
 244 423 l 1
 290 673 l 2
 293 691 312 705 330 705 c 0
 348 705 359 691 354 673 c 2
448 673 m 2
 368 423 l 1
 338 423 l 1
 384 673 l 2
 387 691 406 705 424 705 c 0
 442 705 453 691 448 673 c 2
EndSplineSet
EndChar

StartChar: numbersign
Encoding: 35 35 4
Width: 818
GlyphClass: 2
Flags: MW
HStem: -194 21G<149 159 359 369> 133 40<142 306 149 285 351 495 149 330 561 746> 327 40<189.5 403 197 382 197 427 448 592 658 794> 674 20G<574 584 784 794>
VStem: 115 713<143 357>
LayerCount: 2
Fore
SplineSet
828 347 m 0
 828 327 808 327 794 327 c 2
 637 327 l 1
 561 173 l 1
 746 173 l 2
 761 173 779 173 779 153 c 0
 779 133 761 133 746 133 c 2
 540 133 l 1
 381 -188 l 2
 377 -192 372 -194 366 -194 c 0
 352 -194 346 -183 346 -174 c 0
 346 -168 349 -162 351 -157 c 2
 495 133 l 1
 330 133 l 1
 171 -188 l 2
 167 -192 162 -194 156 -194 c 0
 142 -194 136 -183 136 -174 c 0
 136 -168 139 -162 141 -157 c 2
 285 133 l 1
 149 133 l 2
 135 133 115 133 115 153 c 0
 115 173 135 173 149 173 c 2
 306 173 l 1
 382 327 l 1
 197 327 l 2
 182 327 164 327 164 347 c 0
 164 367 182 367 197 367 c 2
 403 367 l 1
 562 688 l 2
 566 692 571 694 577 694 c 0
 591 694 597 683 597 674 c 0
 597 668 594 662 592 657 c 2
 448 367 l 1
 613 367 l 1
 772 688 l 2
 776 692 781 694 787 694 c 0
 801 694 807 683 807 674 c 0
 807 668 804 662 802 657 c 2
 658 367 l 1
 794 367 l 2
 808 367 828 367 828 347 c 0
592 327 m 1
 427 327 l 1
 351 173 l 1
 516 173 l 1
 592 327 l 1
EndSplineSet
EndChar

StartChar: dollar
Encoding: 36 36 5
Width: 500
GlyphClass: 2
Flags: MW
HStem: -56 21G<220 251 220 220> 137 92<134.5 154.5> 479 92<523.5 540.5 523.5 546.5> 730 20G<421 452 452 452>
LayerCount: 2
Fore
SplineSet
581 560 m 0
 579 544 574 479 519 479 c 0
 499 479 479 491 481 518 c 0
 484 548 509 571 538 571 c 0
 543 571 550 570 555 568 c 1
 555 641 497 671 433 674 c 1
 365 402 l 1
 409 391 435 385 467 347 c 0
 471 341 503 302 497 229 c 0
 487 109 379 -1 262 -10 c 1
 251 -56 l 1
 220 -56 l 1
 231 -10 l 1
 155 -6 86 39 95 144 c 0
 97 164 102 229 157 229 c 0
 171 229 197 221 195 189 c 0
 193 165 172 137 137 137 c 0
 132 137 124 138 120 140 c 1
 116 62 170 24 239 20 c 1
 314 319 l 1
 266 332 241 340 213 371 c 0
 188 399 176 440 179 483 c 0
 186 564 256 682 405 704 c 0
 409 705 410 705 411 709 c 0
 412 712 413 719 414 722 c 2
 421 750 l 1
 452 750 l 1
 442 704 l 1
 535 700 588 644 581 560 c 0
402 673 m 1
 316 663 245 593 239 522 c 0
 232 435 310 416 336 410 c 1
 402 673 l 1
438 191 m 0
 444 269 394 301 343 311 c 1
 271 21 l 1
 364 34 432 117 438 191 c 0
EndSplineSet
Substitution2: "'onum' Oldstyle Figures lookup 4 subtable" dollar.oldstyle
Substitution2: "'aalt' Access All Alternates lookup 0 subtable" dollar.oldstyle
EndChar

StartChar: percent
Encoding: 37 37 6
Width: 818
GlyphClass: 2
Flags: MW
HStem: -56 22<588 641.5 588 654.5> 325 22<659.5 721.5> 347 22<282 334 282 344> 621 22<576.5 623> 728 22<352 413 349.5 415>
VStem: 205 51<439 485.5 435 545> 449 30<568 630.5 559.5 652> 513 51<39 79.5 38.5 140.5> 757 31<163.5 245 160.5 254>
LayerCount: 2
Fore
SplineSet
846 730 m 0xbf80
 846 722 842 718 835 709 c 2
 186 -43 l 2
 176 -55 171 -56 165 -56 c 0
 155 -56 145 -47 145 -36 c 0
 145 -28 149 -24 156 -16 c 2
 729 649 l 1
 729 650 l 1
 681 628 639 621 607 621 c 0
 546 621 499 645 476 663 c 1
 479 649 479 637 479 624 c 0
 479 495 388 347 300 347 c 0
 245 347 205 398 205 480 c 0
 205 610 304 750 395 750 c 0
 431 750 447 729 455 718 c 0
 469 699 511 643 608 643 c 0
 684 643 759 682 802 732 c 0
 813 745 817 750 827 750 c 0
 837 750 846 741 846 730 c 0xbf80
788 221 m 0
 788 100 701 -56 608 -56 c 0
 550 -56 513 1 513 77 c 0
 513 204 610 347 704 347 c 0
 770 347 788 269 788 221 c 0
449 629 m 0
 449 675 435 728 395 728 c 0
 309 728 256 522 256 449 c 0
 256 421 262 369 302 369 c 0
 366 369 449 507 449 629 c 0
757 226 m 0
 757 282 739 325 704 325 c 0x4080
 615 325 564 113 564 46 c 0
 564 31 566 -34 610 -34 c 0
 673 -34 757 101 757 226 c 0
EndSplineSet
EndChar

StartChar: ampersand
Encoding: 38 38 7
Width: 767
GlyphClass: 2
Flags: MW
HStem: -22 22<343.5 514 343.5 521> 242 78<558.5 567.5> 310 22<321 354.5 321 360> 439 22<352 375> 522 81<470.5 499 470.5 502> 694 22<377.5 439>
VStem: 126 76<124 184 95.5 194.5> 400 30<388 418.5> 490 31<306 339 306 348> 702 32<268 329>
LayerCount: 2
Fore
SplineSet
734 311 m 0x4480
 734 211 660 -22 382 -22 c 0
 217 -22 126 72 126 176 c 0
 126 213 147 305 219 383 c 1
 222 389 l 1
 222 389 222 391 220 396 c 0
 211 424 211 443 211 456 c 0
 211 582 317 716 424 716 c 0
 493 716 530 662 530 601 c 0
 530 583 527 522 477 522 c 0
 451 522 442 541 442 554 c 1
 442 554 442 603 499 603 c 1
 498 676 454 694 424 694 c 0
 331 694 272 530 269 427 c 1
 302 449 337 461 367 461 c 0
 403 461 430 439 430 401 c 0
 430 355 386 310 334 310 c 0
 287 310 256 339 253 342 c 1
 230 301 202 212 202 156 c 0
 202 35 304 0 383 0 c 0
 645 0 702 228 702 308 c 0
 702 350 692 394 650 448 c 1
 558 391 521 368 521 310 c 0xbfc0
 521 302 521 296 524 288 c 1
 531 306 548 320 569 320 c 0
 584 320 601 312 601 289 c 0
 601 265 582 242 553 242 c 0
 518 242 490 269 490 313 c 0
 490 383 557 425 606 455 c 0
 654 485 723 529 758 616 c 1
 736 617 724 628 724 647 c 0
 724 677 750 694 771 694 c 0
 787 694 804 684 804 663 c 0
 804 646 773 536 677 467 c 1
 712 421 734 371 734 311 c 0x4480
400 406 m 0
 400 431 383 439 367 439 c 0
 324 439 286 392 276 379 c 1
 286 352 306 332 336 332 c 0
 373 332 400 370 400 406 c 0
EndSplineSet
Substitution2: "'lnum' Lining Figures lookup 5 subtable" ampersand
Substitution2: "'onum' Oldstyle Figures lookup 4 subtable" ampersand
Substitution2: "'aalt' Access All Alternates lookup 0 subtable" ampersand
EndChar

StartChar: quotesingle
Encoding: 39 39 8
Width: 307
GlyphClass: 2
Flags: MW
HStem: 423 21G<244 274 244 244> 685 20G<321 339>
LayerCount: 2
Fore
SplineSet
354 673 m 2
 274 423 l 1
 244 423 l 1
 290 673 l 2
 293 691 312 705 330 705 c 0
 348 705 359 691 354 673 c 2
EndSplineSet
EndChar

StartChar: parenleft
Encoding: 40 40 9
Width: 409
GlyphClass: 2
Flags: MW
HStem: -250 21G<254 264> 730 20G<500.5 509>
VStem: 152 50<17.5 79 -24 100.5>
LayerCount: 2
Fore
SplineSet
271 -240 m 2
 271 -246 267 -250 261 -250 c 0
 247 -250 204 -192 179 -125 c 0
 161 -75 152 -12 152 47 c 0
 152 154 183 346 293 527 c 0
 380 669 495 750 506 750 c 0
 512 750 516 747 516 740 c 0
 516 737 515 736 501 722 c 0
 261 518 202 147 202 11 c 0
 202 -59 210 -144 264 -226 c 0
 271 -236 271 -240 271 -240 c 2
EndSplineSet
EndChar

StartChar: parenright
Encoding: 41 41 10
Width: 409
GlyphClass: 2
Flags: MW
HStem: -250 21G<25 33.5> 730 20G<270 280>
VStem: 332 50<421 482.5 399.5 524>
LayerCount: 2
Fore
SplineSet
382 453 m 0
 382 346 351 154 241 -27 c 0
 154 -169 39 -250 28 -250 c 0
 22 -250 18 -247 18 -240 c 0
 18 -237 19 -236 33 -222 c 0
 273 -18 332 353 332 489 c 0
 332 559 324 644 270 726 c 0
 263 736 263 740 263 740 c 2
 263 746 267 750 273 750 c 0
 287 750 330 692 355 625 c 0
 373 575 382 512 382 453 c 0
EndSplineSet
EndChar

StartChar: asterisk
Encoding: 42 42 11
Width: 511
GlyphClass: 2
Flags: MW
HStem: 319 21G<329.5 349> 730 20G<429.5 448>
VStem: 195 388<429 635.5>
LayerCount: 2
Fore
SplineSet
537 447 m 0
 537 431 520 415 505 415 c 0
 498 415 495 416 485 426 c 2
 395 514 l 1
 368 353 l 2
 367 345 362 319 336 319 c 0
 323 319 315 327 315 337 c 0
 315 342 318 349 319 353 c 2
 373 514 l 1
 232 421 l 2
 227 418 223 415 215 415 c 0
 203 415 195 423 195 435 c 0
 195 444 198 455 219 465 c 2
 369 535 l 1
 256 604 l 2
 245 611 242 613 242 622 c 0
 242 637 257 654 274 654 c 0
 282 654 284 652 293 643 c 2
 383 555 l 1
 410 716 l 2
 411 723 416 750 443 750 c 0
 453 750 463 743 463 732 c 0
 463 728 460 720 459 716 c 2
 406 555 l 1
 546 648 l 2
 549 650 555 654 563 654 c 0
 582 654 583 637 583 634 c 0
 583 617 569 608 559 604 c 2
 409 534 l 1
 522 466 l 2
 530 461 537 457 537 447 c 0
EndSplineSet
EndChar

StartChar: plus
Encoding: 43 43 12
Width: 767
GlyphClass: 2
Flags: MW
HStem: -57 21G<370 382.5> 230 40<166 431 173 421 472 719 173 462> 537 20G<510 524>
VStem: 140 612<240 260>
LayerCount: 2
Fore
SplineSet
752 250 m 0
 752 230 733 230 719 230 c 2
 462 230 l 1
 397 -32 l 2
 394 -43 390 -57 375 -57 c 0
 365 -57 355 -50 355 -36 c 0
 355 -32 356 -31 359 -17 c 2
 421 230 l 1
 173 230 l 2
 159 230 140 230 140 250 c 0
 140 270 159 270 173 270 c 2
 431 270 l 1
 496 532 l 2
 498 541 502 557 518 557 c 0
 530 557 538 548 538 537 c 0
 538 533 538 532 534 518 c 2
 472 270 l 1
 719 270 l 2
 733 270 752 270 752 250 c 0
EndSplineSet
EndChar

StartChar: comma
Encoding: 44 44 13
Width: 307
GlyphClass: 2
Flags: MW
HStem: -193 21G<79.5 92> 0 106<158 167>
VStem: 113 111<26 56.5>
LayerCount: 2
Fore
SplineSet
224 47 m 0
 224 -72 101 -193 83 -193 c 0
 76 -193 73 -186 73 -183 c 0
 73 -179 74 -178 86 -166 c 0
 133 -126 183 -62 198 15 c 1
 193 11 177 0 157 0 c 0
 136 0 113 10 113 42 c 0
 113 71 138 106 178 106 c 0
 210 106 224 80 224 47 c 0
EndSplineSet
EndChar

StartChar: hyphen
Encoding: 45 45 14
Width: 358
GlyphClass: 2
Flags: MW
HStem: 187 56<103 314 119 304>
VStem: 86 253<193.5 237>
LayerCount: 2
Fore
SplineSet
331 199 m 0
 328 187 323 187 304 187 c 2
 112 187 l 2
 94 187 86 187 86 200 c 0
 86 205 91 224 93 230 c 0
 97 243 99 243 119 243 c 2
 314 243 l 2
 330 243 339 243 339 231 c 0
 339 227 333 205 331 199 c 0
EndSplineSet
EndChar

StartChar: period
Encoding: 46 46 15
Width: 307
GlyphClass: 2
Flags: MW
HStem: 0 106<162 174>
VStem: 113 109<48 59.5>
LayerCount: 2
Fore
SplineSet
222 63 m 0
 222 33 191 0 157 0 c 0
 131 0 113 17 113 43 c 0
 113 76 146 106 178 106 c 0
 206 106 222 85 222 63 c 0
EndSplineSet
EndChar

StartChar: slash
Encoding: 47 47 16
Width: 511
GlyphClass: 2
Flags: MW
HStem: -250 21G<34 43> 730 20G<593 616>
VStem: 20 596
LayerCount: 2
Fore
SplineSet
616 730 m 2
 616 730 616 724 609 711 c 2
 62 -232 l 2
 53 -247 47 -250 39 -250 c 0
 29 -250 20 -241 20 -230 c 2
 20 -230 20 -224 27 -211 c 2
 574 732 l 2
 583 747 589 750 597 750 c 0
 607 750 616 741 616 730 c 2
EndSplineSet
EndChar

StartChar: zero
Encoding: 48 48 17
Width: 511
GlyphClass: 2
Flags: MW
HStem: -22 22<240 282 240 284> 644 22<399 436.5>
VStem: 117 64<132.5 139 59 192.5> 493 62<513 516 455.5 582>
LayerCount: 2
Fore
SplineSet
476 164 m 0
 411 19 317 -22 251 -22 c 0
 117 -22 117 117 117 148 c 0
 117 237 160 412 209 505 c 0
 269 619 349 666 421 666 c 0
 550 666 555 536 555 496 c 0
 555 415 517 257 476 164 c 0
380 98 m 0
 423 193 493 476 493 550 c 0
 493 614 457 644 416 644 c 0
 382 644 328 622 291 547 c 0
 256 475 181 180 181 98 c 0
 181 20 224 0 256 0 c 0
 308 0 358 51 380 98 c 0
EndSplineSet
Substitution2: "'smcp' Lowercase to Small Capitals lookup 14 subtable" zero.oldstyle
Substitution2: "'zero' Slashed Zero lookup 9 subtable" zero.slash
Substitution2: "'pnum' Proportional Numbers lookup 6 subtable" zero.prop
Substitution2: "'onum' Oldstyle Figures lookup 4 subtable" zero.oldstyle
AlternateSubs2: "'aalt' Access All Alternates lookup 1 subtable" zero.oldstyle zero.prop zero.slash
EndChar

StartChar: one
Encoding: 49 49 18
Width: 511
GlyphClass: 2
Flags: MW
HStem: 0 31<145 153 153 153.5 383 391 391 399> 646 20G<446 452>
LayerCount: 2
Fore
SplineSet
417 19 m 0
 417 0 404 0 397 0 c 0
 353 0 307 3 263 3 c 0
 220 3 175 0 132 0 c 0
 128 0 117 0 117 12 c 0
 117 31 128 31 145 31 c 2
 153 31 l 2
 231 31 239 41 247 73 c 2
 365 547 l 1
 318 512 269 506 254 506 c 0
 250 506 238 506 238 518 c 0
 238 535 249 536 254 537 c 0
 283 540 353 547 430 650 c 0
 442 665 443 666 449 666 c 0
 455 666 461 662 461 654 c 2
 461 654 459 644 458 641 c 2
 315 70 l 2
 314 66 312 57 312 51 c 0
 312 37 318 36 340 33 c 0
 353 32 370 31 383 31 c 2
 391 31 l 2
 407 31 417 31 417 19 c 0
EndSplineSet
Substitution2: "'smcp' Lowercase to Small Capitals lookup 14 subtable" one.oldstyle
Substitution2: "'pnum' Proportional Numbers lookup 6 subtable" one.prop
Substitution2: "'onum' Oldstyle Figures lookup 4 subtable" one.oldstyle
AlternateSubs2: "'aalt' Access All Alternates lookup 1 subtable" one.oldstyle one.prop
EndChar

StartChar: two
Encoding: 50 50 19
Width: 511
GlyphClass: 2
Flags: MW
HStem: -22 70<349 396.5 349 411.5> 55 22<168.5 188> 336 22<211 247.5 211 255.5> 644 22<331 412.5>
VStem: 165 30<389 423.5 377 431.5> 315 22<478.5 499> 480 71<461.5 554.5 432.5 575.5>
LayerCount: 2
Fore
SplineSet
515 163 m 0
 515 152 469 -22 354 -22 c 0
 314 -22 283 0 257 18 c 0
 232 35 204 55 172 55 c 0
 142 55 124 19 116 -9 c 0
 113 -20 111 -22 99 -22 c 0
 94 -22 84 -22 84 -12 c 1
 84 -12 95 59 165 143 c 0
 207 195 249 219 294 246 c 0
 393 305 480 389 480 534 c 0
 480 617 433 644 392 644 c 0
 270 644 195 456 195 391 c 0
 195 363 205 358 217 358 c 0
 278 358 315 464 315 493 c 0
 315 505 311 518 305 530 c 0
 304 532 304 536 304 536 c 2
 304 542 309 547 315 547 c 0
 328 547 337 512 337 494 c 0
 337 456 295 336 216 336 c 0
 171 336 165 379 165 399 c 0
 165 464 247 666 395 666 c 0
 473 666 551 612 551 497 c 0
 551 368 460 306 306 219 c 0
 275 201 202 160 152 74 c 1
 154 75 163 77 174 77 c 0
 205 77 244 68 280 60 c 0
 296 56 335 48 363 48 c 0
 430 48 469 115 483 156 c 0
 487 172 488 173 500 173 c 0
 507 173 515 173 515 163 c 0
EndSplineSet
Substitution2: "'smcp' Lowercase to Small Capitals lookup 14 subtable" two.oldstyle
Substitution2: "'pnum' Proportional Numbers lookup 6 subtable" two.prop
Substitution2: "'onum' Oldstyle Figures lookup 4 subtable" two.oldstyle
AlternateSubs2: "'aalt' Access All Alternates lookup 1 subtable" two.oldstyle two.prop
EndChar

StartChar: three
Encoding: 51 51 20
Width: 511
GlyphClass: 2
Flags: MW
HStem: -22 22<203 250.5 203 291> 319 31<294.5 327 304 327 327 331> 412 22<245 269.5 245 273.5> 644 22<368.5 435.5>
VStem: 199 30<462 510.5 462 518.5> 278 60 316 22<479 503.5> 408 72<143 276.5> 502 60<546 574.5 494 590>
LayerCount: 2
Fore
SplineSet
480 203 m 0x7a80
 480 83 354 -22 228 -22 c 0
 143 -22 95 38 95 106 c 0
 95 124 97 184 148 184 c 0
 171 184 182 168 182 152 c 0
 182 137 169 100 126 104 c 1
 128 30 178 0 228 0 c 0
 273 0 319 25 347 59 c 0
 399 119 408 218 408 236 c 0
 408 317 350 319 331 319 c 2
 303 319 l 2
 286 319 278 319 278 329 c 0xc5
 278 350 287 350 304 350 c 2
 327 350 l 2
 492 350 502 538 502 554 c 0
 502 626 454 644 417 644 c 0
 320 644 229 550 229 471 c 0
 229 453 235 434 255 434 c 0
 284 434 316 462 316 496 c 0
 316 511 308 525 308 525 c 2
 305 531 304 533 304 536 c 0
 304 542 309 547 315 547 c 0
 327 547 338 516 338 497 c 0
 338 447 292 412 255 412 c 0
 218 412 199 441 199 476 c 0
 199 561 300 666 419 666 c 0
 497 666 562 617 562 532 c 0
 562 456 504 365 400 330 c 1
 476 295 480 222 480 203 c 0x7a80
EndSplineSet
Substitution2: "'smcp' Lowercase to Small Capitals lookup 14 subtable" three.oldstyle
Substitution2: "'pnum' Proportional Numbers lookup 6 subtable" three.prop
Substitution2: "'onum' Oldstyle Figures lookup 4 subtable" three.oldstyle
AlternateSubs2: "'aalt' Access All Alternates lookup 1 subtable" three.oldstyle three.prop
EndChar

StartChar: four
Encoding: 52 52 21
Width: 511
GlyphClass: 2
Flags: MW
HStem: -194 21G<281 295.5> -15 31<381.5 393.5 381.5 395> 36 31<165 177> 646 20G<430.5 450>
VStem: 44 430<16 16.5 6 26>
LayerCount: 2
Fore
SplineSet
474 14 m 0
 474 -2 409 -15 381 -15 c 0
 375 -15 367 -15 361 -14 c 1
 324 -160 l 2
 318 -183 305 -194 286 -194 c 0
 276 -194 259 -189 259 -168 c 0
 259 -164 259 -162 263 -147 c 2
 300 2 l 1
 241 25 l 2
 206 36 186 36 168 36 c 0
 109 36 100 29 91 21 c 0
 80 13 65 1 59 1 c 0
 51 1 44 14 44 18 c 0
 44 34 76 51 83 54 c 0
 87 57 176 127 255 255 c 0
 326 371 370 491 403 616 c 0
 410 643 416 666 445 666 c 0
 455 666 472 661 472 640 c 1
 472 640 414 316 144 66 c 1
 157 67 159 67 171 67 c 0
 193 67 210 67 247 56 c 0
 276 46 235 59 308 33 c 1
 350 199 l 2
 354 216 360 242 390 242 c 0
 393 242 417 241 417 215 c 0
 417 212 417 210 413 195 c 2
 369 17 l 1
 374 16 378 16 385 16 c 0
 402 16 427 20 445 27 c 0
 455 31 459 31 459 31 c 2
 468 31 474 19 474 14 c 0
EndSplineSet
Substitution2: "'smcp' Lowercase to Small Capitals lookup 14 subtable" four.oldstyle
Substitution2: "'pnum' Proportional Numbers lookup 6 subtable" four.prop
Substitution2: "'onum' Oldstyle Figures lookup 4 subtable" four.oldstyle
AlternateSubs2: "'aalt' Access All Alternates lookup 1 subtable" four.oldstyle four.prop
EndChar

StartChar: five
Encoding: 53 53 22
Width: 511
GlyphClass: 2
Flags: MW
HStem: -22 28<218 254.5 218 300> 122 86<145.5 165> 398 22<350.5 385.5> 558 76<395 424> 645 20G<287.5 293 556.5 559.5>
VStem: 426 72<281.5 304.5 189 336>
LayerCount: 2
Fore
SplineSet
498 265 m 0
 498 113 364 -22 236 -22 c 0
 150 -22 107 44 107 117 c 0
 107 149 113 208 165 208 c 0
 188 208 201 194 201 174 c 0
 201 151 182 122 148 122 c 0
 143 122 141 122 138 123 c 1
 139 26 200 6 236 6 c 0
 273 6 332 28 376 109 c 0
 397 149 426 254 426 309 c 0
 426 363 406 398 365 398 c 0
 336 398 281 389 230 329 c 0
 223 322 221 319 214 319 c 0
 208 319 201 321 201 331 c 2
 201 331 202 341 203 344 c 2
 279 648 l 2
 282 659 284 665 291 665 c 0
 295 665 299 663 305 660 c 0
 334 644 373 634 417 634 c 0
 456 634 501 642 546 662 c 0
 551 664 555 665 558 665 c 0
 561 665 567 663 567 656 c 0
 567 641 479 558 369 558 c 0
 349 558 326 560 307 567 c 0
 297 570 294 570 294 570 c 1
 294 570 292 569 289 558 c 2
 243 374 l 1
 280 403 321 420 367 420 c 0
 454 420 498 344 498 265 c 0
EndSplineSet
Substitution2: "'smcp' Lowercase to Small Capitals lookup 14 subtable" five.oldstyle
Substitution2: "'pnum' Proportional Numbers lookup 6 subtable" five.prop
Substitution2: "'onum' Oldstyle Figures lookup 4 subtable" five.oldstyle
AlternateSubs2: "'aalt' Access All Alternates lookup 1 subtable" five.oldstyle five.prop
EndChar

StartChar: six
Encoding: 54 54 23
Width: 511
GlyphClass: 2
Flags: MW
HStem: -22 28<226.5 284 226.5 317> 404 22<336.5 371> 521 80<511 533> 641 25<439.5 481>
VStem: 120 65<82.5 193> 435 72<294 295 195 332.5>
LayerCount: 2
Fore
SplineSet
507 270 m 0
 507 120 380 -22 254 -22 c 0
 120 -22 120 131 120 158 c 0
 120 228 142 387 227 507 c 0
 299 609 389 666 471 666 c 0
 531 666 568 637 568 587 c 0
 568 549 550 521 516 521 c 0
 490 521 482 539 482 553 c 0
 482 560 487 601 535 601 c 1
 525 637 492 641 470 641 c 0
 409 641 356 593 325 554 c 0
 279 495 255 429 232 339 c 1
 262 383 306 426 367 426 c 0
 480 426 507 320 507 270 c 0
380 96 m 0
 400 135 435 271 435 317 c 0
 435 348 426 368 417 380 c 0
 400 404 378 404 364 404 c 0
 231 404 185 176 185 97 c 0
 185 68 197 6 256 6 c 0
 312 6 354 49 380 96 c 0
EndSplineSet
Substitution2: "'smcp' Lowercase to Small Capitals lookup 14 subtable" six.oldstyle
Substitution2: "'pnum' Proportional Numbers lookup 6 subtable" six.prop
Substitution2: "'onum' Oldstyle Figures lookup 4 subtable" six.oldstyle
AlternateSubs2: "'aalt' Access All Alternates lookup 1 subtable" six.oldstyle six.prop
EndChar

StartChar: seven
Encoding: 55 55 24
Width: 511
GlyphClass: 2
Flags: MW
HStem: -22 21G<294.5 322.5> 527 22<459.5 476> 596 70<377.5 387.5>
VStem: 144 481<427 661>
LayerCount: 2
Fore
SplineSet
625 656 m 1
 625 656 625 652 616 639 c 0
 588 596 542 527 490 415 c 0
 432 291 390 164 359 44 c 0
 351 10 342 -22 303 -22 c 0
 286 -22 268 -11 268 11 c 0
 268 15 287 122 378 304 c 0
 411 370 412 372 513 538 c 1
 499 531 484 527 468 527 c 0
 451 527 435 532 419 561 c 0
 402 589 397 596 378 596 c 0
 342 596 250 575 175 430 c 0
 171 423 170 422 159 422 c 0
 152 422 144 422 144 432 c 2
 144 432 144 435 150 447 c 2
 246 651 l 2
 253 665 254 666 265 666 c 0
 270 666 280 666 280 656 c 2
 280 656 280 653 257 603 c 1
 315 658 364 666 391 666 c 0
 432 666 436 636 440 598 c 0
 443 564 446 549 468 549 c 0
 509 549 546 589 583 643 c 2
 598 663 l 2
 602 666 606 666 611 666 c 0
 617 666 625 666 625 656 c 1
EndSplineSet
Substitution2: "'smcp' Lowercase to Small Capitals lookup 14 subtable" seven.oldstyle
Substitution2: "'pnum' Proportional Numbers lookup 6 subtable" seven.prop
Substitution2: "'onum' Oldstyle Figures lookup 4 subtable" seven.oldstyle
AlternateSubs2: "'aalt' Access All Alternates lookup 1 subtable" seven.oldstyle seven.prop
EndChar

StartChar: eight
Encoding: 56 56 25
Width: 511
GlyphClass: 2
Flags: MW
HStem: -22 28<223 301 223 315> 641 25<378.5 443.5>
VStem: 97 50<81 137.5> 210 55<497 513> 435 59<150.5 188.5> 509 45<511 579>
LayerCount: 2
Fore
SplineSet
494 208 m 0
 494 93 378 -22 252 -22 c 0
 167 -22 97 31 97 115 c 0
 97 160 116 258 286 337 c 1
 241 377 240 378 234 386 c 0
 224 399 210 427 210 463 c 0
 210 563 310 666 420 666 c 0
 490 666 554 624 554 548 c 0
 554 474 496 408 397 360 c 1
 420 340 459 306 465 299 c 0
 485 272 494 240 494 208 c 0
509 550 m 0
 509 608 470 641 417 641 c 0
 340 641 265 575 265 509 c 0
 265 485 275 463 293 448 c 2
 369 384 l 2
 376 377 378 377 378 377 c 2
 384 377 509 445 509 550 c 0
435 166 m 0
 435 211 412 230 387 252 c 2
 305 321 l 1
 206 274 147 186 147 113 c 0
 147 49 191 6 255 6 c 0
 347 6 435 86 435 166 c 0
EndSplineSet
Substitution2: "'smcp' Lowercase to Small Capitals lookup 14 subtable" eight.oldstyle
Substitution2: "'pnum' Proportional Numbers lookup 6 subtable" eight.prop
Substitution2: "'onum' Oldstyle Figures lookup 4 subtable" eight.oldstyle
AlternateSubs2: "'aalt' Access All Alternates lookup 1 subtable" eight.oldstyle eight.prop
EndChar

StartChar: nine
Encoding: 57 57 26
Width: 511
GlyphClass: 2
Flags: MW
HStem: -22 28<200 245 200 260> 43 80 219 22<272.5 335> 641 25<385.5 446.5>
VStem: 165 72<321 450> 488 65<466 571.5>
LayerCount: 2
Fore
SplineSet
553 488 m 0
 553 444 539 267 439 126 c 0
 392 59 308 -22 212 -22 c 0
 150 -22 104 5 104 58 c 0
 104 94 122 123 156 123 c 0
 182 123 190 105 190 91 c 0
 190 86 187 46 139 42 c 1
 152 13 186 6 214 6 c 0
 276 6 324 58 345 84 c 0
 389 140 414 200 440 306 c 1
 409 259 365 219 305 219 c 0
 190 219 165 331 165 376 c 0
 165 524 292 666 423 666 c 0
 553 666 553 515 553 488 c 0
488 550 m 0
 488 593 472 641 421 641 c 0
 350 641 307 573 295 551 c 0
 267 501 237 366 237 328 c 0
 237 314 237 241 308 241 c 0
 445 241 488 478 488 550 c 0
EndSplineSet
Substitution2: "'smcp' Lowercase to Small Capitals lookup 14 subtable" nine.oldstyle
Substitution2: "'pnum' Proportional Numbers lookup 6 subtable" nine.prop
Substitution2: "'onum' Oldstyle Figures lookup 4 subtable" nine.oldstyle
AlternateSubs2: "'aalt' Access All Alternates lookup 1 subtable" nine.oldstyle nine.prop
EndChar

StartChar: colon
Encoding: 58 58 27
Width: 307
GlyphClass: 2
Flags: MW
HStem: 0 106<162 174> 325 106<242 255>
VStem: 113 109<48 59.5> 194 109<372.5 383.5>
LayerCount: 2
Fore
SplineSet
222 63 m 0xe0
 222 33 191 0 157 0 c 0
 131 0 113 17 113 43 c 0
 113 76 146 106 178 106 c 0
 206 106 222 85 222 63 c 0xe0
303 388 m 0
 303 357 272 325 238 325 c 0
 210 325 194 345 194 368 c 0x50
 194 399 225 431 259 431 c 0
 287 431 303 411 303 388 c 0
EndSplineSet
EndChar

StartChar: semicolon
Encoding: 59 59 28
Width: 307
GlyphClass: 2
Flags: MW
HStem: -193 21G<80 92> 0 106<158 167> 325 106<242 255>
VStem: 113 105<26 56.5>
LayerCount: 2
Fore
SplineSet
218 53 m 0
 218 -67 101 -193 83 -193 c 0
 77 -193 73 -188 73 -182 c 0
 73 -178 75 -175 80 -172 c 0
 132 -122 172 -65 190 9 c 1
 188 8 177 0 157 0 c 0
 136 0 113 10 113 42 c 0
 113 71 138 106 178 106 c 0
 218 106 218 66 218 53 c 0
303 388 m 0
 303 357 272 325 238 325 c 0
 210 325 194 345 194 368 c 0
 194 399 225 431 259 431 c 0
 287 431 303 411 303 388 c 0
EndSplineSet
EndChar

StartChar: less
Encoding: 60 60 29
Width: 778
GlyphClass: 2
Flags: W
LayerCount: 2
Fore
SplineSet
689 -20 m 0
 686 -31 675 -40 664 -40 c 0
 661 -40 659 -40 648 -33 c 2
 159 228 l 2
 149 233 143 238 146 250 c 0
 149 262 158 267 170 272 c 2
 789 533 l 2
 804 540 806 540 809 540 c 0
 820 540 827 531 824 520 c 0
 821 509 813 504 800 498 c 2
 213 250 l 1
 676 2 l 2
 686 -4 692 -9 689 -20 c 0
EndSplineSet
EndChar

StartChar: equal
Encoding: 61 61 30
Width: 767
GlyphClass: 2
Flags: MW
HStem: 133 40<142 695 149 695> 327 40<189.5 743 197 743>
VStem: 115 613<143 163> 164 613<337 357>
LayerCount: 2
Fore
SplineSet
728 153 m 0xe0
 728 133 710 133 695 133 c 2
 149 133 l 2
 135 133 115 133 115 153 c 0
 115 173 135 173 149 173 c 2
 695 173 l 2
 710 173 728 173 728 153 c 0xe0
777 347 m 0
 777 327 757 327 743 327 c 2
 197 327 l 2
 182 327 164 327 164 347 c 0x50
 164 367 182 367 197 367 c 2
 743 367 l 2
 757 367 777 367 777 347 c 0
EndSplineSet
EndChar

StartChar: greater
Encoding: 62 62 31
Width: 778
GlyphClass: 2
Flags: W
LayerCount: 2
Fore
SplineSet
757 250 m 0
 754 238 744 233 732 228 c 2
 113 -33 l 2
 98 -40 96 -40 93 -40 c 0
 82 -40 75 -31 78 -20 c 0
 80 -11 87 -5 103 2 c 2
 690 250 l 1
 227 498 l 2
 214 505 211 511 213 520 c 0
 216 531 227 540 238 540 c 0
 241 540 243 540 254 533 c 2
 743 272 l 2
 753 267 760 262 757 250 c 0
EndSplineSet
EndChar

StartChar: question
Encoding: 63 63 32
Width: 511
GlyphClass: 2
Flags: MW
HStem: 0 106<263.5 276> 106 81<285 294> 187 22<297 321.5 297 339.5> 431 81<239 241> 694 22<390 454>
VStem: 246 35<240.5 262.5 235 288.5> 516 35<570.5 627.5 544 635>
LayerCount: 2
Fore
SplineSet
551 592 m 0x5e
 551 496 482 441 441 409 c 2
 363 346 l 2
 299 296 281 282 281 243 c 0
 281 227 288 209 306 209 c 0xa6
 337 209 372 237 386 277 c 0
 390 290 391 292 403 292 c 0
 408 292 418 292 418 282 c 0
 418 258 373 187 306 187 c 0
 264 187 246 224 246 257 c 0
 246 320 290 354 315 375 c 2
 436 470 l 2
 465 494 516 535 516 606 c 0
 516 664 477 694 431 694 c 0
 349 694 275 612 239 512 c 1
 269 512 277 494 277 480 c 0
 277 454 254 431 228 431 c 0
 215 431 194 437 194 463 c 0
 194 506 278 716 431 716 c 0
 504 716 551 663 551 592 c 0x5e
324 63 m 0
 324 32 293 0 259 0 c 0
 234 0 215 18 215 43 c 0
 215 77 248 106 279 106 c 0
 309 106 324 83 324 63 c 0
EndSplineSet
EndChar

StartChar: at
Encoding: 64 64 33
Width: 767
GlyphClass: 2
Flags: MW
HStem: -11 22<320 395> 128 22<388.5 450 629 663.5> 544 22<479.5 559> 683 22<466.5 618.5>
VStem: 151 31<182.5 358 182.5 364> 279 61<247 335.5 247 357.5> 759 30<424 514.5>
LayerCount: 2
Fore
SplineSet
706 68 m 0
 706 52 584 17 558 11 c 0
 471 -11 402 -11 388 -11 c 0
 230 -11 151 113 151 248 c 0
 151 480 356 705 557 705 c 0
 684 705 789 611 789 445 c 0
 789 354 747 244 746 241 c 0
 731 200 699 128 628 128 c 0
 607 128 556 136 553 193 c 1
 533 174 483 128 417 128 c 0
 341 128 279 188 279 286 c 0
 279 429 403 566 522 566 c 0
 601 566 627 501 635 481 c 1
 661 481 l 2
 677 481 684 481 684 471 c 2
 684 471 683 461 682 458 c 2
 617 195 l 2
 616 189 614 181 614 175 c 0
 614 150 626 150 632 150 c 0
 721 150 759 400 759 448 c 0
 759 581 681 683 556 683 c 0
 377 683 182 470 182 246 c 0
 182 119 251 11 389 11 c 0
 478 11 566 34 647 71 c 0
 663 78 665 78 681 78 c 0
 700 78 706 78 706 68 c 0
570 268 m 2
 610 430 l 1
 613 444 l 2
 613 458 596 544 522 544 c 0
 437 544 340 401 340 270 c 0
 340 224 357 150 420 150 c 0
 488 150 561 232 570 268 c 2
EndSplineSet
EndChar

StartChar: A
Encoding: 65 65 34
Width: 743
GlyphClass: 2
Flags: MW
HStem: 0 31<456.5 472.5 657 676> 229 31<307 516 307 518 290 516> 696 20G<542 558>
VStem: 59 633<10.5 12>
AnchorPoint: "Anchor-5" 378 -25 basechar 0
AnchorPoint: "Anchor-3" 572 16 basechar 0
AnchorPoint: "Anchor-2" 553 749 basechar 0
AnchorPoint: "Anchor-1" 693 428 basechar 0
AnchorPoint: "Anchor-0" 431 311 basechar 0
LayerCount: 2
Fore
SplineSet
692 18 m 0
 692 0 680 0 674 0 c 0
 640 0 604 3 569 3 c 0
 531 3 491 0 454 0 c 0
 451 0 439 0 439 12 c 0
 439 31 451 31 462 31 c 0
 505 31 529 43 529 63 c 2
 518 229 l 1
 290 229 l 1
 218 103 l 2
 209 86 204 74 204 65 c 0
 204 34 240 32 246 31 c 0
 254 30 262 30 262 19 c 0
 262 0 249 0 244 0 c 0
 214 0 182 3 151 3 c 0
 125 3 96 0 71 0 c 0
 60 0 59 9 59 12 c 2
 59 12 60 30 71 31 c 0
 106 33 149 37 192 113 c 2
 524 698 l 2
 530.18359375 708.895507812 534 716 550 716 c 0
 566 716 567 713 568 691 c 2
 611 65 l 2
 613 39 616 31 668 31 c 0
 684 31 692 31 692 18 c 0
516 260 m 1
 493 587 l 1
 307 260 l 1
 516 260 l 1
EndSplineSet
Position2: "'cpsp' Capital Spacing lookup 0 subtable" dx=7 dy=0 dh=14 dv=0
EndChar

StartChar: B
Encoding: 66 66 35
Width: 704
GlyphClass: 2
Flags: MW
HStem: 0 31<84 90 90 126 274 398 398 420> 344 22<323 455 455 489 317 455> 652 31<255 270.5 417.5 434 434 552>
VStem: 646 88<510.5 568.5>
AnchorPoint: "Anchor-5" 378 -25 basechar 0
AnchorPoint: "Anchor-2" 559 749 basechar 0
AnchorPoint: "Anchor-1" 793 428 basechar 0
AnchorPoint: "Anchor-0" 431 311 basechar 0
LayerCount: 2
Fore
SplineSet
677 219 m 0
 677 115 562 0 420 0 c 2
 90 0 l 2
 74 0 65 0 65 12 c 0
 65 31 76 31 92 31 c 0
 160 31 166 39 174 73 c 2
 309 616 l 2
 313 630 313 632 313 635 c 0
 313 652 286 652 255 652 c 0
 236 652 228 652 228 664 c 0
 228 683 239 683 255 683 c 2
 566 683 l 2
 675 683 734 619 734 547 c 0
 734 470 660 384 538 357 c 1
 610 348 677 302 677 219 c 0
646 553 m 0
 646 584 636 652 552 652 c 2
 434 652 l 2
 401 652 394 652 385 616 c 2
 323 366 l 1
 455 366 l 2
 569 366 646 468 646 553 c 0
588 232 m 0
 588 258 582 344 489 344 c 2
 317 344 l 1
 247 63 l 2
 246 57 243 47 243 41 c 0
 243 34 243 31 274 31 c 2
 398 31 l 2
 508 31 588 135 588 232 c 0
EndSplineSet
Position2: "'cpsp' Capital Spacing lookup 0 subtable" dx=7 dy=0 dh=14 dv=0
EndChar

StartChar: C
Encoding: 67 67 36
Width: 716
GlyphClass: 2
Flags: MW
HStem: -22 31<367 450.5 367 492.5> 674 31<540.5 596 468 632>
VStem: 150 87<163 238 136 362.5>
AnchorPoint: "Anchor-5" 398 -25 basechar 0
AnchorPoint: "Anchor-3" 397 -9 basechar 0
AnchorPoint: "Anchor-2" 609 749 basechar 0
AnchorPoint: "Anchor-1" 843 428 basechar 0
AnchorPoint: "Anchor-0" 481 311 basechar 0
LayerCount: 2
Fore
SplineSet
810 681 m 2
 749 438 l 2
 745 421 742 420 731 420 c 0
 726 420 716 420 716 430 c 0
 716 433 721 465 721 491 c 0
 721 578 685 674 579 674 c 0
 502 674 410 628 342 536 c 0
 262 426 237 269 237 207 c 0
 237 65 325 9 409 9 c 0
 492 9 617 73 668 242 c 0
 671 250 678 250 684 250 c 0
 689 250 699 250 699 240 c 0
 699 192 590 -22 395 -22 c 0
 257 -22 150 81 150 245 c 0
 150 480 365 705 571 705 c 0
 621 705 679 689 722 620 c 1
 785 694 l 2
 794 705 801 705 801 705 c 1
 811 705 812 695 812 695 c 2
 812 691 811 685 810 681 c 2
EndSplineSet
Position2: "'cpsp' Capital Spacing lookup 0 subtable" dx=7 dy=0 dh=14 dv=0
EndChar

StartChar: D
Encoding: 68 68 37
Width: 755
GlyphClass: 2
Flags: MW
HStem: 0 31<82 88 88 124 275 378 378 395> 652 31<253 268.5 418.5 435 435 532>
VStem: 692 83<446.5 509.5 325.5 541.5>
AnchorPoint: "Anchor-5" 378 -25 basechar 0
AnchorPoint: "Anchor-3" 357 1 basechar 0
AnchorPoint: "Anchor-2" 559 749 basechar 0
AnchorPoint: "Anchor-1" 843 428 basechar 0
AnchorPoint: "Anchor-0" 481 311 basechar 0
LayerCount: 2
Fore
SplineSet
775 438 m 0
 775 213 584 0 395 0 c 2
 88 0 l 2
 72 0 63 0 63 12 c 0
 63 31 74 31 90 31 c 0
 158 31 164 39 172 73 c 2
 307 616 l 2
 311 630 311 632 311 635 c 0
 311 652 284 652 253 652 c 0
 234 652 226 652 226 664 c 0
 226 683 237 683 253 683 c 2
 565 683 l 2
 694 683 775 581 775 438 c 0
692 476 m 0
 692 607 613 652 532 652 c 2
 435 652 l 2
 402 652 395 651 386 616 c 2
 248 63 l 2
 247 57 244 47 244 41 c 0
 244 34 244 31 275 31 c 2
 378 31 l 2
 458 31 529 73 578 130 c 0
 663 230 692 417 692 476 c 0
EndSplineSet
Position2: "'cpsp' Capital Spacing lookup 0 subtable" dx=7 dy=0 dh=14 dv=0
EndChar

StartChar: E
Encoding: 69 69 38
Width: 678
GlyphClass: 2
Flags: MW
HStem: 0 31<81 87 87 123 277 399 399 478.5> 338 31<327 406 319 408> 455 31 649 31<251 280 419.5 436 436 561>
VStem: 62 683
AnchorPoint: "Anchor-5" 378 -25 basechar 0
AnchorPoint: "Anchor-3" 432 2 basechar 0
AnchorPoint: "Anchor-2" 559 749 basechar 0
AnchorPoint: "Anchor-1" 793 428 basechar 0
AnchorPoint: "Anchor-0" 431 311 basechar 0
LayerCount: 2
Fore
SplineSet
687 247 m 2
 687 247 684 237 683 235 c 2
 594 16 l 2
 587 1 586 0 566 0 c 2
 87 0 l 2
 71 0 62 0 62 12 c 0
 62 31 73 31 89 31 c 0
 157 31 163 39 171 73 c 2
 305 609 l 2
 309 624 309 632 309 632 c 2
 309 641 309 649 251 649 c 0
 231 649 224 649 224 662 c 0
 224 680 234 680 251 680 c 2
 718 680 l 2
 739 680 745 680 742 654 c 2
 719 477 l 2
 717 459 716 455 702 455 c 0
 698 455 687 455 687 467 c 0
 687 470 688 479 689 484 c 0
 692 508 694 521 694 548 c 0
 694 619 669 649 561 649 c 2
 436 649 l 2
 403 649 396 648 388 615 c 2
 327 369 l 1
 408 369 l 2
 489 369 508 391 527 462 c 0
 533 483 533 486 546 486 c 0
 550 486 562 486 562 474 c 2
 562 474 560 464 559 461 c 2
 504 241 l 2
 500 223 497 221 486 221 c 0
 480 221 470 221 470 233 c 0
 470 236 472 244 472 244 c 2
 480 273 481 288 481 295 c 0
 481 322 474 338 406 338 c 2
 319 338 l 1
 250 63 l 2
 249 57 246 47 246 41 c 0
 246 34 246 31 277 31 c 2
 399 31 l 2
 558 31 593 96 651 234 c 0
 660 257 661 258 672 258 c 0
 675 258 687 258 687 247 c 2
EndSplineSet
Position2: "'cpsp' Capital Spacing lookup 0 subtable" dx=7 dy=0 dh=14 dv=0
EndChar

StartChar: F
Encoding: 70 70 39
Width: 653
GlyphClass: 2
Flags: MW
HStem: 0 31<81 96 322 332 332 340> 325 31<324 399 316 402> 649 31<251 280 419.5 436 436 553>
VStem: 62 671
AnchorPoint: "Anchor-5" 208 -25 basechar 0
AnchorPoint: "Anchor-2" 559 749 basechar 0
AnchorPoint: "Anchor-1" 793 428 basechar 0
AnchorPoint: "Anchor-0" 431 311 basechar 0
LayerCount: 2
Fore
SplineSet
707 477 m 2
 705 459 704 455 690 455 c 0
 686 455 675 455 675 467 c 2
 676 483 l 2
 679 506 682 525 682 549 c 0
 682 618 660 649 553 649 c 2
 436 649 l 2
 403 649 396 648 388 615 c 2
 324 356 l 1
 402 356 l 2
 485 356 501 381 519 452 c 0
 524 470 525 473 538 473 c 0
 541 473 553 473 553 462 c 0
 553 457 552 452 551 448 c 2
 496 228 l 2
 491 209 488 208 477 208 c 0
 473 208 462 208 462 220 c 0
 462 223 463 227 465 234 c 0
 469 250 473 266 473 283 c 0
 473 310 464 325 399 325 c 2
 316 325 l 1
 253 73 l 2
 249 58 249 56 249 52 c 0
 249 39 249 31 322 31 c 2
 332 31 l 2
 348 31 357 31 357 19 c 0
 357 0 345 0 336 0 c 0
 291 0 244 3 198 3 c 0
 158 3 116 0 76 0 c 0
 73 0 62 0 62 12 c 0
 62 31 73 31 89 31 c 0
 157 31 163 39 171 73 c 2
 305 609 l 2
 309 624 309 632 309 632 c 2
 309 641 309 649 251 649 c 0
 231 649 224 649 224 662 c 0
 224 680 234 680 251 680 c 2
 706 680 l 2
 727 680 733 680 730 654 c 2
 707 477 l 2
EndSplineSet
Position2: "'cpsp' Capital Spacing lookup 0 subtable" dx=7 dy=0 dh=14 dv=0
EndChar

StartChar: G
Encoding: 71 71 40
Width: 774
GlyphClass: 2
Flags: MW
HStem: -22 31<366.5 433 366.5 442> 242 31<524.5 532 532 540 739.5 750.5> 674 31<540.5 596 468 632>
VStem: 150 87<164.5 237 141.5 362.5>
AnchorPoint: "Anchor-5" 393 -52 basechar 0
AnchorPoint: "Anchor-3" 401 -13 basechar 0
AnchorPoint: "Anchor-2" 599 749 basechar 0
AnchorPoint: "Anchor-1" 843 428 basechar 0
AnchorPoint: "Anchor-0" 481 311 basechar 0
LayerCount: 2
Fore
SplineSet
768 260 m 0
 768 242 757 242 744 242 c 0
 700 242 698 232 692 209 c 2
 644 18 l 2
 641 7 639 1 632 1 c 0
 621 1 599 37 590 61 c 1
 561 24 488 -22 396 -22 c 0
 254 -22 150 84 150 245 c 0
 150 480 365 705 571 705 c 0
 621 705 679 689 722 620 c 1
 785 694 l 2
 794 705 801 705 801 705 c 1
 811 705 812 695 812 695 c 2
 812 691 811 685 810 681 c 2
 749 438 l 2
 745 421 742 420 731 420 c 0
 726 420 716 420 716 430 c 0
 716 433 721 465 721 491 c 0
 721 578 685 674 579 674 c 0
 502 674 410 628 342 536 c 0
 261 425 237 266 237 208 c 0
 237 75 319 9 414 9 c 0
 452 9 507 21 550 60 c 0
 580 88 582 99 604 188 c 0
 612 216 612 218 612 222 c 0
 612 236 604 237 583 240 c 0
 570 241 553 242 540 242 c 2
 532 242 l 2
 517 242 506 242 506 253 c 0
 506 273 519 273 527 273 c 0
 570 273 615 270 658 270 c 0
 690 270 724 273 755 273 c 0
 764 273 768 268 768 260 c 0
EndSplineSet
Position2: "'cpsp' Capital Spacing lookup 0 subtable" dx=7 dy=0 dh=14 dv=0
EndChar

StartChar: H
Encoding: 72 72 41
Width: 743
GlyphClass: 2
Flags: MW
HStem: 0 31<81 95 294.5 316 437 451 650.5 672> 340 31<327 593 319 601> 652 31<242.5 263.5 241 267.5 463 476.5 598.5 619.5 819 832.5>
VStem: 62 790<6 675.5>
AnchorPoint: "Anchor-5" 378 -25 basechar 0
AnchorPoint: "Anchor-3" 195 5 basechar 0
AnchorPoint: "Anchor-2" 559 749 basechar 0
AnchorPoint: "Anchor-1" 863 428 basechar 0
AnchorPoint: "Anchor-0" 461 311 basechar 0
LayerCount: 2
Fore
SplineSet
689 18 m 0
 689 0 677 0 670 0 c 0
 631 0 590 3 550 3 c 0
 511 3 470 0 432 0 c 0
 429 0 418 0 418 12 c 0
 418 31 429 31 445 31 c 0
 513 31 519 39 527 73 c 2
 593 340 l 1
 319 340 l 1
 252 68 l 2
 248 54 248 52 248 48 c 0
 248 39 248 31 306 31 c 0
 326 31 333 31 333 18 c 0
 333 0 321 0 314 0 c 0
 275 0 234 3 194 3 c 0
 155 3 114 0 76 0 c 0
 73 0 62 0 62 12 c 0
 62 31 73 31 89 31 c 0
 157 31 163 39 171 73 c 2
 306 616 l 2
 310 630 310 632 310 635 c 0
 310 652 283 652 252 652 c 0
 233 652 225 652 225 664 c 0
 225 683 238 683 244 683 c 0
 283 683 324 680 364 680 c 0
 403 680 444 683 482 683 c 0
 489 683 496 681 496 670 c 0
 496 652 487 652 466 652 c 0
 403 652 395 644 387 612 c 2
 327 371 l 1
 601 371 l 1
 662 616 l 2
 666 630 666 632 666 635 c 0
 666 652 639 652 608 652 c 0
 589 652 581 652 581 664 c 0
 581 683 594 683 600 683 c 0
 639 683 680 680 720 680 c 0
 759 680 800 683 838 683 c 0
 845 683 852 681 852 670 c 0
 852 652 843 652 822 652 c 0
 759 652 751 644 743 612 c 2
 608 71 l 2
 604 56 604 48 604 48 c 2
 604 39 604 31 662 31 c 0
 682 31 689 31 689 18 c 0
EndSplineSet
Position2: "'cpsp' Capital Spacing lookup 0 subtable" dx=7 dy=0 dh=14 dv=0
EndChar

StartChar: I
Encoding: 73 73 42
Width: 386
GlyphClass: 2
Flags: MW
HStem: 0 31<76.5 91 298 320> 652 31<237 259.5 235.5 264 467 480.5>
VStem: 57 444
AnchorPoint: "Anchor-5" 192 -25 basechar 0
AnchorPoint: "Anchor-3" 237 5 basechar 0
AnchorPoint: "Anchor-2" 379 749 basechar 0
AnchorPoint: "Anchor-1" 493 428 basechar 0
AnchorPoint: "Anchor-0" 281 311 basechar 0
LayerCount: 2
Fore
SplineSet
338 19 m 0
 338 0 325 0 318 0 c 0
 278 0 235 3 194 3 c 0
 153 3 111 0 71 0 c 0
 64 0 57 2 57 13 c 0
 57 31 66 31 87 31 c 0
 154 31 163 39 171 72 c 2
 307 616 l 2
 308 619 310 632 310 635 c 0
 310 652 281 652 247 652 c 0
 227 652 220 652 220 665 c 0
 220 683 232 683 239 683 c 0
 280 683 323 680 364 680 c 0
 405 680 447 683 487 683 c 0
 491 683 501 683 501 671 c 0
 501 652 491 652 470 652 c 0
 401 652 395 643 387 611 c 2
 252 71 l 2
 248 56 248 49 248 49 c 2
 248 38 248 31 310 31 c 0
 330 31 338 31 338 19 c 0
EndSplineSet
Position2: "'cpsp' Capital Spacing lookup 0 subtable" dx=7 dy=0 dh=14 dv=0
EndChar

StartChar: J
Encoding: 74 74 43
Width: 525
GlyphClass: 2
Flags: MW
HStem: -22 22<189.5 237.5 189.5 259> 65 98<154.5 156> 652 31<365 373 373 385 591.5 603.5>
VStem: 94 103<111.5 124.5>
AnchorPoint: "Anchor-5" 211 -39 basechar 0
AnchorPoint: "Anchor-2" 517 749 basechar 0
AnchorPoint: "Anchor-1" 638 428 basechar 0
AnchorPoint: "Anchor-0" 426 311 basechar 0
LayerCount: 2
Fore
SplineSet
622 671 m 0
 622 652 611 652 596 652 c 0
 551 652 544 644 537 616 c 2
 420 144 l 2
 398 53 306 -22 212 -22 c 0
 148 -22 94 18 94 86 c 0
 94 163 153 163 156 163 c 0
 177 163 197 150 197 124 c 0
 197 99 175 65 137 65 c 0
 130 65 128 65 126 66 c 1
 134 25 169 0 210 0 c 0
 265 0 322 70 341 145 c 2
 457 611 l 2
 461 625 461 627 461 631 c 0
 461 646 453 647 431 650 c 0
 413 652 402 652 385 652 c 2
 373 652 l 2
 357 652 348 652 348 664 c 0
 348 683 360 683 369 683 c 0
 413 683 460 680 505 680 c 0
 539 680 575 683 608 683 c 0
 616 683 622 680 622 671 c 0
EndSplineSet
Position2: "'cpsp' Capital Spacing lookup 0 subtable" dx=7 dy=0 dh=14 dv=0
EndChar

StartChar: K
Encoding: 75 75 44
Width: 769
GlyphClass: 2
Flags: MW
HStem: 0 31<81 95 294.5 316 490.5 500.5 691 695.5> 652 31<242.5 263.5 241 267.5 463 476.5>
VStem: 62 797<6 674.5>
AnchorPoint: "Anchor-5" 404 -25 basechar 0
AnchorPoint: "Anchor-2" 589 749 basechar 0
AnchorPoint: "Anchor-1" 877 428 basechar 0
AnchorPoint: "Anchor-0" 431 311 basechar 0
LayerCount: 2
Fore
SplineSet
709 19 m 0
 709 4 701 0 692 0 c 0
 663 0 631 3 601 3 c 0
 564 3 525 0 489 0 c 0
 482 0 475 2 475 13 c 0
 475 31 487 31 494 31 c 0
 507 31 545 32 545 64 c 0
 545 67 545 69 539 84 c 2
 435 363 l 1
 296 248 l 1
 261 104 l 2
 256 86 248 54 248 48 c 0
 248 39 248 31 306 31 c 0
 326 31 333 31 333 18 c 0
 333 0 321 0 314 0 c 0
 275 0 234 3 194 3 c 0
 155 3 114 0 76 0 c 0
 73 0 62 0 62 12 c 0
 62 31 73 31 89 31 c 0
 157 31 163 39 171 73 c 2
 306 616 l 2
 310 630 310 632 310 635 c 0
 310 652 283 652 252 652 c 0
 233 652 225 652 225 664 c 0
 225 683 238 683 244 683 c 0
 283 683 324 680 364 680 c 0
 403 680 444 683 482 683 c 0
 489 683 496 681 496 670 c 0
 496 652 487 652 466 652 c 0
 403 652 395 644 387 612 c 2
 308 293 l 1
 660 586 l 2
 676 599 693 614 693 632 c 0
 693 646 681 651 667 652 c 0
 662 652 653 653 653 664 c 0
 653 683 666 683 672 683 c 0
 706 683 744 680 779 680 c 0
 802 680 827 683 848 683 c 0
 855 683 859 678 859 671 c 0
 859 654 849 653 841 652 c 0
 775 646 707 589 684 570 c 2
 500 417 l 1
 631 70 l 2
 643 39 655 32 691 31 c 0
 700 31 709 31 709 19 c 0
EndSplineSet
Position2: "'cpsp' Capital Spacing lookup 0 subtable" dx=7 dy=0 dh=14 dv=0
EndChar

StartChar: L
Encoding: 76 76 45
Width: 627
GlyphClass: 2
Flags: MW
HStem: 0 31<81 87 87 123 277 358 358 436> 652 31<242.5 264 241 267.5 482.5 492>
VStem: 62 562<6 252>
AnchorPoint: "Anchor-5" 368 -25 basechar 0
AnchorPoint: "Anchor-2" 385 749 basechar 0
AnchorPoint: "Anchor-1" 633 428 basechar 0
AnchorPoint: "Anchor-0" 471 311 basechar 0
LayerCount: 2
Fore
SplineSet
624 246 m 2
 620 233 l 1
 544 18 l 2
 538 1 537 0 515 0 c 2
 87 0 l 2
 71 0 62 0 62 12 c 0
 62 31 73 31 89 31 c 0
 157 31 163 39 171 73 c 2
 306 616 l 2
 310 630 310 632 310 635 c 0
 310 652 283 652 252 652 c 0
 233 652 225 652 225 664 c 0
 225 683 238 683 244 683 c 0
 284 683 326 680 367 680 c 0
 413 680 460 683 505 683 c 0
 509 683 520 683 520 671 c 0
 520 652 509 652 492 652 c 2
 482 652 l 2
 401 652 395 642 386 607 c 2
 250 63 l 2
 249 57 246 47 246 41 c 0
 246 34 246 31 277 31 c 2
 358 31 l 2
 514 31 557 147 589 236 c 0
 596 255 597 258 609 258 c 0
 612 258 624 258 624 246 c 2
EndSplineSet
Position2: "'cpsp' Capital Spacing lookup 0 subtable" dx=7 dy=0 dh=14 dv=0
EndChar

StartChar: M
Encoding: 77 77 46
Width: 897
GlyphClass: 2
Flags: MW
HStem: 0 31<81 85 81 94 271 275 595 608.5 801.5 822> 652 31<256 271.5 940.5 977 977 982.5>
VStem: 66 936<7.5 676.5>
AnchorPoint: "Anchor-5" 428 -25 basechar 0
AnchorPoint: "Anchor-2" 624 749 basechar 0
AnchorPoint: "Anchor-1" 1013 428 basechar 0
AnchorPoint: "Anchor-0" 531 311 basechar 0
LayerCount: 2
Fore
SplineSet
839 18 m 0
 839 0 827 0 820 0 c 0
 783 0 742 3 704 3 c 0
 666 3 627 0 590 0 c 0
 587 0 576 0 576 12 c 0
 576 31 587 31 603 31 c 0
 671 31 677 39 685 73 c 2
 826 639 l 1
 825 639 l 1
 452 18 l 2
 446 7 441 0 428 0 c 0
 413 0 413 7 411 24 c 2
 350 630 l 1
 349 630 l 1
 216 99 l 2
 212 83 212 77 212 74 c 0
 212 59 214 33 271 31 c 0
 283 31 290 30 290 18 c 0
 290 0 278 0 272 0 c 0
 241 0 206 3 174 3 c 0
 143 3 109 0 79 0 c 0
 72 0 66 3 66 12 c 0
 66 30 77 31 85 31 c 0
 130 33 168 45 182 101 c 2
 310 616 l 2
 314 630 314 632 314 635 c 0
 314 652 287 652 256 652 c 0
 237 652 229 652 229 664 c 0
 229 683 240 683 256 683 c 2
 389 683 l 2
 413 683 415 683 417 661 c 2
 473 100 l 1
 813 665 l 2
 824 683 827 683 849 683 c 2
 977 683 l 2
 994 683 1002 683 1002 670 c 0
 1002 652 993 652 972 652 c 0
 909 652 901 644 893 612 c 2
 758 71 l 2
 754 56 754 48 754 48 c 2
 754 39 754 31 812 31 c 0
 832 31 839 31 839 18 c 0
EndSplineSet
Position2: "'cpsp' Capital Spacing lookup 0 subtable" dx=7 dy=0 dh=14 dv=0
EndChar

StartChar: N
Encoding: 78 78 47
Width: 743
GlyphClass: 2
Flags: MW
HStem: 0 31<77 81 77 90 267 271> 652 31<252 255.5 643.5 646 837 838.5>
VStem: 62 790<7.5 674>
AnchorPoint: "Anchor-5" 418 -25 basechar 0
AnchorPoint: "Anchor-2" 539 749 basechar 0
AnchorPoint: "Anchor-1" 853 428 basechar 0
AnchorPoint: "Anchor-0" 491 311 basechar 0
LayerCount: 2
Fore
SplineSet
852 670 m 0
 852 653 840 652 837 652 c 0
 808 651 752 648 736 584 c 2
 596 20 l 2
 591 1 587 0 576 0 c 0
 562 0 561 2 556 17 c 2
 341 614 l 1
 212 99 l 2
 208 83 208 77 208 74 c 0
 208 59 210 33 267 31 c 0
 279 31 286 30 286 18 c 0
 286 0 274 0 268 0 c 0
 237 0 202 3 170 3 c 0
 139 3 105 0 75 0 c 0
 68 0 62 3 62 12 c 0
 62 30 73 31 81 31 c 0
 127 33 164 46 178 101 c 2
 310 631 l 2
 313 641 313 644 313 644 c 2
 313 652 259 652 252 652 c 0
 233 652 225 652 225 664 c 0
 225 683 236 683 252 683 c 2
 377 683 l 2
 398 683 399 682 405 666 c 2
 592 146 l 1
 702 585 l 2
 704 593 706 600 706 609 c 0
 706 630 698 650 646 652 c 0
 637 652 628 653 628 664 c 0
 628 683 641 683 646 683 c 0
 677 683 711 680 743 680 c 0
 775 680 808 683 839 683 c 0
 848 683 852 678 852 670 c 0
EndSplineSet
Position2: "'cpsp' Capital Spacing lookup 0 subtable" dx=7 dy=0 dh=14 dv=0
EndChar

StartChar: O
Encoding: 79 79 48
Width: 767
GlyphClass: 2
Flags: MW
HStem: -22 26<339.5 422.5 339.5 478> 680 25<509.5 592>
VStem: 148 90<160.5 228 145.5 352> 703 85<442 526 323.5 553>
AnchorPoint: "Anchor-5" 373 -45 basechar 0
AnchorPoint: "Anchor-3" 384 -14 basechar 0
AnchorPoint: "Anchor-2" 599 749 basechar 0
AnchorPoint: "Anchor-1" 854 428 basechar 0
AnchorPoint: "Anchor-0" 492 311 basechar 0
LayerCount: 2
Fore
SplineSet
788 444 m 0
 788 203 578 -22 378 -22 c 0
 242 -22 148 85 148 236 c 0
 148 468 355 705 560 705 c 0
 686 705 788 608 788 444 c 0
703 486 m 0
 703 620 631 680 553 680 c 0
 466 680 375 607 322 513 c 0
 252 391 238 251 238 205 c 0
 238 86 294 4 385 4 c 0
 460 4 549 63 614 174 c 0
 667 265 703 398 703 486 c 0
EndSplineSet
Position2: "'cpsp' Capital Spacing lookup 0 subtable" dx=7 dy=0 dh=14 dv=0
EndChar

StartChar: P
Encoding: 80 80 49
Width: 678
GlyphClass: 2
Flags: MW
HStem: 0 31<82 96 295.5 317> 316 26<318 444 444 469 314 444> 652 31<253 268.5 418.5 435 435 521>
VStem: 642 88<552 577 476.5 594>
AnchorPoint: "Anchor-5" 208 -25 basechar 0
AnchorPoint: "Anchor-2" 499 749 basechar 0
AnchorPoint: "Anchor-1" 793 428 basechar 0
AnchorPoint: "Anchor-0" 431 311 basechar 0
LayerCount: 2
Fore
SplineSet
730 535 m 0
 730 418 595 316 469 316 c 2
 314 316 l 1
 253 68 l 2
 249 54 249 52 249 48 c 0
 249 39 249 31 307 31 c 0
 327 31 334 31 334 18 c 0
 334 0 322 0 315 0 c 0
 276 0 235 3 195 3 c 0
 156 3 115 0 77 0 c 0
 74 0 63 0 63 12 c 0
 63 31 74 31 90 31 c 0
 158 31 164 39 172 73 c 2
 307 616 l 2
 311 630 311 632 311 635 c 0
 311 652 284 652 253 652 c 0
 234 652 226 652 226 664 c 0
 226 683 237 683 253 683 c 2
 553 683 l 2
 662 683 730 619 730 535 c 0
642 562 m 0
 642 626 591 652 521 652 c 2
 435 652 l 2
 402 652 395 652 386 616 c 2
 318 342 l 1
 444 342 l 2
 504 342 554 361 589 400 c 0
 627 444 642 542 642 562 c 0
EndSplineSet
Position2: "'cpsp' Capital Spacing lookup 0 subtable" dx=7 dy=0 dh=14 dv=0
EndChar

StartChar: Q
Encoding: 81 81 50
Width: 767
GlyphClass: 2
Flags: MW
HStem: -194 94<545 580.5 545 596> -22 25<379.5 395.5> 126 22<398 447> 680 25<516 599>
VStem: 148 85<166 234 166 352> 322 22<35 61 23 67> 704 84<436 526 354.5 539.5>
AnchorPoint: "Anchor-5" 348 -173 basechar 0
AnchorPoint: "Anchor-2" 599 749 basechar 0
AnchorPoint: "Anchor-1" 853 428 basechar 0
AnchorPoint: "Anchor-0" 491 311 basechar 0
LayerCount: 2
Fore
SplineSet
695 -1 m 1
 695 -1 654 -194 538 -194 c 0
 480 -194 459 -157 459 -102 c 0
 459 -88 461 -59 469 -7 c 1
 448 -14 413 -22 378 -22 c 0
 242 -22 148 85 148 236 c 0
 148 468 355 705 560 705 c 0
 686 705 788 608 788 444 c 0
 788 265 667 78 502 6 c 1
 504 -85 528 -100 562 -100 c 0
 599 -100 649 -72 672 -2 c 0
 674 5 676 11 684 11 c 0
 690 11 695 6 695 -1 c 1
704 480 m 0
 704 599 645 680 553 680 c 0
 479 680 394 625 333 532 c 0
 258 417 233 266 233 202 c 0
 233 130 256 48 327 15 c 1
 325 20 322 27 322 43 c 0
 322 91 364 148 419 148 c 0
 491 148 497 74 499 42 c 1
 660 144 704 392 704 480 c 0
473 26 m 1
 474 34 474 46 474 54 c 0
 474 80 474 126 420 126 c 0
 376 126 344 79 344 43 c 0
 344 3 374 3 385 3 c 0
 417 3 449 14 473 26 c 1
EndSplineSet
Position2: "'cpsp' Capital Spacing lookup 0 subtable" dx=7 dy=0 dh=14 dv=0
EndChar

StartChar: R
Encoding: 82 82 51
Width: 729
GlyphClass: 2
Flags: MW
HStem: -22 22<598 628.5> 0 31<82 96 292.5 314> 331 22<321 422 422 423 315 422> 652 31<253 268.5 456.5 498>
VStem: 485 109 628 90<555 574.5 498.5 605>
AnchorPoint: "Anchor-5" 438 -25 basechar 0
AnchorPoint: "Anchor-2" 519 749 basechar 0
AnchorPoint: "Anchor-1" 793 428 basechar 0
AnchorPoint: "Anchor-0" 431 311 basechar 0
LayerCount: 2
Fore
SplineSet
723 92 m 0x9c
 723 84 693 -22 609 -22 c 0xb4
 546 -22 485 10 485 84 c 0
 485 103 489 117 500 164 c 0
 514 220 517 229 517 243 c 0
 517 315 465 331 423 331 c 2
 315 331 l 1
 250 68 l 2
 246 54 246 52 246 48 c 0
 246 39 246 31 304 31 c 0
 324 31 331 31 331 18 c 0
 331 0 319 0 312 0 c 0
 273 0 232 3 193 3 c 0
 155 3 115 0 77 0 c 0
 74 0 63 0 63 12 c 0
 63 31 74 31 90 31 c 0x68
 158 31 164 39 172 73 c 2
 307 616 l 2
 311 630 311 632 311 635 c 0
 311 652 284 652 253 652 c 0
 234 652 226 652 226 664 c 0
 226 683 237 683 253 683 c 2
 517 683 l 2
 642 683 718 614 718 535 c 0
 718 462 650 375 508 339 c 1
 559 321 594 279 594 223 c 0
 594 202 589 158 586 135 c 0
 583 109 580 85 580 59 c 0
 580 27 583 0 613 0 c 0
 644 0 674 32 691 88 c 0
 694 100 695 105 708 105 c 0
 721 105 723 99 723 92 c 0x9c
628 558 m 0
 628 652 530 652 466 652 c 0
 447 652 415 652 408 650 c 0
 401 648 393 646 386 616 c 2
 321 353 l 1
 422 353 l 2
 490 353 540 376 570 405 c 0
 624 459 628 552 628 558 c 0
EndSplineSet
Position2: "'cpsp' Capital Spacing lookup 0 subtable" dx=7 dy=0 dh=14 dv=0
EndChar

StartChar: S
Encoding: 83 83 52
Width: 562
GlyphClass: 2
Flags: MW
HStem: -22 31<275 347.5 265.5 364> 677 28<386.5 441 369.5 476>
VStem: 199 68<485.5 524.5> 470 68<175 218>
AnchorPoint: "Anchor-5" 300 -51 basechar 0
AnchorPoint: "Anchor-3" 300 -13 basechar 0
AnchorPoint: "Anchor-2" 452 749 basechar 0
AnchorPoint: "Anchor-1" 673 428 basechar 0
AnchorPoint: "Anchor-0" 355 358 basechar 0
LayerCount: 2
Fore
SplineSet
538 238 m 0
 538 112 427 -22 301 -22 c 0
 249 -22 185 -7 148 47 c 1
 138 34 112 2 101 -10 c 0
 93 -20 92 -22 85 -22 c 0
 79 -22 74 -18 74 -12 c 0
 74 -9 75 -6 77 1 c 2
 129 210 l 2
 133 225 135 227 147 227 c 0
 153 227 162 227 162 216 c 2
 161 210 l 2
 158 199 153 172 153 149 c 0
 153 45 228 9 303 9 c 0
 392 9 470 109 470 200 c 0
 470 236 459 258 448 272 c 0
 431 290 423 293 371 308 c 2
 322 322 l 2
 307 326 285 332 279 335 c 0
 221 362 199 415 199 467 c 0
 199 582 308 705 431 705 c 0
 451 705 522 704 561 637 c 1
 606 693 l 2
 615 704 616 705 621 705 c 0
 631 705 632 695 632 695 c 2
 632 691 631 685 630 681 c 2
 578 474 l 2
 574 457 571 456 560 456 c 0
 555 456 545 456 545 466 c 2
 546 480 l 2
 550 502 551 509 551 535 c 0
 551 609 523 677 429 677 c 0
 344 677 267 588 267 506 c 0
 267 465 284 433 318 418 c 0
 323 416 354 407 373 402 c 0
 468 374 480 371 505 340 c 0
 531 308 538 267 538 238 c 0
EndSplineSet
Position2: "'cpsp' Capital Spacing lookup 0 subtable" dx=7 dy=0 dh=14 dv=0
EndChar

StartChar: T
Encoding: 84 84 53
Width: 716
GlyphClass: 2
Flags: MW
HStem: 0 31<215 229.5 497 512 512 519.5> 646 31<353.5 418 418 452 618.5 679>
VStem: 175 631<457.5 671>
AnchorPoint: "Anchor-5" 362 -25 basechar 0
AnchorPoint: "Anchor-3" 365 6 basechar 0
AnchorPoint: "Anchor-2" 544 749 basechar 0
AnchorPoint: "Anchor-1" 843 428 basechar 0
AnchorPoint: "Anchor-0" 437 311 basechar 0
LayerCount: 2
Fore
SplineSet
775 473 m 2
 772 455 770 452 757 452 c 0
 752 452 742 452 742 465 c 2
 742 465 742 469 744 480 c 0
 754 539 754 558 754 570 c 0
 754 632 731 646 627 646 c 0
 610 646 583 646 575 644 c 0
 567 643 559 641 552 611 c 2
 418 73 l 2
 414 59 414 57 414 54 c 0
 414 40 419 36 447 33 c 0
 450 33 481 31 497 31 c 2
 512 31 l 2
 527 31 537 31 537 20 c 0
 537 0 525 0 516 0 c 0
 465 0 411 3 359 3 c 0
 308 3 255 0 204 0 c 0
 199 0 187 0 187 12 c 0
 187 31 198 31 215 31 c 2
 231 31 l 2
 319 31 328 41 337 76 c 2
 471 613 l 2
 473 619 475 628 475 635 c 0
 475 642 475 646 452 646 c 2
 418 646 l 2
 289 646 261 625 214 484 c 0
 204 458 203 457 201 455 c 0
 198 452 194 452 190 452 c 0
 187 452 175 452 175 463 c 2
 175 463 175 467 180 480 c 2
 239 659 l 2
 245 677 248 677 268 677 c 2
 781 677 l 2
 797 677 806 677 806 665 c 0
 806 661 806 656 805 652 c 2
 775 473 l 2
EndSplineSet
Position2: "'cpsp' Capital Spacing lookup 0 subtable" dx=7 dy=0 dh=14 dv=0
EndChar

StartChar: U
Encoding: 85 85 54
Width: 743
GlyphClass: 2
Flags: MW
HStem: -22 31<358 431 358 443.5> 652 31<242.5 263.5 241 267.5 463 476.5 646.5 649 837 838.5>
VStem: 202 75<106 145 88.5 171>
AnchorPoint: "Anchor-5" 379 -31 basechar 0
AnchorPoint: "Anchor-3" 380 -15 basechar 0
AnchorPoint: "Anchor-2" 581 749 basechar 0
AnchorPoint: "Anchor-1" 853 428 basechar 0
AnchorPoint: "Anchor-0" 481 311 basechar 0
LayerCount: 2
Fore
SplineSet
852 670 m 0
 852 653 840 652 837 652 c 0
 808 651 752 648 736 584 c 2
 645 218 l 2
 618 108 507 -22 380 -22 c 0
 286 -22 202 46 202 166 c 0
 202 176 202 198 210 230 c 2
 306 616 l 2
 310 630 310 632 310 635 c 0
 310 652 283 652 252 652 c 0
 233 652 225 652 225 664 c 0
 225 683 238 683 244 683 c 0
 283 683 324 680 364 680 c 0
 403 680 444 683 482 683 c 0
 489 683 496 681 496 670 c 0
 496 652 487 652 466 652 c 0
 403 652 395 644 387 612 c 2
 287 210 l 2
 282 188 277 156 277 134 c 0
 277 43 332 9 384 9 c 0
 478 9 584 100 616 229 c 2
 705 585 l 2
 707 593 709 600 709 609 c 0
 709 630 701 650 649 652 c 0
 640 652 631 653 631 664 c 0
 631 683 644 683 649 683 c 0
 680 683 713 680 745 680 c 0
 776 680 809 683 839 683 c 0
 848 683 852 678 852 670 c 0
EndSplineSet
Position2: "'cpsp' Capital Spacing lookup 0 subtable" dx=7 dy=0 dh=14 dv=0
EndChar

StartChar: V
Encoding: 86 86 55
Width: 743
GlyphClass: 2
Flags: MW
HStem: -22 21G<358 372> 652 31<226 243.5 224.5 258 428 440>
VStem: 209 659<662.5 672 662.5 673.5>
AnchorPoint: "Anchor-5" 365 -36 basechar 0
AnchorPoint: "Anchor-2" 579 749 basechar 0
AnchorPoint: "Anchor-1" 853 428 basechar 0
AnchorPoint: "Anchor-0" 471 311 basechar 0
LayerCount: 2
Fore
SplineSet
868 672 m 1
 868 653 857 653 849 652 c 0
 812 649 777 638 737 571 c 2
 394 -3 l 2
 383 -21 378 -22 366 -22 c 0
 350 -22 349 -17 347 2 c 2
 287 618 l 2
 285 643 283 652 233 652 c 0
 219 652 209 652 209 664 c 0
 209 683 222 683 227 683 c 0
 260 683 295 680 329 680 c 0
 367 680 407 683 444 683 c 0
 447 683 458 683 458 671 c 0
 458 652 447 652 433 652 c 0
 423 652 370 651 370 621 c 2
 421 97 l 1
 710 580 l 2
 714 587 725 607 725 620 c 0
 725 644 701 651 685 652 c 0
 677 653 669 653 669 664 c 0
 669 683 681 683 687 683 c 0
 716 683 749 680 779 680 c 0
 804 680 831 683 855 683 c 0
 866 683 868 672 868 672 c 1
EndSplineSet
Position2: "'cpsp' Capital Spacing lookup 0 subtable" dx=7 dy=0 dh=14 dv=0
EndChar

StartChar: W
Encoding: 87 87 56
Width: 999
GlyphClass: 2
Flags: MW
HStem: -22 21G<316.5 331.5 656.5 669> 652 31<225 241.5 224 254.5 426 433 565 582.5 772 776>
VStem: 208 916<667 672 667 673.5>
AnchorPoint: "Anchor-5" 508 -25 basechar 0
AnchorPoint: "Anchor-2" 689 749 basechar 0
AnchorPoint: "Anchor-1" 1123 428 basechar 0
AnchorPoint: "Anchor-0" 583 311 basechar 0
LayerCount: 2
Fore
SplineSet
1124 672 m 1
 1124 662 1120 653 1110 652 c 0
 1062 648 1038 632 1004 570 c 2
 691 -4 l 2
 681 -22 673 -22 665 -22 c 0
 648 -22 648 -16 647 3 c 2
 625 501 l 1
 350 -2 l 2
 342 -17 339 -22 324 -22 c 0
 309 -22 307 -18 306 3 c 2
 278 620 l 2
 277 644 277 652 232 652 c 0
 218 652 208 652 208 664 c 0
 208 683 222 683 226 683 c 0
 257 683 292 680 324 680 c 0
 361 680 400 683 437 683 c 0
 440 683 451 683 451 671 c 0
 451 652 440 652 426 652 c 0
 359 651 360 626 361 605 c 2
 383 116 l 1
 616 544 l 2
 622 554 622 556 622 564 c 2
 622 564 619 627 618 631 c 0
 616 646 612 652 570 652 c 0
 560 652 549 652 549 664 c 0
 549 683 563 683 567 683 c 0
 598 683 633 680 665 680 c 0
 702 680 741 683 778 683 c 0
 784 683 792 681 792 672 c 0
 792 652 780 652 772 652 c 0
 707 651 701 632 701 615 c 0
 701 611 702 608 702 608 c 1
 724 116 l 1
 977 582 l 2
 983 593 988 602 988 614 c 0
 988 645 954 651 937 652 c 0
 930 652 921 653 921 664 c 0
 921 683 934 683 940 683 c 0
 972 683 1007 680 1039 680 c 0
 1063 680 1089 683 1112 683 c 0
 1124 683 1124 672 1124 672 c 1
EndSplineSet
Position2: "'cpsp' Capital Spacing lookup 0 subtable" dx=7 dy=0 dh=14 dv=0
EndChar

StartChar: X
Encoding: 88 88 57
Width: 743
GlyphClass: 2
Flags: MW
HStem: 0 31<237.5 260 665.5 684> 652 31<243 261.5 242 277 462 464.5>
VStem: 51 774<10 675.5>
AnchorPoint: "Anchor-5" 368 -25 basechar 0
AnchorPoint: "Anchor-2" 569 749 basechar 0
AnchorPoint: "Anchor-1" 853 428 basechar 0
AnchorPoint: "Anchor-0" 459 341 basechar 0
LayerCount: 2
Fore
SplineSet
700 18 m 0
 700 0 688 0 682 0 c 0
 649 0 613 3 579 3 c 0
 541 3 501 0 463 0 c 0
 460 0 448 0 448 12 c 0
 448 27 457 30 464 31 c 0
 500 33 521 51 521 61 c 0
 521 64 519 69 518 73 c 2
 430 312 l 1
 238 93 l 1
 237 91 l 2
 236 89 235 87 233 85 c 0
 226 75 225 65 225 61 c 0
 225 51 230 34 260 31 c 1
 260 31 273 30 273 20 c 0
 273 0 259 0 254 0 c 0
 221 0 185 3 151 3 c 0
 122 3 91 0 63 0 c 0
 53 0 51 8 51 12 c 2
 51 12 52 30 63 31 c 0
 96 33 152 36 211 104 c 2
 419 341 l 1
 316 620 l 2
 308 642 304 652 250 652 c 0
 236 652 226 652 226 664 c 0
 226 683 239 683 245 683 c 0
 278 683 313 680 347 680 c 0
 386 680 426 683 464 683 c 0
 471 683 478 681 478 670 c 0
 478 653 467 652 462 652 c 0
 425 649 405 630 405 623 c 2
 409 611 l 1
 482 412 l 1
 630 582 l 2
 648 603 651 614 651 622 c 0
 651 649 622 651 615 652 c 0
 612 652 603 653 603 664 c 0
 603 683 615 683 621 683 c 0
 654 683 691 680 725 680 c 0
 754 680 784 683 812 683 c 0
 818 683 825 680 825 671 c 0
 825 653 815 653 804 652 c 0
 728 647 691 606 667 580 c 1
 655 570 l 1
 492 383 l 1
 611 61 l 2
 618 42 622 31 676 31 c 0
 692 31 700 31 700 18 c 0
EndSplineSet
Position2: "'cpsp' Capital Spacing lookup 0 subtable" dx=7 dy=0 dh=14 dv=0
EndChar

StartChar: Y
Encoding: 89 89 58
Width: 743
GlyphClass: 2
Flags: MW
HStem: 0 31<259 266 259 274 471 491.5> 652 31<219 237.5 218 249.5 427.5 439.5>
VStem: 202 672<662.5 672 662.5 673.5>
AnchorPoint: "Anchor-5" 378 -25 basechar 0
AnchorPoint: "Anchor-2" 569 749 basechar 0
AnchorPoint: "Anchor-1" 863 428 basechar 0
AnchorPoint: "Anchor-0" 461 311 basechar 0
LayerCount: 2
Fore
SplineSet
874 672 m 1
 874 653 864 653 855 652 c 0
 807 648 769 627 722 570 c 2
 486 283 l 2
 479 275 479 273 474 256 c 2
 443 133 l 2
 436 104 424 56 424 48 c 0
 424 31 451 31 482 31 c 0
 501 31 509 31 509 19 c 0
 509 0 496 0 490 0 c 0
 452 0 410 3 371 3 c 0
 333 3 293 0 255 0 c 0
 252 0 241 0 241 12 c 0
 241 31 252 31 266 31 c 0
 340 32 341 35 354 90 c 0
 359 109 400 268 400 273 c 0
 400 277 398 283 396 288 c 2
 290 622 l 2
 283 645 273 652 226 652 c 0
 212 652 202 652 202 664 c 0
 202 683 215 683 221 683 c 0
 254 683 291 680 325 680 c 0
 364 680 404 683 442 683 c 0
 446 683 456 683 456 671 c 0
 456 652 445 652 434 652 c 0
 421 652 378 651 378 628 c 1
 378 628 378 625 382 615 c 2
 477 315 l 1
 696 582 l 2
 698 585 721 612 721 629 c 0
 721 645 707 651 690 652 c 0
 684 652 675 653 675 664 c 0
 675 683 687 683 693 683 c 0
 723 683 755 680 786 680 c 0
 811 680 838 683 862 683 c 0
 874 683 874 672 874 672 c 1
EndSplineSet
Position2: "'cpsp' Capital Spacing lookup 0 subtable" dx=7 dy=0 dh=14 dv=0
EndChar

StartChar: Z
Encoding: 90 90 59
Width: 613
GlyphClass: 2
Flags: MW
HStem: 0 34<91 103 177 324 324 411> 652 31<389 468 468 608>
VStem: 80 624
AnchorPoint: "Anchor-5" 343 -25 basechar 0
AnchorPoint: "Anchor-2" 519 749 basechar 0
AnchorPoint: "Anchor-1" 733 428 basechar 0
AnchorPoint: "Anchor-0" 371 311 basechar 0
LayerCount: 2
Fore
SplineSet
605 255 m 2
 605 255 601 241 600 239 c 2
 532 18 l 2
 526 0 525 0 503 0 c 2
 103 0 l 2
 87 0 80 0 80 9 c 0
 80 21 86 28 91 34 c 2
 608 652 l 1
 468 652 l 2
 310 652 270 567 241 476 c 0
 236 462 235 458 223 458 c 0
 220 458 208 458 208 469 c 2
 208 469 210 480 211 482 c 2
 265 663 l 2
 271 682 272 683 294 683 c 2
 681 683 l 2
 698 683 704 683 704 674 c 0
 704 669 703 661 692 648 c 2
 177 34 l 1
 324 34 l 2
 498 34 532 127 569 242 c 0
 577 266 578 267 589 267 c 0
 595 267 605 267 605 255 c 2
EndSplineSet
Position2: "'cpsp' Capital Spacing lookup 0 subtable" dx=7 dy=0 dh=14 dv=0
EndChar

StartChar: bracketleft
Encoding: 91 91 60
Width: 307
GlyphClass: 2
Flags: MW
HStem: -250 40<91 180 121 176> 710 40<351 416 351 351>
VStem: 73 373
LayerCount: 2
Fore
SplineSet
206 -222 m 2
 206 -222 202 -240 199 -245 c 0
 195 -249 194 -250 176 -250 c 2
 99 -250 l 2
 83 -250 73 -250 73 -238 c 2
 73 -238 75 -228 76 -225 c 2
 315 731 l 2
 320 750 321 750 343 750 c 2
 420 750 l 2
 436 750 446 750 446 738 c 2
 446 738 442 720 439 715 c 0
 435 711 434 710 416 710 c 2
 351 710 l 1
 121 -210 l 1
 180 -210 l 2
 196 -210 206 -210 206 -222 c 2
EndSplineSet
EndChar

StartChar: backslash
Encoding: 92 92 61
Width: 500
GlyphClass: 2
Flags: MW
HStem: -250 21G<354 366.5> 730 20G<239 271>
LayerCount: 2
Fore
SplineSet
386 -230 m 2
 383 -241 372 -250 361 -250 c 0
 347 -250 345 -239 344 -228 c 2
 239 712 l 2
 237 725 239 730 239 730 c 2
 241 741 253 750 264 750 c 0
 278 750 279 739 280 728 c 2
 385 -212 l 2
 387 -225 386 -230 386 -230 c 2
EndSplineSet
EndChar

StartChar: bracketright
Encoding: 93 93 62
Width: 307
GlyphClass: 2
Flags: MW
HStem: -250 40<4 81 16 81 16 89> 710 40<244 333 256 311>
VStem: -14 373
LayerCount: 2
Fore
SplineSet
117 -231 m 2
 112 -250 111 -250 89 -250 c 2
 12 -250 l 2
 -4 -250 -14 -250 -14 -238 c 2
 -14 -238 -10 -220 -7 -215 c 0
 -3 -211 -2 -210 16 -210 c 2
 81 -210 l 1
 311 710 l 1
 252 710 l 2
 236 710 226 710 226 722 c 2
 226 722 230 740 233 745 c 0
 237 749 238 750 256 750 c 2
 333 750 l 2
 349 750 359 750 359 738 c 2
 359 738 357 728 356 725 c 2
 117 -231 l 2
EndSplineSet
EndChar

StartChar: asciicircum
Encoding: 94 94 63
Width: 556
GlyphClass: 2
Flags: MW
HStem: 562 21G<147 147 690 690>
LayerCount: 2
Fore
SplineSet
707 584 m 1
 690 562 l 1
 448 685 l 1
 147 562 l 1
 141 584 l 1
 464 744 l 1
 707 584 l 1
EndSplineSet
EndChar

StartChar: underscore
Encoding: 95 95 64
Width: 743
GlyphClass: 2
Flags: MW
HStem: -140 30<-39 716 -27 708>
LayerCount: 2
Fore
SplineSet
727 -125 m 0
 725 -133 717 -140 708 -140 c 2
 -35 -140 l 2
 -43 -140 -48 -133 -46 -125 c 0
 -44 -117 -36 -110 -27 -110 c 2
 716 -110 l 2
 724 -110 729 -117 727 -125 c 0
EndSplineSet
EndChar

StartChar: grave
Encoding: 96 96 65
Width: 511
GlyphClass: 2
Flags: MW
HStem: 505 21G<418.5 423.5> 676 20G<342 355>
LayerCount: 2
Fore
SplineSet
444 522 m 0
 440 514 427 505 420 505 c 0
 417 505 415 505 410 513 c 2
 310 636 l 2
 304 642 298 651 306 668 c 0
 315 686 336 696 348 696 c 0
 362 696 366 688 371 679 c 2
 442 537 l 2
 447 527 446 525 444 522 c 0
EndSplineSet
EndChar

StartChar: a
Encoding: 97 97 66
Width: 511
GlyphClass: 2
Flags: MW
HStem: -11 22<197.5 237 411 440.5> 420 22<306.5 343 271.5 349>
VStem: 98 68<101.5 125 85 217>
AnchorPoint: "Anchor-5" 298 -25 basechar 0
AnchorPoint: "Anchor-3" 402 1 basechar 0
AnchorPoint: "Anchor-2" 362 505 basechar 0
AnchorPoint: "Anchor-1" 576 418 basechar 0
AnchorPoint: "Anchor-0" 284 238 basechar 0
LayerCount: 2
Fore
SplineSet
525 143 m 2
 525 143 513 83 495 45 c 0
 480 14 459 -11 422 -11 c 0
 387 -11 350 10 339 59 c 1
 299 10 255 -11 219 -11 c 0
 144 -11 98 59 98 144 c 0
 98 290 216 442 327 442 c 0
 359 442 391 426 410 383 c 1
 411 388 418 422 450 422 c 0
 460 422 477 417 477 396 c 0
 477 391 477 389 473 375 c 2
 405 103 l 2
 398 75 398 59 398 52 c 0
 398 38 398 11 424 11 c 0
 458 11 477 74 491 130 c 0
 497 152 498 153 510 153 c 0
 517 153 525 153 525 143 c 2
346 124 m 2
 393 313 l 2
 395 319 396 326 396 326 c 1
 396 368 371 420 327 420 c 0
 286 420 240 370 215 309 c 0
 197 267 166 150 166 100 c 0
 166 70 174 11 221 11 c 0
 276 11 338 92 346 124 c 2
EndSplineSet
Substitution2: "'cv02' Character Variants 02 lookup 16 subtable" a.end
EndChar

StartChar: b
Encoding: 98 98 67
Width: 460
GlyphClass: 2
Flags: MW
HStem: -11 22<217.5 255.5 217.5 286> 420 22<320 359.5> 652 42
VStem: 115 57<99 129 69.5 160> 392 67<310 339.5 212.5 347>
AnchorPoint: "Anchor-5" 258 -25 basechar 0
AnchorPoint: "Anchor-2" 296 745 basechar 0
AnchorPoint: "Anchor-1" 506 418 basechar 0
AnchorPoint: "Anchor-0" 284 238 basechar 0
LayerCount: 2
Fore
SplineSet
459 286 m 0
 459 139 342 -11 230 -11 c 0
 157 -11 115 57 115 141 c 0
 115 179 125 220 126 223 c 2
 225 618 l 1
 225 618 228 632 228 635 c 0
 228 645 226 652 178 652 c 0
 164 652 154 652 154 663 c 0
 154 682 165 683 177 684 c 2
 276 692 l 2
 279 693 289 694 292 694 c 0
 300 694 306 691 306 682 c 2
 306 682 304 672 303 669 c 2
 233 389 l 1
 267 421 301 442 339 442 c 0
 399 442 459 393 459 286 c 0
336 106 m 0
 365 170 392 289 392 331 c 0
 392 363 382 420 337 420 c 0
 299 420 261 386 232 346 c 0
 217 326 217 324 210 300 c 0
 181 186 172 151 172 107 c 0
 172 32 205 11 230 11 c 0
 281 11 324 81 336 106 c 0
EndSplineSet
EndChar

StartChar: c
Encoding: 99 99 68
Width: 460
GlyphClass: 2
Flags: MW
HStem: -11 22<232 267.5 232 321> 296 79 420 22<341.5 369.5>
VStem: 110 70<104.5 140.5 85 227> 385 85<320 380.5>
AnchorPoint: "Anchor-5" 278 -25 basechar 0
AnchorPoint: "Anchor-3" 260 -4 basechar 0
AnchorPoint: "Anchor-2" 382 505 basechar 0
AnchorPoint: "Anchor-1" 506 418 basechar 0
AnchorPoint: "Anchor-0" 304 238 basechar 0
LayerCount: 2
Fore
SplineSet
468 104 m 0
 468 89 385 -11 257 -11 c 0
 169 -11 110 55 110 154 c 0
 110 300 239 442 363 442 c 0
 427 442 470 405 470 356 c 0
 470 318 446 296 419 296 c 0
 396 296 385 312 385 328 c 1
 385 328 385 371 435 377 c 1
 420 418 375 420 364 420 c 0
 319 420 269 385 233 320 c 0
 207 272 180 167 180 114 c 0
 180 56 205 11 259 11 c 0
 276 11 365 15 439 109 c 0
 447 119 448 120 452 120 c 0
 460 120 468 109 468 104 c 0
EndSplineSet
EndChar

StartChar: d
Encoding: 100 100 69
Width: 511
GlyphClass: 2
Flags: MW
HStem: -11 22<207.5 247 421 450.5> 420 22<316.5 341> 652 42
VStem: 108 68<101.5 125 85 217>
AnchorPoint: "Anchor-5" 298 -25 basechar 0
AnchorPoint: "Anchor-3" 230 0 basechar 0
AnchorPoint: "Anchor-2" 546 745 basechar 0
AnchorPoint: "Anchor-1" 614 418 basechar 0
AnchorPoint: "Anchor-0" 284 238 basechar 0
LayerCount: 2
Fore
SplineSet
535 143 m 2
 535 143 523 83 505 45 c 0
 490 14 469 -11 432 -11 c 0
 397 -11 360 10 349 59 c 1
 309 10 265 -11 229 -11 c 0
 154 -11 108 59 108 144 c 0
 108 290 226 442 337 442 c 0
 379 442 406 415 421 384 c 1
 479 618 l 1
 479 618 482 632 482 635 c 0
 482 645 480 652 432 652 c 0
 418 652 408 652 408 663 c 0
 408 682 419 683 431 684 c 2
 530 692 l 2
 533 693 543 694 546 694 c 0
 554 694 560 691 560 682 c 2
 560 682 558 672 557 669 c 2
 414 98 l 2
 408 74 408 59 408 52 c 0
 408 38 408 11 434 11 c 0
 468 11 487 74 501 130 c 0
 507 152 508 153 520 153 c 0
 527 153 535 153 535 143 c 2
355 122 m 2
 403 314 l 2
 405 320 406 324 406 327 c 0
 406 346 396 375 386 391 c 0
 368 419 345 420 337 420 c 0
 296 420 250 370 225 309 c 0
 207 267 176 150 176 100 c 0
 176 70 184 11 231 11 c 0
 286 11 347 91 355 122 c 2
EndSplineSet
EndChar

StartChar: e
Encoding: 101 101 70
Width: 460
GlyphClass: 2
Flags: MW
HStem: -11 22<226.5 267.5 226.5 321> 231 22<206 227 227 239 200 227> 420 22<357 382>
VStem: 114 69<119 140 101.5 252.5> 425 38<353.5 376>
AnchorPoint: "Anchor-5" 298 -25 basechar 0
AnchorPoint: "Anchor-3" 278 -6 basechar 0
AnchorPoint: "Anchor-2" 392 505 basechar 0
AnchorPoint: "Anchor-1" 496 418 basechar 0
AnchorPoint: "Anchor-0" 284 238 basechar 0
LayerCount: 2
Fore
SplineSet
468 104 m 0
 468 89 385 -11 257 -11 c 0
 162 -11 114 74 114 164 c 0
 114 341 257 442 362 442 c 0
 426 442 463 403 463 357 c 0
 463 350 463 285 384 253 c 0
 336 234 269 231 239 231 c 2
 200 231 l 1
 193 204 183 159 183 121 c 0
 183 82 194 11 259 11 c 0
 276 11 365 15 439 109 c 0
 447 119 448 120 452 120 c 0
 460 120 468 109 468 104 c 0
425 359 m 0
 425 393 402 420 362 420 c 0
 352 420 249 417 206 253 c 1
 227 253 l 2
 260 253 425 253 425 359 c 0
EndSplineSet
Substitution2: "'cv02' Character Variants 02 lookup 16 subtable" e.end
EndChar

StartChar: f
Encoding: 102 102 71
Width: 307
GlyphClass: 2
Flags: MW
HStem: -205 22<50 73 50 107> -164 80 400 31<143.5 219 153 213 283 359> 584 78 683 22<352 374>
VStem: -25 84<-126 -121.5> 368 84<621.5 626>
AnchorPoint: "Anchor-5" 58 -230 basechar 0
AnchorPoint: "Anchor-2" 396 745 basechar 0
AnchorPoint: "Anchor-1" 448 396 basechar 0
AnchorPoint: "Anchor-0" 228 326 basechar 0
LayerCount: 2
Fore
SplineSet
452 639 m 0
 452 604 427 584 402 584 c 0
 386 584 368 594 368 616 c 0
 368 636 382 660 412 665 c 1
 399 681 378 683 370 683 c 0
 334 683 323 630 315 593 c 2
 283 431 l 1
 361 431 l 2
 378 431 386 431 386 418 c 0
 386 400 376 400 359 400 c 2
 277 400 l 1
 207 41 l 2
 200 5 159 -205 55 -205 c 0
 18 -205 -25 -184 -25 -139 c 0
 -25 -104 0 -84 25 -84 c 0
 41 -84 59 -94 59 -116 c 0
 59 -136 45 -160 15 -165 c 1
 26 -180 45 -183 55 -183 c 0
 91 -183 104 -131 112 -97 c 0
 118 -76 128 -35 140 27 c 2
 213 400 l 1
 151 400 l 2
 136 400 126 400 126 411 c 0
 126 431 137 431 153 431 c 2
 219 431 l 1
 240 541 l 2
 247 575 272 705 370 705 c 0
 411 705 452 682 452 639 c 0
EndSplineSet
EndChar

StartChar: g
Encoding: 103 103 72
Width: 460
GlyphClass: 2
Flags: MW
HStem: -205 22<169.5 183.5 169.5 226.5> 0 22<207 257.5> 420 22<317.5 358.5 281 367>
VStem: 110 68<110.5 133 103.5 223.5>
AnchorPoint: "Anchor-5" 172 -238 basechar 0
AnchorPoint: "Anchor-2" 382 505 basechar 0
AnchorPoint: "Anchor-1" 556 416 basechar 0
AnchorPoint: "Anchor-0" 290 228 basechar 0
LayerCount: 2
Fore
SplineSet
374 -63 m 2
 355 -139 279 -205 174 -205 c 0
 90 -205 53 -187 53 -147 c 0
 53 -108 84 -94 102 -94 c 0
 128 -94 137 -113 137 -126 c 0
 137 -143 125 -164 105 -172 c 1
 132 -183 163 -183 176 -183 c 0
 191 -183 231 -183 271 -136 c 0
 299 -102 305 -81 317 -31 c 2
 338 53 l 1
 326 41 283 0 232 0 c 0
 157 0 110 68 110 153 c 0
 110 294 225 442 337 442 c 0
 380 442 407 414 421 385 c 1
 425 414 448 422 460 422 c 0
 470 422 487 417 487 396 c 0
 487 392 487 390 483 375 c 2
 374 -63 l 2
358 132 m 2
 403 314 l 1
 406 328 l 2
 406 336 397 420 337 420 c 0
 298 420 254 375 229 321 c 0
 208 274 178 157 178 109 c 0
 178 98 180 22 234 22 c 0
 289 22 350 100 358 132 c 2
EndSplineSet
EndChar

StartChar: h
Encoding: 104 104 73
Width: 511
GlyphClass: 2
Flags: MW
HStem: -11 22<399.5 439 399.5 454.5> 420 22<329.5 382> 652 42
VStem: 332 56<47 52.5 33 79.5> 406 61<323 364.5>
AnchorPoint: "Anchor-5" 298 -25 basechar 0
AnchorPoint: "Anchor-3" 421 0 basechar 0
AnchorPoint: "Anchor-2" 276 745 basechar 0
AnchorPoint: "Anchor-1" 556 416 basechar 0
AnchorPoint: "Anchor-0" 290 228 basechar 0
LayerCount: 2
Fore
SplineSet
535 143 m 0
 535 138 501 -11 408 -11 c 0
 360 -11 332 25 332 69 c 0
 332 90 335 99 348 133 c 0
 362 173 406 292 406 354 c 0
 406 375 404 420 360 420 c 0
 290 420 247 357 227 325 c 0
 209 293 208 291 199 255 c 0
 194 233 188 212 183 190 c 2
 140 17 l 2
 137 6 124 -11 103 -11 c 0
 84 -11 75 4 75 15 c 2
 75 15 76 26 77 28 c 2
 225 618 l 1
 225 618 228 632 228 635 c 0
 228 645 226 652 178 652 c 0
 164 652 154 652 154 663 c 0
 154 682 165 683 177 684 c 2
 276 692 l 2
 279 693 289 694 292 694 c 0
 300 694 306 691 306 682 c 2
 306 682 304 672 303 669 c 2
 230 377 l 1
 261 407 296 442 363 442 c 0
 412 442 467 420 467 338 c 0
 467 280 426 168 406 115 c 0
 398 91 388 65 388 40 c 0
 388 26 389 11 410 11 c 0
 468 11 495 109 503 136 c 0
 507 151 507 153 520 153 c 0
 527 153 535 153 535 143 c 0
EndSplineSet
EndChar

StartChar: i
Encoding: 105 105 74
Width: 307
GlyphClass: 2
Flags: MW
HStem: -11 22<202 235 202 251> 420 22<180 214.5> 548 106<297 310>
VStem: 128 56<49.5 52 25.5 79> 231 55<380 389.5 352.5 403.5>
AnchorPoint: "Anchor-5" 178 -25 basechar 0
AnchorPoint: "Anchor-3" 183 0 basechar 0
AnchorPoint: "Anchor-2" 328 725 basechar 0
AnchorPoint: "Anchor-1" 416 416 basechar 0
AnchorPoint: "Anchor-0" 220 228 basechar 0
LayerCount: 2
Fore
SplineSet
331 143 m 0
 331 139 298 -11 204 -11 c 0
 152 -11 128 30 128 69 c 0
 128 89 132 100 146 138 c 2
 183 237 l 1
 213 320 l 2
 220 339 231 368 231 392 c 0
 231 415 220 420 209 420 c 0
 151 420 125 327 116 294 c 0
 112 280 111 278 98 278 c 0
 93 278 83 278 83 288 c 0
 83 293 117 442 211 442 c 0
 248 442 286 417 286 362 c 0
 286 343 284 335 274 306 c 2
 210 135 l 2
 197 98 184 65 184 39 c 0
 184 12 198 11 206 11 c 0
 264 11 291 107 299 136 c 0
 303 151 303 153 316 153 c 0
 323 153 331 153 331 143 c 0
358 611 m 0
 358 579 326 548 294 548 c 0
 265 548 249 569 249 591 c 0
 249 623 281 654 313 654 c 0
 343 654 358 632 358 611 c 0
EndSplineSet
EndChar

StartChar: j
Encoding: 106 106 75
Width: 307
GlyphClass: 2
Flags: MW
HStem: -205 22<50.5 89.5 50.5 93.5> 420 22<208 246.5> 548 106<297 310>
VStem: -35 84<-168.5 -119.5> 261 60<372 375.5 345 389>
AnchorPoint: "Anchor-5" 52 -248 basechar 0
AnchorPoint: "Anchor-2" 338 725 basechar 0
AnchorPoint: "Anchor-1" 416 416 basechar 0
AnchorPoint: "Anchor-0" 260 228 basechar 0
LayerCount: 2
Fore
SplineSet
223 -55 m 2
 204 -130 135 -205 52 -205 c 0
 16 -205 -35 -191 -35 -146 c 0
 -35 -111 -6 -94 14 -94 c 0
 40 -94 49 -113 49 -126 c 1
 49 -126 48 -162 13 -173 c 1
 31 -183 48 -183 53 -183 c 0
 126 -183 157 -62 158 -56 c 2
 254 329 l 2
 258 345 261 364 261 380 c 0
 261 398 259 420 234 420 c 0
 182 420 142 358 117 295 c 0
 111 279 111 278 98 278 c 0
 93 278 83 278 83 288 c 0
 83 295 136 442 235 442 c 0
 291 442 321 399 321 352 c 0
 321 338 317 322 316 319 c 2
 223 -55 l 2
358 611 m 0
 358 579 326 548 294 548 c 0
 265 548 249 569 249 591 c 0
 249 623 281 654 313 654 c 0
 343 654 358 632 358 611 c 0
EndSplineSet
EndChar

StartChar: k
Encoding: 107 107 76
Width: 460
GlyphClass: 2
Flags: MW
HStem: -11 22<360.5 393> 326 81 420 22<412.5 446.5> 652 42
VStem: 294 64<141.5 174> 417 85<351.5 395>
AnchorPoint: "Anchor-5" 248 -25 basechar 0
AnchorPoint: "Anchor-3" 373 -7 basechar 0
AnchorPoint: "Anchor-2" 296 745 basechar 0
AnchorPoint: "Anchor-1" 556 416 basechar 0
AnchorPoint: "Anchor-0" 290 228 basechar 0
LayerCount: 2
Fore
SplineSet
484 143 m 0
 484 140 470 79 448 41 c 0
 437 22 415 -11 371 -11 c 0
 334 -11 287 14 287 86 c 0
 287 96 287 103 291 120 c 0
 294 134 294 138 294 145 c 0
 294 203 230 224 193 229 c 1
 142 26 l 2
 140 17 133 -11 103 -11 c 0
 84 -11 75 4 75 15 c 2
 75 15 76 26 77 28 c 2
 225 618 l 1
 225 618 228 632 228 635 c 0
 228 645 226 652 178 652 c 0
 164 652 154 652 154 663 c 0
 154 682 165 683 177 684 c 2
 276 692 l 2
 279 693 289 694 292 694 c 0
 300 694 306 691 306 682 c 2
 306 682 304 672 303 669 c 2
 201 261 l 1
 236 278 252 294 309 360 c 0
 343 400 386 442 439 442 c 0
 484 442 502 408 502 382 c 0
 502 344 474 326 452 326 c 0
 426 326 417 345 417 358 c 0
 417 366 422 401 464 408 c 1
 464 408 456 420 437 420 c 0
 387 420 348 374 296 315 c 0
 269 284 248 263 225 249 c 1
 288 240 358 213 358 145 c 0
 358 132 358 131 353 110 c 0
 352 105 345 77 345 54 c 0
 345 34 347 11 374 11 c 0
 418 11 437 79 450 130 c 0
 456 152 457 153 469 153 c 0
 476 153 484 153 484 143 c 0
EndSplineSet
Substitution2: "'cv01' Character Variants 01 lookup 18 subtable" k.alt
EndChar

StartChar: l
Encoding: 108 108 77
Width: 256
GlyphClass: 2
Flags: MW
HStem: -11 22<167 194 167 197> 652 42
VStem: 94 60<52.5 55.5 45 86.5>
AnchorPoint: "Anchor-5" 188 -25 basechar 0
AnchorPoint: "Anchor-2" 296 745 basechar 0
AnchorPoint: "Anchor-1" 366 416 basechar 0
AnchorPoint: "Anchor-0" 160 228 basechar 0
LayerCount: 2
Fore
SplineSet
280 143 m 0
 280 140 266 76 249 41 c 0
 236 16 216 -11 178 -11 c 0
 130 -11 94 26 94 79 c 0
 94 94 99 114 100 118 c 2
 225 618 l 1
 225 618 228 632 228 635 c 0
 228 645 226 652 178 652 c 0
 164 652 154 652 154 663 c 0
 154 682 165 683 177 684 c 2
 276 692 l 2
 279 693 289 694 292 694 c 0
 300 694 306 691 306 682 c 2
 306 682 304 672 303 669 c 2
 160 98 l 2
 154 74 154 59 154 52 c 0
 154 38 154 11 180 11 c 0
 208 11 227 53 244 123 c 2
 251 148 l 2
 254 153 260 153 265 153 c 0
 272 153 280 153 280 143 c 0
EndSplineSet
EndChar

StartChar: m
Encoding: 109 109 78
Width: 818
GlyphClass: 2
Flags: MW
HStem: -11 22<706.5 746 706.5 761.5> 420 22<169.5 198 384 435 634 690>
VStem: 639 56<47 52.5 33 79.5> 713 61<323 361.5>
AnchorPoint: "Anchor-5" 408 -25 basechar 0
AnchorPoint: "Anchor-2" 532 505 basechar 0
AnchorPoint: "Anchor-1" 846 416 basechar 0
AnchorPoint: "Anchor-0" 467 228 basechar 0
LayerCount: 2
Fore
SplineSet
842 143 m 0
 842 138 808 -11 715 -11 c 0
 667 -11 639 25 639 69 c 0
 639 90 642 99 655 133 c 0
 669 173 713 292 713 354 c 0
 713 369 713 420 667 420 c 0
 598 420 555 362 526 312 c 0
 514 291 514 289 501 240 c 0
 496 218 490 197 485 175 c 2
 445 15 l 2
 438 -4 421 -11 409 -11 c 0
 389 -11 381 4 381 15 c 0
 381 18 382 23 384 29 c 2
 449 289 l 2
 451 298 458 327 458 354 c 0
 458 369 458 420 412 420 c 0
 343 420 300 362 271 312 c 0
 259 291 259 289 246 240 c 0
 241 218 235 197 230 175 c 2
 190 15 l 2
 183 -4 166 -11 154 -11 c 0
 134 -11 126 4 126 15 c 0
 126 18 127 23 129 29 c 2
 204 329 l 2
 208 345 211 364 211 380 c 0
 211 391 211 420 185 420 c 0
 154 420 135 371 117 301 c 0
 112 279 111 278 98 278 c 0
 93 278 83 278 83 288 c 2
 83 288 96 349 115 389 c 0
 131 419 151 442 187 442 c 0
 230 442 264 412 271 363 c 1
 305 409 354 442 414 442 c 0
 459 442 511 423 519 354 c 1
 549 398 599 442 669 442 c 0
 716 442 774 422 774 338 c 0
 774 280 733 168 713 115 c 0
 705 91 695 65 695 40 c 0
 695 26 696 11 717 11 c 0
 775 11 802 109 810 136 c 0
 814 151 814 153 827 153 c 0
 834 153 842 153 842 143 c 0
EndSplineSet
Substitution2: "'cv02' Character Variants 02 lookup 16 subtable" m.end
EndChar

StartChar: n
Encoding: 110 110 79
Width: 562
GlyphClass: 2
Flags: MW
HStem: -11 22<450.5 490 450.5 505.5> 420 22<169.5 198 373 433>
VStem: 383 56<47 52.5 33 79.5> 457 61<323 364.5>
AnchorPoint: "Anchor-5" 318 -25 basechar 0
AnchorPoint: "Anchor-2" 422 505 basechar 0
AnchorPoint: "Anchor-1" 596 416 basechar 0
AnchorPoint: "Anchor-0" 330 228 basechar 0
LayerCount: 2
Fore
SplineSet
586 143 m 0
 586 138 552 -11 459 -11 c 0
 411 -11 383 25 383 69 c 0
 383 90 386 99 399 133 c 0
 413 173 457 292 457 354 c 0
 457 375 455 420 411 420 c 0
 335 420 290 345 276 321 c 0
 259 292 259 291 246 240 c 0
 241 218 235 197 230 175 c 2
 190 15 l 2
 183 -4 166 -11 154 -11 c 0
 134 -11 126 4 126 15 c 0
 126 18 127 23 129 29 c 2
 204 329 l 2
 208 345 211 364 211 380 c 0
 211 391 211 420 185 420 c 0
 154 420 135 371 117 301 c 0
 112 279 111 278 98 278 c 0
 93 278 83 278 83 288 c 2
 83 288 96 349 115 389 c 0
 131 419 151 442 187 442 c 0
 230 442 264 412 271 363 c 1
 284 382 332 442 414 442 c 0
 463 442 518 420 518 338 c 0
 518 280 477 168 457 115 c 0
 449 91 439 65 439 40 c 0
 439 26 440 11 461 11 c 0
 519 11 546 109 554 136 c 0
 558 151 558 153 571 153 c 0
 578 153 586 153 586 143 c 0
EndSplineSet
Substitution2: "'cv02' Character Variants 02 lookup 16 subtable" n.end
EndChar

StartChar: o
Encoding: 111 111 80
Width: 511
GlyphClass: 2
Flags: MW
HStem: -11 22<236.5 280.5 236.5 318> 420 22<342.5 386.5>
VStem: 110 70<102.5 139 78 227> 439 70<295.5 325.5 204.5 346.5>
AnchorPoint: "Anchor-5" 256 -24 basechar 0
AnchorPoint: "Anchor-3" 256 -6 basechar 0
AnchorPoint: "Anchor-2" 412 505 basechar 0
AnchorPoint: "Anchor-1" 576 416 basechar 0
AnchorPoint: "Anchor-0" 310 228 basechar 0
LayerCount: 2
Fore
SplineSet
509 278 m 0
 509 131 380 -11 256 -11 c 0
 173 -11 110 51 110 154 c 0
 110 300 239 442 363 442 c 0
 450 442 509 373 509 278 c 0
439 317 m 0
 439 376 411 420 362 420 c 0
 323 420 275 390 238 329 c 0
 206 275 180 164 180 114 c 0
 180 42 217 11 256 11 c 0
 305 11 356 56 385 111 c 0
 417 171 439 274 439 317 c 0
EndSplineSet
EndChar

StartChar: p
Encoding: 112 112 81
Width: 511
GlyphClass: 2
Flags: MW
HStem: -194 31<30.5 35 30.5 39.5 191.5 209> -11 22<256 306.5 252 336.5> 420 22<169.5 198 365.5 410.5>
VStem: 443 67<310 339.5 211.5 347>
AnchorPoint: "Anchor-5" 104 -250 basechar 0
AnchorPoint: "Anchor-2" 392 505 basechar 0
AnchorPoint: "Anchor-1" 606 416 basechar 0
AnchorPoint: "Anchor-0" 340 228 basechar 0
LayerCount: 2
Fore
SplineSet
510 286 m 0
 510 137 391 -11 282 -11 c 0
 230 -11 205 30 198 47 c 1
 162 -99 l 2
 158 -115 151 -141 151 -147 c 0
 151 -157 151 -163 202 -163 c 0
 216 -163 226 -163 226 -175 c 0
 226 -194 213 -194 207 -194 c 0
 176 -194 142 -191 110 -191 c 0
 82 -191 53 -194 26 -194 c 0
 19 -194 14 -189 14 -182 c 0
 14 -163 26 -163 35 -163 c 0
 74 -162 82 -159 90 -128 c 2
 204 330 l 2
 211 358 211 374 211 380 c 0
 211 391 211 420 185 420 c 0
 154 420 135 371 117 301 c 0
 112 279 111 278 98 278 c 0
 93 278 83 278 83 288 c 2
 83 288 96 349 115 389 c 0
 131 419 151 442 187 442 c 0
 212 442 257 430 269 372 c 1
 298 406 341 442 390 442 c 0
 450 442 510 393 510 286 c 0
387 106 m 0
 416 170 443 289 443 331 c 0
 443 363 433 420 388 420 c 0
 333 420 271 341 263 307 c 2
 216 118 l 2
 214 110 213 107 213 104 c 0
 213 96 223 11 281 11 c 0
 332 11 375 81 387 106 c 0
EndSplineSet
EndChar

StartChar: q
Encoding: 113 113 82
Width: 460
GlyphClass: 2
Flags: MW
HStem: -194 31<213.5 220 213.5 225 394 412> -11 22<207.5 249.5> 420 22<316.5 341>
VStem: 108 68<101.5 125 85 217> 429 68
AnchorPoint: "Anchor-5" 298 -252 basechar 0
AnchorPoint: "Anchor-2" 392 505 basechar 0
AnchorPoint: "Anchor-1" 556 416 basechar 0
AnchorPoint: "Anchor-0" 290 228 basechar 0
LayerCount: 2
Fore
SplineSet
429 -175 m 0
 429 -194 416 -194 410 -194 c 0
 378 -194 342 -191 309 -191 c 0
 276 -191 241 -194 209 -194 c 0
 202 -194 196 -191 196 -182 c 0
 196 -163 207 -163 220 -163 c 0
 284 -162 285 -158 296 -115 c 0
 316 -36 315 -36 335 42 c 1
 307 15 270 -11 229 -11 c 0
 154 -11 108 59 108 144 c 0
 108 290 226 442 337 442 c 0
 385 442 411 407 423 378 c 1
 439 406 475 441 486 441 c 0
 489 441 497 439 497 430 c 2
 497 430 495 420 494 417 c 2
 357 -129 l 2
 356 -135 354 -140 354 -147 c 0
 354 -157 354 -163 405 -163 c 0
 419 -163 429 -163 429 -175 c 0
355 122 m 2
 403 314 l 2
 405 320 406 324 406 327 c 0
 406 346 396 375 386 391 c 0
 368 419 345 420 337 420 c 0
 296 420 250 370 225 309 c 0
 207 267 176 150 176 100 c 0
 176 70 184 11 231 11 c 0
 286 11 347 91 355 122 c 2
EndSplineSet
EndChar

StartChar: r
Encoding: 114 114 83
Width: 422
GlyphClass: 2
Flags: MW
HStem: -11 21G<144 169> 326 79 420 22<169.5 198 356.5 392.5>
VStem: 405 84<359.5 360.5>
AnchorPoint: "Anchor-5" 149 -37 basechar 0
AnchorPoint: "Anchor-3" 155 1 basechar 0
AnchorPoint: "Anchor-2" 342 505 basechar 0
AnchorPoint: "Anchor-1" 536 416 basechar 0
AnchorPoint: "Anchor-0" 210 228 basechar 0
LayerCount: 2
Fore
SplineSet
489 379 m 0
 489 340 458 326 440 326 c 0
 414 326 405 345 405 358 c 0
 405 363 408 395 443 406 c 1
 423 420 395 420 390 420 c 0
 304 420 259 291 258 288 c 2
 193 26 l 2
 191 18 184 -11 154 -11 c 0
 134 -11 126 4 126 15 c 0
 126 18 127 23 129 29 c 2
 204 329 l 2
 208 345 211 364 211 380 c 0
 211 391 211 420 185 420 c 0
 154 420 135 371 117 301 c 0
 112 279 111 278 98 278 c 0
 93 278 83 278 83 288 c 2
 83 288 96 349 115 389 c 0
 131 419 151 442 187 442 c 0
 220 442 259 423 270 370 c 1
 286 392 322 442 391 442 c 0
 424 442 489 431 489 379 c 0
EndSplineSet
Substitution2: "'cv02' Character Variants 02 lookup 16 subtable" r.end
EndChar

StartChar: s
Encoding: 115 115 84
Width: 409
GlyphClass: 2
Flags: MW
HStem: -11 22<195 257.5 195 280> 68 80 302 68 420 22<271 324.5>
VStem: 154 56<306.5 320> 336 57<134 150>
AnchorPoint: "Anchor-5" 203 -25 basechar 0
AnchorPoint: "Anchor-3" 206 -5 basechar 0
AnchorPoint: "Anchor-2" 342 505 basechar 0
AnchorPoint: "Anchor-1" 446 416 basechar 0
AnchorPoint: "Anchor-0" 290 228 basechar 0
LayerCount: 2
Fore
SplineSet
393 157 m 0
 393 111 355 -11 205 -11 c 0
 134 -11 76 25 76 86 c 0
 76 131 104 148 127 148 c 0
 148 148 161 135 161 116 c 1
 161 116 161 72 110 67 c 1
 126 16 184 11 206 11 c 0
 309 11 336 91 336 123 c 0
 336 177 291 187 247 197 c 0
 219 203 154 217 154 294 c 0
 154 346 195 442 312 442 c 0
 378 442 419 403 419 357 c 0
 419 314 393 302 376 302 c 0
 352 302 346 319 346 330 c 0
 346 340 354 367 386 371 c 1
 375 410 338 420 311 420 c 0
 231 420 210 352 210 328 c 0
 210 285 246 277 274 271 c 0
 315 262 393 244 393 157 c 0
EndSplineSet
Substitution2: "'hist' Historical Forms lookup 19 subtable" longs
EndChar

StartChar: t
Encoding: 116 116 85
Width: 332
GlyphClass: 2
Flags: MW
HStem: -11 22<192.5 234.5 192.5 254.5> 400 31<108 204 119 196 268 345> 606 20G<269.5 287>
VStem: 119 60<54 55.5 44 86>
AnchorPoint: "Anchor-5" 218 -25 basechar 0
AnchorPoint: "Anchor-3" 215 0 basechar 0
AnchorPoint: "Anchor-2" 299 675 basechar 0
AnchorPoint: "Anchor-1" 436 416 basechar 0
AnchorPoint: "Anchor-0" 187 228 basechar 0
LayerCount: 2
Fore
SplineSet
356 143 m 0
 356 138 305 -11 204 -11 c 0
 152 -11 119 29 119 79 c 0
 119 93 123 109 124 113 c 2
 196 400 l 1
 116 400 l 2
 100 400 91 400 91 412 c 0
 91 431 102 431 119 431 c 2
 204 431 l 1
 243 590 l 2
 247 605 257 626 282 626 c 0
 292 626 309 621 309 600 c 0
 309 595 309 593 305 579 c 2
 268 431 l 1
 348 431 l 2
 364 431 373 431 373 419 c 0
 373 400 362 400 345 400 c 2
 260 400 l 1
 186 103 l 2
 179 75 179 59 179 52 c 0
 179 36 179 11 206 11 c 0
 263 11 303 86 321 134 c 0
 329 152 329 153 341 153 c 0
 348 153 356 153 356 143 c 0
EndSplineSet
EndChar

StartChar: u
Encoding: 117 117 86
Width: 537
GlyphClass: 2
Flags: MW
HStem: -11 22<247.5 292 247.5 293.5 448.5 476.5> 420 22<180 214.5>
VStem: 155 61<71.5 118.5 71.5 131> 231 56<379 386 351.5 404>
AnchorPoint: "Anchor-5" 328 -25 basechar 0
AnchorPoint: "Anchor-3" 464 -4 basechar 0
AnchorPoint: "Anchor-2" 372 505 basechar 0
AnchorPoint: "Anchor-1" 596 416 basechar 0
AnchorPoint: "Anchor-0" 330 228 basechar 0
LayerCount: 2
Fore
SplineSet
561 143 m 2
 561 143 549 83 531 45 c 0
 516 14 495 -11 458 -11 c 0
 439 -11 396 -5 378 49 c 1
 354 19 320 -11 267 -11 c 0
 213 -11 155 18 155 105 c 0
 155 157 181 231 207 301 c 0
 221 340 231 367 231 391 c 0
 231 417 220 420 209 420 c 0
 151 420 124 325 116 294 c 0
 112 280 111 278 98 278 c 0
 93 278 83 278 83 288 c 0
 83 294 118 442 211 442 c 0
 254 442 287 411 287 361 c 0
 287 342 282 328 274 307 c 0
 249 239 216 149 216 88 c 0
 216 55 225 11 270 11 c 0
 314 11 343 41 362 69 c 0
 371 82 371 84 376 102 c 2
 449 394 l 2
 451 402 458 431 488 431 c 0
 508 431 516 416 516 405 c 0
 516 402 515 397 513 391 c 2
 441 103 l 2
 434 75 434 59 434 52 c 0
 434 38 434 11 460 11 c 0
 494 11 513 74 527 130 c 0
 533 152 534 153 546 153 c 0
 553 153 561 153 561 143 c 2
EndSplineSet
EndChar

StartChar: v
Encoding: 118 118 87
Width: 460
GlyphClass: 2
Flags: MW
HStem: -11 22<255 339.5 255 363> 420 22<180 214.5>
VStem: 156 61<77.5 123 77.5 132.5> 231 56<379 386 351.5 404> 404 89<389.5 393.5 363 407.5>
AnchorPoint: "Anchor-5" 298 -25 basechar 0
AnchorPoint: "Anchor-2" 372 505 basechar 0
AnchorPoint: "Anchor-1" 546 416 basechar 0
AnchorPoint: "Anchor-0" 330 228 basechar 0
LayerCount: 2
Fore
SplineSet
493 376 m 0
 493 350 447 -11 279 -11 c 0
 220 -11 156 18 156 109 c 0
 156 156 176 216 207 301 c 0
 221 340 231 367 231 391 c 0
 231 417 220 420 209 420 c 0
 151 420 124 325 116 294 c 0
 112 280 111 278 98 278 c 0
 93 278 83 278 83 288 c 0
 83 294 118 442 211 442 c 0
 254 442 287 411 287 361 c 0
 287 342 281 327 276 311 c 0
 249 239 217 152 217 94 c 0
 217 61 228 11 282 11 c 0
 397 11 444 262 444 290 c 0
 444 311 441 343 417 369 c 0
 411 376 404 383 404 396 c 0
 404 419 429 442 452 442 c 0
 481 442 493 411 493 376 c 0
EndSplineSet
EndChar

StartChar: w
Encoding: 119 119 88
Width: 664
GlyphClass: 2
Flags: MW
HStem: -11 22<276.5 301 474 522> 420 22<180 214.5>
VStem: 157 61<95 125 91.5 125.5> 231 56<379 386 351.5 404> 372 61<73 112> 608 89<389.5 393.5 349.5 407.5>
AnchorPoint: "Anchor-5" 398 -25 basechar 0
AnchorPoint: "Anchor-2" 498 505 basechar 0
AnchorPoint: "Anchor-1" 766 416 basechar 0
AnchorPoint: "Anchor-0" 430 228 basechar 0
LayerCount: 2
Fore
SplineSet
697 376 m 0
 697 323 658 169 628 101 c 0
 598 30 556 -11 496 -11 c 0
 437 -11 397 16 382 53 c 1
 352 2 317 -11 285 -11 c 0
 268 -11 223 -8 191 20 c 0
 165 44 157 78 157 112 c 0
 157 139 157 165 207 301 c 0
 221 340 231 367 231 391 c 0
 231 417 220 420 209 420 c 0
 151 420 124 325 116 294 c 0
 112 280 111 278 98 278 c 0
 93 278 83 278 83 288 c 0
 83 294 118 442 211 442 c 0
 254 442 287 411 287 361 c 0
 287 342 282 327 275 308 c 0
 244 226 218 152 218 98 c 0
 218 85 218 11 288 11 c 0
 341 11 372 94 372 105 c 0
 372 119 373 140 380 168 c 2
 437 396 l 2
 439 404 446 431 475 431 c 0
 495 431 503 416 503 405 c 0
 503 401 493 361 487 339 c 2
 445 171 l 2
 434 127 433 103 433 94 c 0
 433 52 449 11 499 11 c 0
 545 11 577 52 599 104 c 0
 616 145 648 250 648 290 c 0
 648 311 645 343 621 369 c 0
 615 376 608 383 608 396 c 0
 608 419 633 442 656 442 c 0
 685 442 697 411 697 376 c 0
EndSplineSet
EndChar

StartChar: x
Encoding: 120 120 89
Width: 464
GlyphClass: 2
Flags: MW
HStem: -11 22<140.5 165 326 357> 27 78 420 22<215 249.5 406.5 431.5>
VStem: 53 84<65.5 67.5> 434 84<351.5 404.5>
AnchorPoint: "Anchor-5" 268 -25 basechar 0
AnchorPoint: "Anchor-2" 362 505 basechar 0
AnchorPoint: "Anchor-1" 556 416 basechar 0
AnchorPoint: "Anchor-0" 290 228 basechar 0
LayerCount: 2
Fore
SplineSet
488 143 m 0
 488 123 437 -11 334 -11 c 0
 308 -11 259 0 239 57 c 1
 222 27 189 -11 141 -11 c 0
 95 -11 53 12 53 51 c 0
 53 84 78 105 103 105 c 0
 116 105 137 99 137 73 c 0
 137 58 128 33 98 25 c 1
 115 11 139 11 142 11 c 0
 202 11 223 91 239 156 c 2
 262 247 l 2
 271 284 283 333 283 357 c 0
 283 397 264 420 235 420 c 0
 195 420 143 381 116 295 c 0
 111 279 111 278 98 278 c 0
 93 278 83 278 83 288 c 0
 83 311 137 442 237 442 c 0
 262 442 311 434 333 374 c 1
 343 393 376 442 431 442 c 0
 460 442 518 430 518 379 c 0
 518 340 487 326 469 326 c 0
 443 326 434 345 434 358 c 1
 434 358 434 396 474 406 c 1
 458 420 433 420 430 420 c 0
 383 420 356 365 342 313 c 2
 308 176 l 2
 300 142 289 99 289 75 c 0
 289 23 316 11 336 11 c 0
 378 11 428 50 455 136 c 0
 460 152 461 153 473 153 c 0
 480 153 488 153 488 143 c 0
EndSplineSet
EndChar

StartChar: y
Encoding: 121 121 90
Width: 486
GlyphClass: 2
Flags: MW
HStem: -205 22<171 220 171 247> -11 22<247.5 290> 420 22<180 214.5>
VStem: 99 56 155 61<71.5 118.5 71.5 131> 231 56<379 386 351.5 404>
AnchorPoint: "Anchor-5" 186 -256 basechar 0
AnchorPoint: "Anchor-2" 392 505 basechar 0
AnchorPoint: "Anchor-1" 566 416 basechar 0
AnchorPoint: "Anchor-0" 320 228 basechar 0
LayerCount: 2
Fore
SplineSet
415 -3 m 2xec
 390 -102 299 -205 195 -205 c 0
 140 -205 99 -171 99 -119 c 0x90
 99 -63 138 -57 150 -57 c 0
 168 -57 184 -68 184 -89 c 0
 184 -105 172 -132 141 -137 c 0
 134 -138 133 -140 133 -140 c 1
 133 -145 147 -183 195 -183 c 0
 245 -183 319 -139 357 26 c 1
 344 13 313 -11 267 -11 c 0
 213 -11 155 18 155 105 c 0
 155 157 181 231 207 301 c 0
 221 340 231 367 231 391 c 0
 231 417 220 420 209 420 c 0
 151 420 124 325 116 294 c 0
 112 280 111 278 98 278 c 0
 93 278 83 278 83 288 c 0
 83 294 118 442 211 442 c 0
 254 442 287 411 287 361 c 0
 287 342 282 328 274 307 c 0
 249 239 216 149 216 88 c 0
 216 55 225 11 270 11 c 0
 329 11 369 71 376 100 c 2
 449 394 l 2
 451 402 458 431 488 431 c 0
 508 431 516 416 516 405 c 0
 516 402 514 397 513 391 c 2
 415 -3 l 2xec
EndSplineSet
EndChar

StartChar: z
Encoding: 122 122 91
Width: 409
GlyphClass: 2
Flags: MW
HStem: -11 64<282 313.5 282 330.5> 64 22<171.5 183> 345 22<362.5 370> 378 64<232.5 261>
VStem: 62 402
AnchorPoint: "Anchor-5" 238 -25 basechar 0
AnchorPoint: "Anchor-2" 362 505 basechar 0
AnchorPoint: "Anchor-1" 516 416 basechar 0
AnchorPoint: "Anchor-0" 280 228 basechar 0
LayerCount: 2
Fore
SplineSet
433 143 m 0
 433 119 379 -11 282 -11 c 0
 251 -11 236 8 220 28 c 0
 202 53 194 64 172 64 c 0
 134 64 107 19 93 -2 c 0
 89 -9 88 -11 77 -11 c 0
 71 -11 62 -11 62 -1 c 0
 62 9 110 83 166 138 c 2
 330 301 l 2
 346 317 355 328 370 345 c 1
 355 345 344 345 311 360 c 0
 289 370 271 378 251 378 c 0
 214 378 185 353 177 331 c 0
 172 319 171 317 159 317 c 0
 151 317 144 319 144 328 c 0
 144 348 187 442 261 442 c 0
 293 442 310 419 322 403 c 0
 341 377 351 367 369 367 c 0
 385 367 398 372 431 429 c 0
 437 441 438 442 450 442 c 0
 456 442 464 442 464 432 c 0
 464 423 416 347 357 289 c 2
 212 146 l 2
 184 118 163 93 156 85 c 1
 161 86 169 86 174 86 c 0
 194 86 206 82 236 69 c 0
 256 60 272 53 292 53 c 0
 335 53 383 87 401 137 c 0
 405 150 406 153 418 153 c 0
 421 153 433 153 433 143 c 0
EndSplineSet
EndChar

StartChar: braceleft
Encoding: 123 123 92
Width: 500
GlyphClass: 2
Flags: MW
HStem: -250 21G<329.5 351> 237 24 730 20G<545 601>
LayerCount: 2
Fore
SplineSet
612 739 m 0
 610 733 605 729 600 728 c 0
 529 724 500 700 478 682 c 0
 447 657 442 635 424 563 c 2
 379 383 l 2
 372 355 354 284 228 250 c 1
 264 239 321 213 318 147 c 0
 317 137 305 86 297 56 c 2
 260 -94 l 2
 251 -129 250 -131 251 -142 c 0
 251 -178 276 -223 354 -228 c 0
 364 -229 370 -229 367 -239 c 0
 365 -250 357 -250 345 -250 c 0
 314 -250 251 -242 215 -212 c 0
 172 -175 181 -141 195 -83 c 2
 245 115 l 2
 270 215 190 236 148 239 c 0
 138 240 132 240 135 250 c 0
 137 260 144 261 151 261 c 0
 215 265 249 292 267 306 c 0
 300 334 304 350 327 444 c 2
 373 627 l 2
 393 699 495 750 595 750 c 0
 607 750 615 750 612 739 c 0
EndSplineSet
EndChar

StartChar: bar
Encoding: 124 124 93
Width: 278
GlyphClass: 2
Flags: MW
HStem: -250 21G<67 87> 730 20G<317 337>
LayerCount: 2
Fore
SplineSet
105 -217 m 2
 101 -231 97 -250 77 -250 c 0
 57 -250 61 -231 65 -217 c 2
 298 717 l 2
 302 731 307 750 327 750 c 0
 347 750 342 731 338 717 c 2
 105 -217 l 2
EndSplineSet
EndChar

StartChar: braceright
Encoding: 125 125 94
Width: 500
GlyphClass: 2
Flags: MW
HStem: -250 21G<25 80> 239 21G<473 476.5> 730 20G<275 296>
LayerCount: 2
Fore
SplineSet
490 250 m 0
 487 240 480 239 473 239 c 0
 409 235 375 208 358 194 c 0
 325 166 321 150 297 56 c 2
 251 -127 l 2
 231 -199 130 -250 30 -250 c 0
 20 -250 10 -250 12 -239 c 0
 14 -233 19 -229 24 -228 c 0
 95 -224 124 -200 147 -182 c 0
 177 -157 182 -135 200 -63 c 2
 245 117 l 2
 252 145 270 216 397 250 c 1
 360 261 303 287 306 353 c 0
 307 363 320 414 327 444 c 2
 365 594 l 2
 373 629 374 631 374 642 c 0
 374 678 348 723 270 728 c 0
 260 729 254 729 257 739 c 0
 260 750 270 750 280 750 c 0
 312 750 373 741 409 712 c 0
 452 675 443 641 429 583 c 2
 379 385 l 2
 354 285 434 264 476 261 c 0
 486 260 492 260 490 250 c 0
EndSplineSet
EndChar

StartChar: asciitilde
Encoding: 126 126 95
Width: 556
GlyphClass: 2
Flags: MW
HStem: 193 43<427 431.5> 264 43<248.5 253>
LayerCount: 2
Fore
SplineSet
627 290 m 1
 562 246 l 2
 542 232 519 221 497 211 c 0
 472 201 444 193 419 193 c 0
 379 193 352 210 328 227 c 0
 298 247 273 264 233 264 c 0
 182 264 121 234 62 193 c 1
 52 210 l 1
 117 254 l 2
 138 268 161 279 183 289 c 0
 208 299 236 307 261 307 c 0
 301 307 327 290 352 273 c 0
 382 253 407 236 447 236 c 0
 498 236 558 266 618 307 c 1
 627 290 l 1
EndSplineSet
EndChar

StartChar: exclamdown
Encoding: 161 161 97
Width: 307
GlyphClass: 3
Flags: MW
HStem: -216 21G<88 104.5> 293 20G<224.5 234.5> 394 106<259 271.5>
VStem: 211 109<440 452.5>
LayerCount: 2
Fore
SplineSet
320 457 m 0
 320 423 287 394 256 394 c 0
 226 394 211 417 211 437 c 0
 211 468 242 500 276 500 c 0
 301 500 320 482 320 457 c 0
168 -156 m 2
 158 -215 106 -216 103 -216 c 0
 73 -216 58 -195 58 -175 c 0
 58 -169 59 -165 63 -154 c 2
 212 296 l 2
 218 312 219 313 230 313 c 0
 239 313 245 311 245 301 c 2
 245 301 245 298 243 289 c 2
 168 -156 l 2
EndSplineSet
Ligature2: "'liga' Standard Ligatures lookup 19 subtable" exclam quoteleft
Ligature2: "'liga' Standard Ligatures lookup 19 subtable" exclam grave
Ligature2: "'dlig' Discretionary Ligatures lookup 8 subtable" exclam quoteleft
Ligature2: "'dlig' Discretionary Ligatures lookup 8 subtable" exclam grave
EndChar

StartChar: cent
Encoding: 162 162 98
Width: 460
GlyphClass: 2
Flags: MW
HStem: -11 22 296 79 420 22
VStem: 110 70<108.5 140.5 88.5 224> 385 85<320 378.5>
LayerCount: 2
Fore
SplineSet
468 104 m 0
 468 89 389 -7 265 -11 c 1
 261 -30 l 2
 258 -38 250 -45 242 -45 c 0
 233 -45 228 -38 231 -30 c 2
 236 -10 l 1
 160 0 110 63 110 154 c 0
 110 294 229 431 348 441 c 1
 353 461 l 2
 355 469 364 476 372 476 c 0
 380 476 385 469 383 461 c 2
 378 441 l 1
 434 436 470 401 470 356 c 0
 470 318 446 296 419 296 c 0
 396 296 385 312 385 328 c 1
 385 328 385 371 435 377 c 1
 423 411 390 418 373 420 c 1
 271 12 l 1
 302 14 376 29 439 109 c 0
 447 119 448 120 452 120 c 0
 460 120 468 109 468 104 c 0
241 13 m 1
 342 417 l 1
 304 408 263 375 233 320 c 0
 207 272 180 167 180 114 c 0
 180 63 199 22 241 13 c 1
EndSplineSet
Substitution2: "'onum' Oldstyle Figures lookup 4 subtable" cent.oldstyle
Substitution2: "'aalt' Access All Alternates lookup 0 subtable" cent.oldstyle
EndChar

StartChar: sterling
Encoding: 163 163 99
Width: 769
GlyphClass: 2
Flags: MW
HStem: -11 22<143.5 170 143.5 178.5> 332 31<272 340 283 332 404 478> 684 22<561 608.5>
VStem: 88 37<32 50 32 60.5> 667 31<560 577 577 608.5 554.5 611.5>
CounterMasks: 1 e0
LayerCount: 2
Fore
SplineSet
633 138 m 0
 633 107 567 -11 452 -11 c 0
 400 -11 372 9 297 62 c 1
 260 17 202 -11 155 -11 c 0
 122 -11 88 3 88 38 c 0
 88 83 145 139 219 139 c 0
 247 139 271 130 278 127 c 1
 286 148 297 194 306 228 c 2
 332 332 l 1
 280 332 l 2
 264 332 256 332 256 342 c 0
 256 363 266 363 283 363 c 2
 340 363 l 1
 379 523 l 2
 403 620 493 706 582 706 c 0
 661 706 698 644 698 573 c 0
 698 536 691 480 643 480 c 0
 627 480 609 490 609 512 c 0
 609 527 616 540 627 550 c 0
 639 560 649 560 667 560 c 1
 667 577 l 2
 667 646 634 684 583 684 c 0
 539 684 479 646 448 539 c 1
 404 363 l 1
 481 363 l 2
 497 363 505 363 505 353 c 0
 505 332 495 332 478 332 c 2
 396 332 l 1
 356 169 l 2
 350 145 339 122 326 100 c 1
 401 47 425 30 470 30 c 0
 526 30 581 76 600 131 c 0
 605 147 606 148 618 148 c 0
 623 148 633 148 633 138 c 0
258 85 m 1
 240 93 221 98 201 98 c 0
 158 98 125 63 125 37 c 0
 125 27 132 11 155 11 c 0
 185 11 228 34 258 85 c 1
EndSplineSet
EndChar

StartChar: currency
Encoding: 164 164 100
Width: 767
GlyphClass: 2
Flags: MW
HStem: 57 40<374.5 421> 403 40<471 517 471 526.5>
LayerCount: 2
Fore
SplineSet
614 37 m 0
 605 30 591 27 580 34 c 0
 577 36 578 37 570 47 c 2
 530 100 l 1
 490 73 444 57 398 57 c 0
 351 57 313 73 287 100 c 1
 220 46 l 2
 207 36 191 23 176 34 c 0
 161 44 177 58 190 68 c 2
 265 128 l 1
 247 161 241 204 253 250 c 0
 264 296 291 338 326 372 c 1
 278 435 l 2
 273 441 265 452 279 464 c 0
 290 472 303 473 312 467 c 0
 315 465 315 465 322 454 c 2
 363 401 l 1
 402 427 448 443 494 443 c 0
 540 443 579 427 605 400 c 1
 672 454 l 2
 685 464 701 477 716 466 c 0
 731 456 715 442 702 432 c 2
 626 372 l 1
 645 339 651 296 639 250 c 0
 628 204 601 162 567 129 c 1
 615 66 l 2
 620 58 627 48 614 37 c 0
599 250 m 0
 620 335 569 403 484 403 c 0
 399 403 314 335 293 250 c 0
 271 165 323 97 408 97 c 0
 492 97 578 165 599 250 c 0
EndSplineSet
EndChar

StartChar: yen
Encoding: 165 165 101
Width: 743
GlyphClass: 2
Flags: MW
HStem: 0 31<259 266 259 274 471 491.5> 167 30<186.5 381 198 374 459 637> 303 30<220.5 382 232 382 232 391 527 671> 652 31<219 237.5 218 249.5 427.5 439.5>
VStem: 202 672<662.5 672 662.5 673.5>
LayerCount: 2
Fore
SplineSet
874 672 m 1
 874 653 864 653 855 652 c 0
 807 648 769 627 722 570 c 2
 527 333 l 1
 678 333 l 2
 686 333 692 326 690 318 c 0
 688 310 679 303 671 303 c 2
 502 303 l 1
 486 283 l 2
 479 275 479 273 474 256 c 2
 459 197 l 1
 644 197 l 2
 652 197 658 190 656 182 c 0
 654 174 645 167 637 167 c 2
 452 167 l 1
 443 133 l 2
 436 104 424 56 424 48 c 0
 424 31 451 31 482 31 c 0
 501 31 509 31 509 19 c 0
 509 0 496 0 490 0 c 0
 452 0 410 3 371 3 c 0
 333 3 293 0 255 0 c 0
 252 0 241 0 241 12 c 0
 241 31 252 31 266 31 c 0
 340 32 341 35 354 90 c 2
 374 167 l 1
 191 167 l 2
 182 167 178 174 180 182 c 0
 182 190 189 197 198 197 c 2
 381 197 l 1
 391 236 400 271 400 273 c 0
 400 277 398 283 396 288 c 2
 391 303 l 1
 225 303 l 2
 216 303 212 310 214 318 c 0
 216 326 223 333 232 333 c 2
 382 333 l 1
 290 622 l 2
 283 645 273 652 226 652 c 0
 212 652 202 652 202 664 c 0
 202 683 215 683 221 683 c 0
 254 683 291 680 325 680 c 0
 364 680 404 683 442 683 c 0
 446 683 456 683 456 671 c 0
 456 652 445 652 434 652 c 0
 421 652 378 651 378 628 c 1
 378 628 378 625 382 615 c 2
 471 333 l 1
 492 333 l 1
 696 582 l 2
 698 585 721 612 721 629 c 0
 721 645 707 651 690 652 c 0
 684 652 675 653 675 664 c 0
 675 683 687 683 693 683 c 0
 723 683 755 680 786 680 c 0
 811 680 838 683 862 683 c 0
 874 683 874 672 874 672 c 1
EndSplineSet
EndChar

StartChar: brokenbar
Encoding: 166 166 102
Width: 278
GlyphClass: 2
Flags: MW
HStem: -250 21G<67 87> 730 20G<317 337>
LayerCount: 2
Fore
SplineSet
245 343 m 2
 243 334 231 328 221 328 c 0
 211 328 203 334 205 343 c 2
 298 717 l 2
 302 731 307 750 327 750 c 0
 347 750 342 731 338 717 c 2
 245 343 l 2
105 -217 m 2
 101 -231 97 -250 77 -250 c 0
 57 -250 61 -231 65 -217 c 2
 158 157 l 2
 160 166 172 172 182 172 c 0
 192 172 200 166 198 157 c 2
 105 -217 l 2
EndSplineSet
EndChar

StartChar: section
Encoding: 167 167 103
Width: 490
GlyphClass: 2
Flags: MW
HStem: -213 46<174 235.5 174 238.5> 667 46<379.5 441>
LayerCount: 2
Fore
SplineSet
507 194 m 0
 493 141 445 99 390 74 c 1
 406 42 412 3 401 -38 c 0
 378 -133 285 -213 192 -213 c 0
 101 -213 60 -126 85 -29 c 0
 90 -7 113 11 135 11 c 0
 157 11 170 -7 165 -29 c 0
 159 -51 137 -69 115 -69 c 2
 110 -69 l 1
 111 -124 145 -167 203 -167 c 0
 268 -167 328 -106 345 -38 c 0
 359 18 324 60 278 86 c 2
 197 134 l 2
 136 170 89 229 108 306 c 0
 122 359 170 401 225 426 c 1
 209 458 203 496 214 538 c 0
 237 633 330 713 423 713 c 0
 514 713 555 626 530 529 c 0
 525 507 502 489 480 489 c 0
 458 489 445 507 450 529 c 0
 456 551 478 569 500 569 c 2
 505 569 l 1
 504 624 470 667 412 667 c 0
 347 667 287 606 270 538 c 0
 256 482 291 440 337 414 c 2
 418 366 l 2
 479 330 526 271 507 194 c 0
435 194 m 0
 448 246 415 285 373 309 c 2
 292 357 l 2
 272 369 254 385 240 403 c 1
 209 382 190 343 180 306 c 0
 167 254 200 215 242 191 c 2
 323 143 l 2
 343 130 361 115 375 97 c 1
 406 117 425 157 435 194 c 0
EndSplineSet
EndChar

StartChar: dieresis
Encoding: 168 168 104
Width: 511
GlyphClass: 2
Flags: MW
HStem: 553 96<311.5 323 488.5 500>
LayerCount: 2
Fore
SplineSet
366 610 m 0
 366 581 337 553 309 553 c 0
 282 553 268 572 268 592 c 0
 268 621 297 649 326 649 c 0
 353 649 366 629 366 610 c 0
543 610 m 0
 543 581 514 553 486 553 c 0
 459 553 445 572 445 592 c 0
 445 621 474 649 503 649 c 0
 530 649 543 629 543 610 c 0
EndSplineSet
EndChar

StartChar: copyright
Encoding: 169 169 105
Width: 683
GlyphClass: 2
Flags: MW
HStem: 0 40<258.5 425 258.5 436> 643 40<258.5 425>
LayerCount: 2
Fore
SplineSet
683 342 m 0
 683 153 530 0 342 0 c 0
 153 0 0 153 0 342 c 0
 0 530 153 683 342 683 c 0
 530 683 683 530 683 342 c 0
643 342 m 0
 643 508 508 643 342 643 c 0
 175 643 40 508 40 342 c 0
 40 175 175 40 342 40 c 0
 508 40 643 175 643 342 c 0
544 545 m 2
 507 399 l 2
 505 389 503 389 496 389 c 0
 493 389 487 389 487 395 c 2
 487 395 490 416 490 431 c 0
 490 483 469 541 405 541 c 0
 359 541 304 513 264 458 c 0
 216 392 201 298 201 261 c 0
 201 176 253 143 304 143 c 0
 353 143 428 181 459 282 c 0
 461 287 465 287 468 287 c 0
 471 287 477 287 477 281 c 0
 477 252 412 124 295 124 c 0
 213 124 149 186 149 284 c 0
 149 425 277 559 401 559 c 0
 431 559 465 550 491 508 c 1
 529 553 l 2
 534 559 538 559 538 559 c 2
 544 559 545 553 545 553 c 2
 545 551 544 547 544 545 c 2
EndSplineSet
EndChar

StartChar: ordfeminine
Encoding: 170 170 106
Width: 473
GlyphClass: 2
Flags: W
LayerCount: 2
Fore
SplineSet
543 496 m 2
 543 496 535 454 522 427 c 0
 510 406 493 388 462 388 c 0
 433 388 401 403 390 437 c 1
 358 403 322 388 292 388 c 0
 229 388 188 437 185 497 c 0
 180 599 273 705 367 705 c 0
 393 705 421 694 438 664 c 1
 439 668 444 691 471 691 c 0
 479 691 493 688 494 673 c 0
 494 670 494 668 492 658 c 2
 444 468 l 2
 439 448 440 437 440 432 c 0
 440 423 441 404 463 404 c 0
 492 404 505 448 515 487 c 0
 520 502 520 503 530 503 c 0
 536 503 543 503 543 496 c 2
492 348 m 0
 490 342 482 337 474 337 c 2
 167 337 l 2
 159 337 153 342 155 348 c 0
 156 354 164 358 173 358 c 2
 479 358 l 2
 488 358 493 354 492 348 c 0
394 483 m 2
 427 615 l 2
 428 619 429 624 429 624 c 1
 427 654 404 690 367 690 c 0
 333 690 296 655 277 612 c 0
 264 583 242 501 243 466 c 0
 244 445 253 404 293 404 c 0
 339 404 388 460 394 483 c 2
EndSplineSet
EndChar

StartChar: guillemotleft
Encoding: 171 171 107
Width: 562
GlyphClass: 2
Flags: MW
HStem: 0 21G<269.5 272 272 274 422.5 425 425 427> 463 20G<388 390 390 393 541 543 543 546>
LayerCount: 2
Fore
SplineSet
399 469 m 0
 362 389 313 311 255 240 c 1
 277 168 287 90 284 10 c 0
 284 4 280 0 274 0 c 2
 272 0 l 2
 267 0 263 4 263 9 c 0
 257 93 233 171 191 236 c 0
 190 238 189 240 189 242 c 0
 189 245 191 247 193 249 c 0
 268 316 332 394 380 478 c 0
 381 481 385 483 388 483 c 2
 390 483 l 2
 396 483 400 479 400 473 c 0
 400 472 400 470 399 469 c 0
552 469 m 0
 515 389 466 311 408 240 c 1
 430 168 440 90 437 10 c 0
 437 4 433 0 427 0 c 2
 425 0 l 2
 420 0 416 4 416 9 c 0
 410 93 386 171 344 236 c 0
 343 238 342 240 342 242 c 0
 342 245 344 247 346 249 c 0
 421 316 485 394 533 478 c 0
 534 481 538 483 541 483 c 2
 543 483 l 2
 549 483 553 479 553 473 c 0
 553 472 553 470 552 469 c 0
EndSplineSet
Substitution2: "'cv04' Character Variants 04 in Greek lookup 22-1" guillemotleft.gr
Substitution2: "'cv03' Character Variants 03 in Cyrillic lookup 20-1" guillemotleft.cyr
EndChar

StartChar: logicalnot
Encoding: 172 172 108
Width: 767
GlyphClass: 2
Flags: MW
HStem: 327 40<172.5 763 188 733>
LayerCount: 2
Fore
SplineSet
778 347 m 2
 729 153 l 2
 727 142 715 133 704 133 c 0
 693 133 687 142 689 153 c 2
 733 327 l 1
 178 327 l 2
 167 327 160 336 163 347 c 0
 166 358 177 367 188 367 c 2
 763 367 l 2
 774 367 781 358 778 347 c 2
EndSplineSet
EndChar

StartChar: uni00AD
Encoding: 173 173 109
Width: 358
GlyphClass: 2
Flags: MW
HStem: 187 56<103 314 119 304>
VStem: 86 253<193.5 237>
LayerCount: 2
Fore
SplineSet
331 199 m 0
 328 187 323 187 304 187 c 2
 112 187 l 2
 94 187 86 187 86 200 c 0
 86 205 91 224 93 230 c 0
 97 243 99 243 119 243 c 2
 314 243 l 2
 330 243 339 243 339 231 c 0
 339 227 333 205 331 199 c 0
EndSplineSet
EndChar

StartChar: registered
Encoding: 174 174 110
Width: 683
GlyphClass: 2
Flags: MW
HStem: 0 40<258.5 425 258.5 436> 643 40<258.5 425>
LayerCount: 2
Fore
SplineSet
683 342 m 0
 683 153 530 0 342 0 c 0
 153 0 0 153 0 342 c 0
 0 530 153 683 342 683 c 0
 530 683 683 530 683 342 c 0
643 342 m 0
 643 508 508 643 342 643 c 0
 175 643 40 508 40 342 c 0
 40 175 175 40 342 40 c 0
 508 40 643 175 643 342 c 0
549 199 m 0
 549 194 531 131 481 131 c 0
 443 131 407 150 407 194 c 0
 407 205 409 214 415 242 c 0
 424 276 426 281 426 289 c 0
 426 332 395 342 369 342 c 2
 305 342 l 1
 266 185 l 2
 263 176 263 175 263 173 c 0
 263 167 263 162 298 162 c 0
 310 162 314 162 314 155 c 0
 314 144 307 144 303 144 c 0
 280 144 255 146 232 146 c 0
 209 146 185 144 162 144 c 1
 162 144 154 144 154 151 c 0
 154 162 161 162 170 162 c 0
 211 162 214 167 219 188 c 2
 300 513 l 2
 302 521 302 522 302 524 c 0
 302 534 286 534 268 534 c 0
 256 534 251 534 251 541 c 0
 251 553 258 553 268 553 c 2
 426 553 l 2
 500 553 546 511 546 464 c 0
 546 420 505 368 420 347 c 1
 451 336 472 311 472 277 c 0
 472 265 469 238 467 225 c 0
 465 209 463 195 463 179 c 0
 463 160 465 144 483 144 c 0
 502 144 520 163 530 197 c 0
 532 204 532 207 540 207 c 0
 548 207 549 203 549 199 c 0
492 478 m 0
 492 534 433 534 395 534 c 0
 384 534 365 534 360 533 c 0
 356 532 351 531 347 513 c 2
 308 355 l 1
 369 355 l 2
 410 355 439 369 457 386 c 0
 490 419 492 474 492 478 c 0
EndSplineSet
EndChar

StartChar: macron
Encoding: 175 175 111
Width: 511
GlyphClass: 2
Flags: MW
HStem: 586 30<256.5 547 267 545>
LayerCount: 2
Fore
SplineSet
572 605 m 0
 572 586 562 586 545 586 c 2
 265 586 l 2
 248 586 240 586 240 599 c 0
 240 616 250 616 267 616 c 2
 547 616 l 2
 562 616 572 616 572 605 c 0
EndSplineSet
EndChar

StartChar: degree
Encoding: 176 176 112
Width: 383
GlyphClass: 2
Flags: MW
HStem: 428 40<284.5 333 284.5 334> 643 40<328.5 377>
LayerCount: 2
Fore
SplineSet
458 556 m 0
 441 485 369 428 299 428 c 0
 228 428 185 485 203 556 c 0
 220 626 292 683 363 683 c 0
 433 683 476 626 458 556 c 0
418 556 m 0
 430 604 401 643 353 643 c 0
 304 643 255 604 243 556 c 0
 231 507 260 468 309 468 c 0
 357 468 406 507 418 556 c 0
EndSplineSet
EndChar

StartChar: plusminus
Encoding: 177 177 113
Width: 767
GlyphClass: 2
Flags: MW
HStem: 0 40<109 373 116 373 415 662> 287 40<180 445 187 435 187 476 486 733> 594 20G<524 538>
LayerCount: 2
Fore
SplineSet
695 20 m 0
 695 0 676 0 662 0 c 2
 116 0 l 2
 102 0 83 0 83 20 c 0
 83 40 102 40 116 40 c 2
 373 40 l 1
 435 287 l 1
 187 287 l 2
 173 287 154 287 154 307 c 0
 154 327 173 327 187 327 c 2
 445 327 l 1
 510 589 l 2
 512 598 516 614 532 614 c 0
 544 614 552 605 552 594 c 0
 552 590 552 589 548 575 c 2
 486 327 l 1
 733 327 l 2
 747 327 766 327 766 307 c 0
 766 287 747 287 733 287 c 2
 476 287 l 1
 415 40 l 1
 662 40 l 2
 676 40 695 40 695 20 c 0
EndSplineSet
EndChar

StartChar: two.superior
Encoding: 178 178 114
Width: 386
GlyphClass: 2
Flags: W
LayerCount: 2
Fore
SplineSet
442 404 m 0
 443 397 415 293 332 293 c 0
 303 293 280 306 261 317 c 0
 242 327 222 339 199 339 c 0
 177 339 165 317 160 300 c 0
 158 294 157 293 148 293 c 0
 145 293 138 293 137 299 c 2
 137 299 143 341 191 392 c 0
 220 423 249 437 281 453 c 0
 350 489 410 539 406 626 c 0
 404 676 369 692 339 692 c 0
 252 692 203 579 205 540 c 0
 206 524 213 521 222 521 c 0
 266 521 289 584 288 602 c 0
 288 609 285 617 280 624 c 0
 279 625 279 627 279 627 c 2
 279 631 283 634 287 634 c 0
 296 634 304 613 304 602 c 0
 305 579 279 507 222 507 c 0
 189 507 184 533 183 545 c 0
 181 584 234 705 341 705 c 0
 397 705 455 673 458 604 c 0
 462 527 398 489 290 437 c 0
 268 426 217 402 184 350 c 1
 185 351 191 352 199 352 c 0
 222 352 250 347 276 342 c 0
 288 339 316 335 336 335 c 0
 385 335 411 375 420 399 c 0
 422 409 423 410 431 410 c 0
 436 410 442 410 442 404 c 0
EndSplineSet
EndChar

StartChar: three.superior
Encoding: 179 179 115
Width: 359
GlyphClass: 2
Flags: W
LayerCount: 2
Fore
SplineSet
416 428 m 0
 420 356 332 293 241 293 c 0
 180 293 144 329 142 369 c 0
 141 380 141 416 177 416 c 0
 194 416 202 407 203 397 c 0
 203 388 195 366 164 368 c 1
 168 324 205 306 241 306 c 0
 273 306 305 321 325 341 c 0
 360 377 364 437 363 447 c 0
 361 496 319 497 305 497 c 2
 285 497 l 2
 273 497 267 497 267 503 c 0
 266 516 273 516 285 516 c 2
 301 516 l 2
 420 516 422 629 421 638 c 0
 419 681 384 692 357 692 c 0
 288 692 225 636 227 588 c 0
 228 578 233 566 247 566 c 0
 268 566 290 583 289 603 c 0
 289 612 282 621 282 621 c 2
 280 624 279 627 279 627 c 2
 279 631 283 634 287 634 c 0
 295 634 304 615 305 604 c 0
 306 574 274 553 248 553 c 0
 221 553 206 570 205 591 c 0
 203 642 272 705 358 705 c 0
 414 705 463 676 465 625 c 0
 467 579 428 525 355 504 c 1
 410 483 415 439 416 428 c 0
EndSplineSet
EndChar

StartChar: acute
Encoding: 180 180 116
Width: 511
GlyphClass: 2
Flags: MW
HStem: 505 21G<340.5 345.5> 676 20G<504 517>
LayerCount: 2
Fore
SplineSet
539 668 m 0
 539 651 528 642 519 636 c 2
 358 513 l 2
 349 505 347 505 344 505 c 0
 337 505 328 514 328 522 c 0
 328 525 328 527 338 537 c 2
 480 679 l 2
 489 688 497 696 511 696 c 0
 523 696 539 686 539 668 c 0
EndSplineSet
EndChar

StartChar: uni00B5
Encoding: 181 181 117
Width: 511
GlyphClass: 2
Flags: MW
HStem: -216 21G<41.5 65.5> -11 22<211.5 251.5 424 444.5> 421 20G<195 216.5>
LayerCount: 2
Fore
SplineSet
535 143 m 0
 535 140 521 78 506 46 c 0
 496 28 477 -11 433 -11 c 0
 400 -11 362 9 352 56 c 1
 311 9 275 -11 228 -11 c 0
 195 -11 161 -1 139 18 c 1
 97 -147 102 -131 93 -164 c 0
 86 -193 80 -216 51 -216 c 0
 32 -216 23 -202 23 -190 c 0
 23 -184 25 -178 26 -173 c 2
 170 401 l 2
 173 414 180 441 210 441 c 0
 223 441 237 432 237 415 c 0
 237 410 227 373 222 352 c 2
 177 172 l 2
 173 156 165 122 165 94 c 0
 165 55 178 11 232 11 c 0
 300 11 347 85 355 117 c 2
 424 392 l 2
 427 403 433 430 463 430 c 0
 474 430 490 424 490 404 c 0
 490 399 481 362 475 341 c 0
 467 306 467 307 458 273 c 2
 428 150 l 2
 420 117 408 72 408 51 c 0
 408 29 414 11 434 11 c 0
 455 11 475 26 501 131 c 0
 506 150 507 153 520 153 c 0
 524 153 535 153 535 143 c 0
EndSplineSet
EndChar

StartChar: paragraph
Encoding: 182 182 118
Width: 611
GlyphClass: 2
Flags: MW
HStem: -194 21G<311 331 421 441> 654 40<553 623 553 553 663 713 663 663>
LayerCount: 2
Fore
SplineSet
751 674 m 0
 746 654 727 654 713 654 c 2
 663 654 l 1
 459 -161 l 2
 455 -175 451 -194 431 -194 c 0
 411 -194 415 -175 419 -161 c 2
 623 654 l 1
 553 654 l 1
 349 -161 l 2
 345 -175 341 -194 321 -194 c 0
 301 -194 305 -175 309 -161 c 2
 407 230 l 1
 280 235 133 306 172 463 c 0
 203 589 340 694 480 694 c 2
 723 694 l 2
 737 694 756 694 751 674 c 0
EndSplineSet
EndChar

StartChar: periodcentered
Encoding: 183 183 119
Width: 767
GlyphClass: 2
Flags: MW
HStem: 289 106<463 475>
LayerCount: 2
Fore
SplineSet
523 352 m 0
 523 322 492 289 458 289 c 0
 432 289 414 306 414 332 c 0
 414 365 447 395 479 395 c 0
 507 395 523 374 523 352 c 0
EndSplineSet
EndChar

StartChar: cedilla
Encoding: 184 184 120
Width: 460
GlyphClass: 2
Flags: W
LayerCount: 2
Fore
SplineSet
336 -109 m 0
 336 -192 195 -192 140 -192 c 2
 115 -192 l 2
 111 -192 102 -191 102 -181 c 0
 102 -170 111 -170 127 -170 c 2
 137 -170 l 2
 169 -170 272 -170 272 -108 c 0
 272 -94 262 -74 224 -71 c 0
 217 -70 209 -70 209 -58 c 0
 209 -54 222 -5 224 4 c 0
 226 9 227 10 249 10 c 2
 262 10 l 2
 278 10 288 10 289 3 c 2
 275 -54 l 1
 317 -62 336 -83 336 -109 c 0
EndSplineSet
EndChar

StartChar: one.superior
Encoding: 185 185 121
Width: 375
GlyphClass: 2
Flags: W
LayerCount: 2
Fore
SplineSet
376 317 m 0
 377 306 367 306 362 306 c 0
 331 306 297 308 266 308 c 0
 235 308 202 306 171 306 c 0
 169 306 161 306 160 313 c 0
 160 324 168 324 180 324 c 2
 186 324 l 2
 242 324 247 330 252 350 c 2
 323 634 l 1
 290 613 255 609 244 609 c 0
 241 609 233 609 232 617 c 0
 232 627 240 627 243 628 c 0
 264 630 314 634 367 696 c 0
 375 705 375 705 380 705 c 0
 384 705 388 703 389 698 c 2
 389 698 388 692 387 690 c 2
 301 348 l 2
 301 345 299 340 300 336 c 0
 300 328 304 327 320 326 c 0
 330 325 342 324 351 324 c 2
 357 324 l 2
 369 324 376 324 376 317 c 0
EndSplineSet
EndChar

StartChar: ordmasculine
Encoding: 186 186 122
Width: 429
GlyphClass: 2
Flags: W
LayerCount: 2
Fore
SplineSet
517 591 m 0
 522 488 419 388 314 388 c 0
 245 388 190 432 186 504 c 0
 181 606 284 705 388 705 c 0
 462 705 513 657 517 591 c 0
448 348 m 0
 446 342 439 337 430 337 c 2
 168 337 l 2
 159 337 154 342 155 348 c 0
 157 354 165 358 173 358 c 2
 436 358 l 2
 444 358 449 354 448 348 c 0
457 618 m 0
 455 659 430 690 388 690 c 0
 356 690 316 669 287 626 c 0
 262 588 244 511 246 476 c 0
 249 425 281 404 314 404 c 0
 355 404 396 435 418 474 c 0
 443 516 458 588 457 618 c 0
EndSplineSet
EndChar

StartChar: guillemotright
Encoding: 187 187 123
Width: 562
GlyphClass: 2
Flags: MW
HStem: 0 21G<138 141 141 143 291 294 294 296> 463 20G<256 258 258 261 409 411 411 414>
LayerCount: 2
Fore
SplineSet
495 242 m 0
 495 239 493 236 491 234 c 0
 416 168 352 90 304 5 c 0
 303 2 299 0 296 0 c 2
 294 0 l 2
 288 0 284 4 284 10 c 0
 284 12 284 13 285 14 c 0
 322 95 371 172 429 244 c 1
 407 316 397 393 399 474 c 0
 400 479 404 483 409 483 c 2
 411 483 l 2
 417 483 421 479 421 474 c 0
 427 390 451 313 493 247 c 0
 494 245 495 244 495 242 c 0
342 242 m 0
 342 239 340 236 338 234 c 0
 263 168 199 90 151 5 c 0
 150 2 146 0 143 0 c 2
 141 0 l 2
 135 0 131 4 131 10 c 0
 131 12 131 13 132 14 c 0
 169 95 218 172 276 244 c 1
 254 316 244 393 246 474 c 0
 247 479 251 483 256 483 c 2
 258 483 l 2
 264 483 268 479 268 474 c 0
 274 390 298 313 340 247 c 0
 341 245 342 244 342 242 c 0
EndSplineSet
Substitution2: "'cv04' Character Variants 04 in Greek lookup 22-1" guillemotright.gr
Substitution2: "'cv03' Character Variants 03 in Cyrillic lookup 20-1" guillemotright.cyr
EndChar

StartChar: onequarter
Encoding: 188 188 124
Width: 807
GlyphClass: 3
Flags: W
LayerCount: 2
Fore
SplineSet
376 317 m 0
 377 306 368 306 363 306 c 0
 331 306 298 308 266 308 c 0
 235 308 203 306 172 306 c 0
 169 306 161 306 160 313 c 0
 160 324 168 324 180 324 c 2
 186 324 l 2
 242 324 248 330 253 350 c 2
 323 634 l 1
 290 613 255 609 244 609 c 0
 241 609 232 609 232 617 c 0
 232 627 240 627 243 628 c 0
 265 630 315 634 367 696 c 0
 375 705 375 705 379 705 c 0
 384 705 389 703 389 698 c 2
 389 698 388 692 387 690 c 2
 301 348 l 2
 300 345 299 340 299 336 c 0
 300 328 304 327 321 326 c 0
 329 325 342 324 351 324 c 2
 357 324 l 2
 368 324 376 324 376 317 c 0
732 8 m 0
 732 -1 686 -9 666 -9 c 0
 661 -9 656 -9 651 -8 c 1
 629 -96 l 2
 626 -110 616 -116 603 -116 c 0
 595 -116 583 -113 582 -101 c 0
 583 -98 582 -97 585 -88 c 2
 606 1 l 1
 564 15 l 2
 539 22 524 22 511 22 c 0
 469 22 462 17 456 13 c 0
 448 8 437 1 433 1 c 0
 427 1 422 8 422 11 c 0
 421 20 444 31 449 32 c 0
 452 34 514 76 566 153 c 0
 615 223 643 295 663 370 c 0
 667 386 670 400 691 400 c 0
 698 400 711 397 711 384 c 1
 711 384 680 190 493 40 c 1
 512 40 l 2
 528 40 540 40 568 34 c 0
 588 28 558 35 612 20 c 1
 612 23 635 113 637 119 c 0
 640 130 642 145 664 145 c 0
 666 145 684 145 684 129 c 0
 685 127 685 126 682 117 c 2
 656 10 l 1
 668 10 l 2
 680 10 698 12 710 16 c 0
 718 19 721 19 721 19 c 2
 727 19 732 11 732 8 c 0
834 663 m 0
 833 659 831 656 828 653 c 2
 259 9 l 2
 254 4 247 0 239 0 c 0
 228 0 222 9 224 20 c 0
 225 24 227 28 230 31 c 2
 800 674 l 2
 805 680 812 683 819 683 c 0
 830 683 837 674 834 663 c 0
EndSplineSet
Ligature2: "'frac' Diagonal Fractions lookup 3 subtable" one fraction four
Ligature2: "'frac' Diagonal Fractions lookup 3 subtable" one slash four
EndChar

StartChar: onehalf
Encoding: 189 189 125
Width: 807
GlyphClass: 3
Flags: W
LayerCount: 2
Fore
SplineSet
376 317 m 0
 377 306 368 306 363 306 c 0
 331 306 298 308 266 308 c 0
 235 308 203 306 172 306 c 0
 169 306 161 306 160 313 c 0
 160 324 168 324 180 324 c 2
 186 324 l 2
 242 324 248 330 253 350 c 2
 323 634 l 1
 290 613 255 609 244 609 c 0
 241 609 232 609 232 617 c 0
 232 627 240 627 243 628 c 0
 265 630 315 634 367 696 c 0
 375 705 375 705 379 705 c 0
 384 705 389 703 389 698 c 2
 389 698 388 692 387 690 c 2
 301 348 l 2
 300 345 299 340 299 336 c 0
 300 328 304 327 321 326 c 0
 329 325 342 324 351 324 c 2
 357 324 l 2
 368 324 376 324 376 317 c 0
754 98 m 0
 754 91 726 -13 644 -13 c 0
 615 -13 592 0 573 11 c 0
 554 21 533 33 510 33 c 0
 488 33 477 11 472 -5 c 0
 470 -12 469 -13 460 -13 c 0
 456 -13 449 -13 448 -7 c 2
 448 -7 455 35 503 86 c 0
 531 117 561 131 592 148 c 0
 662 183 721 233 717 320 c 0
 715 370 681 386 651 386 c 0
 563 386 515 274 517 235 c 0
 518 218 525 215 534 215 c 0
 577 215 601 278 600 296 c 0
 600 303 596 311 592 318 c 0
 591 319 591 322 591 322 c 2
 590 325 594 328 598 328 c 0
 607 328 615 307 615 296 c 0
 617 274 591 202 534 202 c 0
 501 202 495 227 495 239 c 0
 493 278 546 400 652 400 c 0
 708 400 766 367 770 298 c 0
 773 221 710 184 602 131 c 0
 580 121 528 96 495 44 c 1
 496 45 503 46 511 46 c 0
 534 46 561 41 588 36 c 0
 600 34 627 29 647 29 c 0
 696 29 722 69 731 94 c 0
 733 103 734 104 743 104 c 0
 748 104 753 104 754 98 c 0
761 663 m 0
 761 659 758 656 756 653 c 2
 186 9 l 2
 181 4 174 0 167 0 c 0
 156 0 149 9 152 20 c 0
 153 24 155 28 158 31 c 2
 727 674 l 2
 732 680 739 683 746 683 c 0
 758 683 764 674 761 663 c 0
EndSplineSet
Ligature2: "'frac' Diagonal Fractions lookup 3 subtable" one fraction two
Ligature2: "'frac' Diagonal Fractions lookup 3 subtable" one slash two
EndChar

StartChar: threequarters
Encoding: 190 190 126
Width: 807
GlyphClass: 3
Flags: W
LayerCount: 2
Fore
SplineSet
462 428 m 0
 465 356 378 293 287 293 c 0
 226 293 189 329 187 369 c 0
 187 380 187 416 223 416 c 0
 240 416 249 407 249 397 c 0
 249 388 242 366 210 368 c 1
 214 324 251 306 287 306 c 0
 319 306 351 321 370 341 c 0
 406 377 409 437 409 447 c 0
 407 496 364 497 351 497 c 2
 331 497 l 2
 318 497 313 497 313 503 c 0
 312 516 318 516 331 516 c 2
 347 516 l 2
 466 516 467 629 468 638 c 0
 465 681 430 692 403 692 c 0
 333 692 271 636 273 588 c 0
 274 578 279 566 293 566 c 0
 314 566 336 583 335 603 c 0
 334 612 328 621 328 621 c 2
 326 624 326 626 325 627 c 0
 325 631 329 634 333 634 c 0
 342 634 350 615 351 604 c 0
 353 574 320 553 293 553 c 0
 267 553 253 570 251 591 c 0
 249 642 318 705 404 705 c 0
 460 705 508 676 511 625 c 0
 513 579 474 525 400 504 c 1
 456 483 461 439 462 428 c 0
732 8 m 0
 732 -1 686 -9 666 -9 c 0
 661 -9 656 -9 651 -8 c 1
 629 -96 l 2
 626 -110 616 -116 603 -116 c 0
 595 -116 583 -113 582 -101 c 0
 583 -98 582 -97 585 -88 c 2
 606 1 l 1
 564 15 l 2
 539 22 524 22 511 22 c 0
 469 22 462 17 456 13 c 0
 448 8 437 1 433 1 c 0
 427 1 422 8 422 11 c 0
 421 20 444 31 449 32 c 0
 452 34 514 76 566 153 c 0
 615 223 643 295 663 370 c 0
 667 386 670 400 691 400 c 0
 698 400 711 397 711 384 c 1
 711 384 680 190 493 40 c 1
 512 40 l 2
 528 40 540 40 568 34 c 0
 588 28 558 35 612 20 c 1
 612 23 635 113 637 119 c 0
 640 130 642 145 664 145 c 0
 666 145 684 145 684 129 c 0
 685 127 685 126 682 117 c 2
 656 10 l 1
 668 10 l 2
 680 10 698 12 710 16 c 0
 718 19 721 19 721 19 c 2
 727 19 732 11 732 8 c 0
834 663 m 0
 833 659 831 656 828 653 c 2
 259 9 l 2
 254 4 247 0 239 0 c 0
 228 0 222 9 224 20 c 0
 225 24 227 28 230 31 c 2
 800 674 l 2
 805 680 812 683 819 683 c 0
 830 683 837 674 834 663 c 0
EndSplineSet
Ligature2: "'frac' Diagonal Fractions lookup 3 subtable" three fraction four
Ligature2: "'frac' Diagonal Fractions lookup 3 subtable" three slash four
EndChar

StartChar: questiondown
Encoding: 191 191 127
Width: 511
GlyphClass: 3
Flags: MW
HStem: -216 22<182 246 182 281.5> -12 81<395 397> 291 22<315 339> 313 81<343 351> 394 106<361 373.5>
VStem: 85 35<-127.5 -70.5 -135 -44> 355 35<237.5 259.5 211.5 265>
LayerCount: 2
Fore
SplineSet
442 37 m 0xd6
 442 -6 358 -216 205 -216 c 0
 132 -216 85 -163 85 -92 c 0
 85 4 154 59 195 91 c 2
 273 154 l 2
 337 204 355 218 355 257 c 0
 355 273 348 291 330 291 c 0xae
 300 291 265 263 251 223 c 0
 247 210 246 208 234 208 c 0
 229 208 219 208 219 218 c 0
 219 241 263 313 330 313 c 0
 372 313 390 276 390 243 c 0
 390 180 346 146 321 125 c 2
 200 30 l 2
 171 6 120 -35 120 -106 c 0
 120 -164 159 -194 205 -194 c 0
 287 -194 361 -112 397 -12 c 1
 367 -12 359 6 359 20 c 0
 359 46 382 69 408 69 c 0
 421 69 442 63 442 37 c 0xd6
422 457 m 0
 422 423 389 394 358 394 c 0
 328 394 313 417 313 437 c 0
 313 468 344 500 378 500 c 0
 403 500 422 482 422 457 c 0
EndSplineSet
Ligature2: "'liga' Standard Ligatures lookup 19 subtable" question quoteleft
Ligature2: "'liga' Standard Ligatures lookup 19 subtable" question grave
Ligature2: "'dlig' Discretionary Ligatures lookup 8 subtable" question quoteleft
Ligature2: "'dlig' Discretionary Ligatures lookup 8 subtable" question grave
EndChar

StartChar: Agrave
Encoding: 192 192 128
Width: 743
GlyphClass: 2
Flags: MW
HStem: 0 31<456.5 472.5 657 676> 229 31<307 516 307 518 290 516> 696 20G<542 558> 747 21G 886 20G
VStem: 59 633<10.5 12>
AnchorPoint: "Anchor-5" 378 -25 basechar 0
AnchorPoint: "Anchor-3" 572 16 basechar 0
AnchorPoint: "Anchor-2" 583 979 basechar 0
AnchorPoint: "Anchor-1" 693 428 basechar 0
AnchorPoint: "Anchor-0" 431 311 basechar 0
LayerCount: 2
Fore
SplineSet
586 795 m 0
 582 787 569 778 562 778 c 0
 559 778 557 778 552 786 c 2
 452 909 l 2
 446 915 440 924 448 941 c 0
 457 959 478 969 490 969 c 0
 504 969 508 961 513 952 c 2
 584 810 l 2
 589 800 588 798 586 795 c 0
692 18 m 0
 692 0 680 0 674 0 c 0
 640 0 604 3 569 3 c 0
 531 3 491 0 454 0 c 0
 451 0 439 0 439 12 c 0
 439 31 451 31 462 31 c 0
 505 31 529 43 529 63 c 2
 518 229 l 1
 290 229 l 1
 218 103 l 2
 209 86 204 74 204 65 c 0
 204 34 240 32 246 31 c 0
 254 30 262 30 262 19 c 0
 262 0 249 0 244 0 c 0
 214 0 182 3 151 3 c 0
 125 3 96 0 71 0 c 0
 60 0 59 9 59 12 c 2
 59 12 60 30 71 31 c 0
 106 33 149 37 192 113 c 2
 524 698 l 2
 530.18359375 708.895507812 534 716 550 716 c 0
 566 716 567 713 568 691 c 2
 611 65 l 2
 613 39 616 31 668 31 c 0
 684 31 692 31 692 18 c 0
516 260 m 1
 493 587 l 1
 307 260 l 1
 516 260 l 1
EndSplineSet
Position2: "'cpsp' Capital Spacing lookup 0 subtable" dx=7 dy=0 dh=14 dv=0
EndChar

StartChar: Aacute
Encoding: 193 193 129
Width: 743
GlyphClass: 2
Flags: MW
HStem: 0 31<456.5 472.5 657 676> 229 31<307 516 307 518 290 516> 696 20G<542 558> 747 21G 886 20G
VStem: 59 633<10.5 12>
AnchorPoint: "Anchor-5" 378 -25 basechar 0
AnchorPoint: "Anchor-3" 572 16 basechar 0
AnchorPoint: "Anchor-2" 613 979 basechar 0
AnchorPoint: "Anchor-1" 693 428 basechar 0
AnchorPoint: "Anchor-0" 431 311 basechar 0
LayerCount: 2
Fore
SplineSet
743 924 m 0
 743 907 732 898 723 892 c 2
 562 769 l 2
 553 761 551 761 548 761 c 0
 541 761 532 770 532 778 c 0
 532 781 532 783 542 793 c 2
 684 935 l 2
 693 944 701 952 715 952 c 0
 727 952 743 942 743 924 c 0
692 18 m 0
 692 0 680 0 674 0 c 0
 640 0 604 3 569 3 c 0
 531 3 491 0 454 0 c 0
 451 0 439 0 439 12 c 0
 439 31 451 31 462 31 c 0
 505 31 529 43 529 63 c 2
 518 229 l 1
 290 229 l 1
 218 103 l 2
 209 86 204 74 204 65 c 0
 204 34 240 32 246 31 c 0
 254 30 262 30 262 19 c 0
 262 0 249 0 244 0 c 0
 214 0 182 3 151 3 c 0
 125 3 96 0 71 0 c 0
 60 0 59 9 59 12 c 2
 59 12 60 30 71 31 c 0
 106 33 149 37 192 113 c 2
 524 698 l 2
 530.18359375 708.895507812 534 716 550 716 c 0
 566 716 567 713 568 691 c 2
 611 65 l 2
 613 39 616 31 668 31 c 0
 684 31 692 31 692 18 c 0
516 260 m 1
 493 587 l 1
 307 260 l 1
 516 260 l 1
EndSplineSet
Position2: "'cpsp' Capital Spacing lookup 0 subtable" dx=7 dy=0 dh=14 dv=0
EndChar

StartChar: Acircumflex
Encoding: 194 194 130
Width: 743
GlyphClass: 2
Flags: MW
HStem: 0 31<456.5 472.5 657 676> 229 31<307 516 307 518 290 516> 696 20G<542 558>
VStem: 59 633<10.5 12>
AnchorPoint: "Anchor-5" 378 -25 basechar 0
AnchorPoint: "Anchor-3" 572 16 basechar 0
AnchorPoint: "Anchor-2" 583 979 basechar 0
AnchorPoint: "Anchor-1" 693 428 basechar 0
AnchorPoint: "Anchor-0" 431 311 basechar 0
LayerCount: 2
Fore
SplineSet
676 773 m 2
 683 763 666 749 658 757 c 2
 560 856 l 1
 412 757 l 2
 400 749 390 763 401 773 c 2
 567 917 l 2
 572 921 579 921 582 917 c 2
 676 773 l 2
692 18 m 0
 692 0 680 0 674 0 c 0
 640 0 604 3 569 3 c 0
 531 3 491 0 454 0 c 0
 451 0 439 0 439 12 c 0
 439 31 451 31 462 31 c 0
 505 31 529 43 529 63 c 2
 518 229 l 1
 290 229 l 1
 218 103 l 2
 209 86 204 74 204 65 c 0
 204 34 240 32 246 31 c 0
 254 30 262 30 262 19 c 0
 262 0 249 0 244 0 c 0
 214 0 182 3 151 3 c 0
 125 3 96 0 71 0 c 0
 60 0 59 9 59 12 c 2
 59 12 60 30 71 31 c 0
 106 33 149 37 192 113 c 2
 524 698 l 2
 530.18359375 708.895507812 534 716 550 716 c 0
 566 716 567 713 568 691 c 2
 611 65 l 2
 613 39 616 31 668 31 c 0
 684 31 692 31 692 18 c 0
516 260 m 1
 493 587 l 1
 307 260 l 1
 516 260 l 1
EndSplineSet
Position2: "'cpsp' Capital Spacing lookup 0 subtable" dx=7 dy=0 dh=14 dv=0
EndChar

StartChar: Atilde
Encoding: 195 195 131
Width: 743
GlyphClass: 2
Flags: MW
HStem: 0 31<456.5 472.5 657 676> 229 31<307 516 307 518 290 516> 696 20G<542 558> 736 35 736 100 737 100 802 35
VStem: 59 633<10.5 12>
AnchorPoint: "Anchor-5" 378 -25 basechar 0
AnchorPoint: "Anchor-3" 572 16 basechar 0
AnchorPoint: "Anchor-2" 593 919 basechar 0
AnchorPoint: "Anchor-1" 693 428 basechar 0
AnchorPoint: "Anchor-0" 431 311 basechar 0
LayerCount: 2
Fore
SplineSet
733 856 m 0x00
 733 847 651 766 605 766 c 0
 578 766 565 787 554 805 c 0
 545 820 537 832 522 832 c 0
 492 832 433 774 433 774 c 2
 428 770 425 767 420 767 c 0
 413 767 409 771 409 777 c 0
 409 788 462 831 462 831 c 2
 483 847 512 867 536 867 c 0
 563 867 575 849 590 824 c 0
 599 809 607 801 619 801 c 0
 649 801 706 855 709 859 c 0
 714 864 717 866 722 866 c 0
 728 866 733 862 733 856 c 0x00
692 18 m 0xe1
 692 0 680 0 674 0 c 0
 640 0 604 3 569 3 c 0
 531 3 491 0 454 0 c 0
 451 0 439 0 439 12 c 0
 439 31 451 31 462 31 c 0
 505 31 529 43 529 63 c 2
 518 229 l 1
 290 229 l 1
 218 103 l 2
 209 86 204 74 204 65 c 0
 204 34 240 32 246 31 c 0
 254 30 262 30 262 19 c 0
 262 0 249 0 244 0 c 0
 214 0 182 3 151 3 c 0
 125 3 96 0 71 0 c 0
 60 0 59 9 59 12 c 2
 59 12 60 30 71 31 c 0
 106 33 149 37 192 113 c 2
 524 698 l 2
 530.18359375 708.895507812 534 716 550 716 c 0
 566 716 567 713 568 691 c 2
 611 65 l 2
 613 39 616 31 668 31 c 0
 684 31 692 31 692 18 c 0xe1
516 260 m 1
 493 587 l 1
 307 260 l 1
 516 260 l 1
EndSplineSet
Position2: "'cpsp' Capital Spacing lookup 0 subtable" dx=7 dy=0 dh=14 dv=0
EndChar

StartChar: Adieresis
Encoding: 196 196 132
Width: 743
GlyphClass: 2
Flags: MW
HStem: 0 31<456.5 472.5 657 676> 229 31<307 516 307 518 290 516> 696 20G<542 558> 736 96
VStem: 59 633<10.5 12>
AnchorPoint: "Anchor-5" 378 -25 basechar 0
AnchorPoint: "Anchor-3" 572 16 basechar 0
AnchorPoint: "Anchor-2" 576 877 basechar 0
AnchorPoint: "Anchor-1" 693 428 basechar 0
AnchorPoint: "Anchor-0" 431 311 basechar 0
LayerCount: 2
Fore
SplineSet
521 806 m 0
 521 777 492 749 464 749 c 0
 437 749 423 768 423 788 c 0
 423 817 452 845 481 845 c 0
 508 845 521 825 521 806 c 0
698 806 m 0
 698 777 669 749 641 749 c 0
 614 749 600 768 600 788 c 0
 600 817 629 845 658 845 c 0
 685 845 698 825 698 806 c 0
692 18 m 0
 692 0 680 0 674 0 c 0
 640 0 604 3 569 3 c 0
 531 3 491 0 454 0 c 0
 451 0 439 0 439 12 c 0
 439 31 451 31 462 31 c 0
 505 31 529 43 529 63 c 2
 518 229 l 1
 290 229 l 1
 218 103 l 2
 209 86 204 74 204 65 c 0
 204 34 240 32 246 31 c 0
 254 30 262 30 262 19 c 0
 262 0 249 0 244 0 c 0
 214 0 182 3 151 3 c 0
 125 3 96 0 71 0 c 0
 60 0 59 9 59 12 c 2
 59 12 60 30 71 31 c 0
 106 33 149 37 192 113 c 2
 524 698 l 2
 530.18359375 708.895507812 534 716 550 716 c 0
 566 716 567 713 568 691 c 2
 611 65 l 2
 613 39 616 31 668 31 c 0
 684 31 692 31 692 18 c 0
516 260 m 1
 493 587 l 1
 307 260 l 1
 516 260 l 1
EndSplineSet
Position2: "'cpsp' Capital Spacing lookup 0 subtable" dx=7 dy=0 dh=14 dv=0
EndChar

StartChar: Aring
Encoding: 197 197 133
Width: 743
GlyphClass: 2
Flags: MW
HStem: 0 31<456.5 472.5 657 676> 229 31<307 516 307 518 290 516> 716 30<548.5 580.5 548.5 558> 862 30<565.5 602>
VStem: 59 633<10.5 12> 477 38<766.5 781 766.5 813> 631 38<826 838.5>
AnchorPoint: "Anchor-5" 378 -25 basechar 0
AnchorPoint: "Anchor-3" 572 16 basechar 0
AnchorPoint: "Anchor-2" 610 940 basechar 0
AnchorPoint: "Anchor-1" 693 428 basechar 0
AnchorPoint: "Anchor-0" 431 311 basechar 0
LayerCount: 2
Fore
SplineSet
692 18 m 0xe8
 692 0 680 0 674 0 c 0
 640 0 604 3 569 3 c 0
 531 3 491 0 454 0 c 0
 451 0 439 0 439 12 c 0
 439 31 451 31 462 31 c 0
 505 31 529 43 529 63 c 2
 518 229 l 1
 290 229 l 1
 218 103 l 2
 209 86 204 74 204 65 c 0
 204 34 240 32 246 31 c 0
 254 30 262 30 262 19 c 0
 262 0 249 0 244 0 c 0
 214 0 182 3 151 3 c 0
 125 3 96 0 71 0 c 0
 60 0 59 9 59 12 c 2
 59 12 60 30 71 31 c 0
 106 33 149 37 192 113 c 2
 524 698 l 2
 530 709 534 716 550 716 c 0
 566 716 567 713 568 691 c 2
 611 65 l 2
 613 39 616 31 668 31 c 0
 684 31 692 31 692 18 c 0xe8
516 260 m 1
 493 587 l 1
 307 260 l 1
 516 260 l 1
631 826 m 1x36
 631 851 617 862 587 862 c 0
 515 862 515 781 515 781 c 1
 515 752 538 746 559 746 c 0
 630 746 631 826 631 826 c 1x36
669 825 m 0
 669 769 610 716 551 716 c 0
 515 716 477 737 477 784 c 0
 477 842 537 892 594 892 c 0
 646 892 669 856 669 825 c 0
EndSplineSet
Position2: "'cpsp' Capital Spacing lookup 0 subtable" dx=7 dy=0 dh=14 dv=0
EndChar

StartChar: AE
Encoding: 198 198 134
Width: 883
GlyphClass: 2
Flags: MW
HStem: 0 31<359.5 367 367 390 529 620 620 691.5> 313 31<360 488 342 495 573 647> 652 31<448 924 458 476 672.5 689 689 779>
AnchorPoint: "Anchor-2" 769 749 basechar 0
LayerCount: 2
Fore
SplineSet
892 247 m 2
 892 247 889 237 888 235 c 2
 799 16 l 2
 792 1 791 0 771 0 c 2
 367 0 l 2
 351 0 342 0 342 12 c 0
 342 31 354 31 365 31 c 0
 415 31 419 38 427 69 c 2
 488 313 l 1
 342 313 l 1
 218 100 l 2
 213 91 205 75 205 64 c 0
 205 38 231 32 246 31 c 0
 254 30 262 30 262 19 c 0
 262 0 250 0 244 0 c 0
 214 0 182 3 151 3 c 0
 125 3 96 0 71 0 c 0
 62 0 59 6 59 13 c 0
 59 29 68 30 79 31 c 0
 121 35 155 48 193 113 c 2
 505 651 l 1
 497 652 485 652 476 652 c 2
 456 652 l 2
 440 652 430 652 430 664 c 0
 430 683 441 683 458 683 c 2
 924 683 l 2
 944 683 951 683 948 658 c 2
 925 481 l 2
 923 463 922 458 908 458 c 0
 904 458 892 458 892 470 c 2
 894 483 l 1
 900 552 l 2
 901 564 903 613 870 634 c 0
 849 648 812 652 779 652 c 2
 689 652 l 2
 656 652 649 652 640 616 c 2
 573 344 l 1
 649 344 l 2
 730 344 746 369 764 440 c 0
 769 458 770 461 783 461 c 0
 786 461 798 461 798 450 c 0
 798 447 797 440 796 437 c 2
 741 216 l 2
 736 197 732 196 722 196 c 0
 718 196 707 196 707 208 c 2
 707 208 707 211 709 218 c 0
 710 223 718 254 718 272 c 0
 718 298 711 313 647 313 c 2
 565 313 l 1
 502 63 l 2
 501 57 498 47 498 41 c 0
 498 34 498 31 529 31 c 2
 620 31 l 2
 763 31 798 96 850 221 c 0
 855 233 863 253 866 255 c 0
 869 258 873 258 877 258 c 0
 880 258 892 258 892 247 c 2
563 612 m 2
 564 615 565 625 565 629 c 0
 565 645 549 649 537 649 c 1
 360 344 l 1
 495 344 l 1
 563 612 l 2
EndSplineSet
Position2: "'cpsp' Capital Spacing lookup 0 subtable" dx=7 dy=0 dh=14 dv=0
EndChar

StartChar: Ccedilla
Encoding: 199 199 135
Width: 716
GlyphClass: 2
Flags: MW
HStem: -22 31<385 395 385 385> 674 31<540.5 596 468 632>
VStem: 150 87<178 238 136 362.5>
AnchorPoint: "Anchor-2" 609 749 basechar 0
LayerCount: 2
Fore
SplineSet
810 681 m 2
 749 438 l 2
 745 421 742 420 731 420 c 0
 726 420 716 420 716 430 c 0
 716 433 721 465 721 491 c 0
 721 578 685 674 579 674 c 0
 502 674 410 628 342 536 c 0
 262 426 237 269 237 207 c 0
 237 65 325 9 409 9 c 0
 492 9 617 73 668 242 c 0
 671 250 678 250 684 250 c 0
 689 250 699 250 699 240 c 0
 699 192 590 -22 395 -22 c 2
 385 -22 l 1
 377 -54 l 1
 419 -62 438 -83 438 -109 c 0
 438 -192 297 -192 242 -192 c 2
 217 -192 l 2
 213 -192 204 -191 204 -181 c 0
 204 -170 213 -170 229 -170 c 2
 239 -170 l 2
 271 -170 374 -170 374 -108 c 0
 374 -94 364 -74 326 -71 c 0
 319 -70 311 -70 311 -58 c 0
 311 -55 318 -30 322 -12 c 1
 221 18 150 111 150 245 c 0
 150 480 365 705 571 705 c 0
 621 705 679 689 722 620 c 1
 785 694 l 2
 794 705 801 705 801 705 c 1
 811 705 812 695 812 695 c 2
 812 691 811 685 810 681 c 2
EndSplineSet
Position2: "'cpsp' Capital Spacing lookup 0 subtable" dx=7 dy=0 dh=14 dv=0
EndChar

StartChar: Egrave
Encoding: 200 200 136
Width: 678
GlyphClass: 2
Flags: MW
HStem: 0 31<81 87 87 123 277 399 399 478.5> 338 31<327 406 319 408> 455 31 649 31<251 280 419.5 436 436 561> 747 21G 886 20G
VStem: 62 683
AnchorPoint: "Anchor-5" 378 -25 basechar 0
AnchorPoint: "Anchor-3" 432 2 basechar 0
AnchorPoint: "Anchor-2" 605 981 basechar 0
AnchorPoint: "Anchor-1" 793 428 basechar 0
AnchorPoint: "Anchor-0" 431 311 basechar 0
LayerCount: 2
Fore
SplineSet
592 795 m 0
 588 787 575 778 568 778 c 0
 565 778 563 778 558 786 c 2
 458 909 l 2
 452 915 446 924 454 941 c 0
 463 959 484 969 496 969 c 0
 510 969 514 961 519 952 c 2
 590 810 l 2
 595 800 594 798 592 795 c 0
687 247 m 2
 687 247 684 237 683 235 c 2
 594 16 l 2
 587 1 586 0 566 0 c 2
 87 0 l 2
 71 0 62 0 62 12 c 0
 62 31 73 31 89 31 c 0
 157 31 163 39 171 73 c 2
 305 609 l 2
 309 624 309 632 309 632 c 2
 309 641 309 649 251 649 c 0
 231 649 224 649 224 662 c 0
 224 680 234 680 251 680 c 2
 718 680 l 2
 739 680 745 680 742 654 c 2
 719 477 l 2
 717 459 716 455 702 455 c 0
 698 455 687 455 687 467 c 0
 687 470 688 479 689 484 c 0
 692 508 694 521 694 548 c 0
 694 619 669 649 561 649 c 2
 436 649 l 2
 403 649 396 648 388 615 c 2
 327 369 l 1
 408 369 l 2
 489 369 508 391 527 462 c 0
 533 483 533 486 546 486 c 0
 550 486 562 486 562 474 c 2
 562 474 560 464 559 461 c 2
 504 241 l 2
 500 223 497 221 486 221 c 0
 480 221 470 221 470 233 c 0
 470 236 472 244 472 244 c 2
 480 273 481 288 481 295 c 0
 481 322 474 338 406 338 c 2
 319 338 l 1
 250 63 l 2
 249 57 246 47 246 41 c 0
 246 34 246 31 277 31 c 2
 399 31 l 2
 558 31 593 96 651 234 c 0
 660 257 661 258 672 258 c 0
 675 258 687 258 687 247 c 2
EndSplineSet
Position2: "'cpsp' Capital Spacing lookup 0 subtable" dx=7 dy=0 dh=14 dv=0
EndChar

StartChar: Eacute
Encoding: 201 201 137
Width: 678
GlyphClass: 2
Flags: MW
HStem: 0 31<81 87 87 123 277 399 399 478.5> 338 31<327 406 319 408> 455 31 649 31<251 280 419.5 436 436 561> 747 21G 886 20G
VStem: 62 683
AnchorPoint: "Anchor-5" 378 -25 basechar 0
AnchorPoint: "Anchor-3" 432 2 basechar 0
AnchorPoint: "Anchor-2" 605 981 basechar 0
AnchorPoint: "Anchor-1" 793 428 basechar 0
AnchorPoint: "Anchor-0" 431 311 basechar 0
LayerCount: 2
Fore
SplineSet
749 924 m 0
 749 907 738 898 729 892 c 2
 568 769 l 2
 559 761 557 761 554 761 c 0
 547 761 538 770 538 778 c 0
 538 781 538 783 548 793 c 2
 690 935 l 2
 699 944 707 952 721 952 c 0
 733 952 749 942 749 924 c 0
687 247 m 2
 687 247 684 237 683 235 c 2
 594 16 l 2
 587 1 586 0 566 0 c 2
 87 0 l 2
 71 0 62 0 62 12 c 0
 62 31 73 31 89 31 c 0
 157 31 163 39 171 73 c 2
 305 609 l 2
 309 624 309 632 309 632 c 2
 309 641 309 649 251 649 c 0
 231 649 224 649 224 662 c 0
 224 680 234 680 251 680 c 2
 718 680 l 2
 739 680 745 680 742 654 c 2
 719 477 l 2
 717 459 716 455 702 455 c 0
 698 455 687 455 687 467 c 0
 687 470 688 479 689 484 c 0
 692 508 694 521 694 548 c 0
 694 619 669 649 561 649 c 2
 436 649 l 2
 403 649 396 648 388 615 c 2
 327 369 l 1
 408 369 l 2
 489 369 508 391 527 462 c 0
 533 483 533 486 546 486 c 0
 550 486 562 486 562 474 c 2
 562 474 560 464 559 461 c 2
 504 241 l 2
 500 223 497 221 486 221 c 0
 480 221 470 221 470 233 c 0
 470 236 472 244 472 244 c 2
 480 273 481 288 481 295 c 0
 481 322 474 338 406 338 c 2
 319 338 l 1
 250 63 l 2
 249 57 246 47 246 41 c 0
 246 34 246 31 277 31 c 2
 399 31 l 2
 558 31 593 96 651 234 c 0
 660 257 661 258 672 258 c 0
 675 258 687 258 687 247 c 2
EndSplineSet
Position2: "'cpsp' Capital Spacing lookup 0 subtable" dx=7 dy=0 dh=14 dv=0
EndChar

StartChar: Ecircumflex
Encoding: 202 202 138
Width: 678
GlyphClass: 2
Flags: MW
HStem: 0 31<81 87 87 123 277 399 399 478.5> 338 31<327 406 319 408> 455 31 649 31<251 280 419.5 436 436 561>
VStem: 62 683
AnchorPoint: "Anchor-5" 378 -25 basechar 0
AnchorPoint: "Anchor-3" 432 2 basechar 0
AnchorPoint: "Anchor-2" 592 962 basechar 0
AnchorPoint: "Anchor-1" 793 428 basechar 0
AnchorPoint: "Anchor-0" 431 311 basechar 0
LayerCount: 2
Fore
SplineSet
682 773 m 2
 689 763 672 749 664 757 c 2
 566 856 l 1
 418 757 l 2
 406 749 396 763 407 773 c 2
 573 917 l 2
 578 921 585 921 588 917 c 2
 682 773 l 2
687 247 m 2
 687 247 684 237 683 235 c 2
 594 16 l 2
 587 1 586 0 566 0 c 2
 87 0 l 2
 71 0 62 0 62 12 c 0
 62 31 73 31 89 31 c 0
 157 31 163 39 171 73 c 2
 305 609 l 2
 309 624 309 632 309 632 c 2
 309 641 309 649 251 649 c 0
 231 649 224 649 224 662 c 0
 224 680 234 680 251 680 c 2
 718 680 l 2
 739 680 745 680 742 654 c 2
 719 477 l 2
 717 459 716 455 702 455 c 0
 698 455 687 455 687 467 c 0
 687 470 688 479 689 484 c 0
 692 508 694 521 694 548 c 0
 694 619 669 649 561 649 c 2
 436 649 l 2
 403 649 396 648 388 615 c 2
 327 369 l 1
 408 369 l 2
 489 369 508 391 527 462 c 0
 533 483 533 486 546 486 c 0
 550 486 562 486 562 474 c 2
 562 474 560 464 559 461 c 2
 504 241 l 2
 500 223 497 221 486 221 c 0
 480 221 470 221 470 233 c 0
 470 236 472 244 472 244 c 2
 480 273 481 288 481 295 c 0
 481 322 474 338 406 338 c 2
 319 338 l 1
 250 63 l 2
 249 57 246 47 246 41 c 0
 246 34 246 31 277 31 c 2
 399 31 l 2
 558 31 593 96 651 234 c 0
 660 257 661 258 672 258 c 0
 675 258 687 258 687 247 c 2
EndSplineSet
Position2: "'cpsp' Capital Spacing lookup 0 subtable" dx=7 dy=0 dh=14 dv=0
EndChar

StartChar: Edieresis
Encoding: 203 203 139
Width: 678
GlyphClass: 2
Flags: MW
HStem: 0 31<81 87 87 123 277 399 399 478.5> 338 31<327 406 319 408> 455 31 649 31<251 280 419.5 436 436 561> 736 96
VStem: 62 683
AnchorPoint: "Anchor-5" 378 -25 basechar 0
AnchorPoint: "Anchor-3" 432 2 basechar 0
AnchorPoint: "Anchor-2" 589 885 basechar 0
AnchorPoint: "Anchor-1" 793 428 basechar 0
AnchorPoint: "Anchor-0" 431 311 basechar 0
LayerCount: 2
Fore
SplineSet
527 806 m 0
 527 777 498 749 470 749 c 0
 443 749 429 768 429 788 c 0
 429 817 458 845 487 845 c 0
 514 845 527 825 527 806 c 0
704 806 m 0
 704 777 675 749 647 749 c 0
 620 749 606 768 606 788 c 0
 606 817 635 845 664 845 c 0
 691 845 704 825 704 806 c 0
687 247 m 2
 687 247 684 237 683 235 c 2
 594 16 l 2
 587 1 586 0 566 0 c 2
 87 0 l 2
 71 0 62 0 62 12 c 0
 62 31 73 31 89 31 c 0
 157 31 163 39 171 73 c 2
 305 609 l 2
 309 624 309 632 309 632 c 2
 309 641 309 649 251 649 c 0
 231 649 224 649 224 662 c 0
 224 680 234 680 251 680 c 2
 718 680 l 2
 739 680 745 680 742 654 c 2
 719 477 l 2
 717 459 716 455 702 455 c 0
 698 455 687 455 687 467 c 0
 687 470 688 479 689 484 c 0
 692 508 694 521 694 548 c 0
 694 619 669 649 561 649 c 2
 436 649 l 2
 403 649 396 648 388 615 c 2
 327 369 l 1
 408 369 l 2
 489 369 508 391 527 462 c 0
 533 483 533 486 546 486 c 0
 550 486 562 486 562 474 c 2
 562 474 560 464 559 461 c 2
 504 241 l 2
 500 223 497 221 486 221 c 0
 480 221 470 221 470 233 c 0
 470 236 472 244 472 244 c 2
 480 273 481 288 481 295 c 0
 481 322 474 338 406 338 c 2
 319 338 l 1
 250 63 l 2
 249 57 246 47 246 41 c 0
 246 34 246 31 277 31 c 2
 399 31 l 2
 558 31 593 96 651 234 c 0
 660 257 661 258 672 258 c 0
 675 258 687 258 687 247 c 2
EndSplineSet
Position2: "'cpsp' Capital Spacing lookup 0 subtable" dx=7 dy=0 dh=14 dv=0
EndChar

StartChar: Igrave
Encoding: 204 204 140
Width: 386
GlyphClass: 2
Flags: MW
HStem: 0 31<76.5 91 298 320> 652 31<237 259.5 235.5 264 467 480.5> 747 21G 886 20G
VStem: 57 444
AnchorPoint: "Anchor-5" 192 -25 basechar 0
AnchorPoint: "Anchor-3" 237 5 basechar 0
AnchorPoint: "Anchor-2" 417 991 basechar 0
AnchorPoint: "Anchor-1" 493 428 basechar 0
AnchorPoint: "Anchor-0" 281 311 basechar 0
LayerCount: 2
Fore
SplineSet
412 795 m 0
 408 787 395 778 388 778 c 0
 385 778 383 778 378 786 c 2
 278 909 l 2
 272 915 266 924 274 941 c 0
 283 959 304 969 316 969 c 0
 330 969 334 961 339 952 c 2
 410 810 l 2
 415 800 414 798 412 795 c 0
338 19 m 0
 338 0 325 0 318 0 c 0
 278 0 235 3 194 3 c 0
 153 3 111 0 71 0 c 0
 64 0 57 2 57 13 c 0
 57 31 66 31 87 31 c 0
 154 31 163 39 171 72 c 2
 307 616 l 2
 308 619 310 632 310 635 c 0
 310 652 281 652 247 652 c 0
 227 652 220 652 220 665 c 0
 220 683 232 683 239 683 c 0
 280 683 323 680 364 680 c 0
 405 680 447 683 487 683 c 0
 491 683 501 683 501 671 c 0
 501 652 491 652 470 652 c 0
 401 652 395 643 387 611 c 2
 252 71 l 2
 248 56 248 49 248 49 c 2
 248 38 248 31 310 31 c 0
 330 31 338 31 338 19 c 0
EndSplineSet
Position2: "'cpsp' Capital Spacing lookup 0 subtable" dx=7 dy=0 dh=14 dv=0
EndChar

StartChar: Iacute
Encoding: 205 205 141
Width: 386
GlyphClass: 2
Flags: MW
HStem: 0 31<76.5 91 298 320> 652 31<237 259.5 235.5 264 467 480.5> 747 21G 886 20G
VStem: 57 444
AnchorPoint: "Anchor-5" 192 -25 basechar 0
AnchorPoint: "Anchor-3" 237 5 basechar 0
AnchorPoint: "Anchor-2" 421 981 basechar 0
AnchorPoint: "Anchor-1" 493 428 basechar 0
AnchorPoint: "Anchor-0" 281 311 basechar 0
LayerCount: 2
Fore
SplineSet
569 924 m 0
 569 907 558 898 549 892 c 2
 388 769 l 2
 379 761 377 761 374 761 c 0
 367 761 358 770 358 778 c 0
 358 781 358 783 368 793 c 2
 510 935 l 2
 519 944 527 952 541 952 c 0
 553 952 569 942 569 924 c 0
338 19 m 0
 338 0 325 0 318 0 c 0
 278 0 235 3 194 3 c 0
 153 3 111 0 71 0 c 0
 64 0 57 2 57 13 c 0
 57 31 66 31 87 31 c 0
 154 31 163 39 171 72 c 2
 307 616 l 2
 308 619 310 632 310 635 c 0
 310 652 281 652 247 652 c 0
 227 652 220 652 220 665 c 0
 220 683 232 683 239 683 c 0
 280 683 323 680 364 680 c 0
 405 680 447 683 487 683 c 0
 491 683 501 683 501 671 c 0
 501 652 491 652 470 652 c 0
 401 652 395 643 387 611 c 2
 252 71 l 2
 248 56 248 49 248 49 c 2
 248 38 248 31 310 31 c 0
 330 31 338 31 338 19 c 0
EndSplineSet
Position2: "'cpsp' Capital Spacing lookup 0 subtable" dx=7 dy=0 dh=14 dv=0
EndChar

StartChar: Icircumflex
Encoding: 206 206 142
Width: 386
GlyphClass: 2
Flags: MW
HStem: 0 31<76.5 91 298 320> 652 31<237 259.5 235.5 264 467 480.5>
VStem: 57 444
AnchorPoint: "Anchor-5" 192 -25 basechar 0
AnchorPoint: "Anchor-3" 237 5 basechar 0
AnchorPoint: "Anchor-2" 407 963 basechar 0
AnchorPoint: "Anchor-1" 493 428 basechar 0
AnchorPoint: "Anchor-0" 281 311 basechar 0
LayerCount: 2
Fore
SplineSet
502 773 m 2
 509 763 492 749 484 757 c 2
 386 856 l 1
 238 757 l 2
 226 749 216 763 227 773 c 2
 393 917 l 2
 398 921 405 921 408 917 c 2
 502 773 l 2
338 19 m 0
 338 0 325 0 318 0 c 0
 278 0 235 3 194 3 c 0
 153 3 111 0 71 0 c 0
 64 0 57 2 57 13 c 0
 57 31 66 31 87 31 c 0
 154 31 163 39 171 72 c 2
 307 616 l 2
 308 619 310 632 310 635 c 0
 310 652 281 652 247 652 c 0
 227 652 220 652 220 665 c 0
 220 683 232 683 239 683 c 0
 280 683 323 680 364 680 c 0
 405 680 447 683 487 683 c 0
 491 683 501 683 501 671 c 0
 501 652 491 652 470 652 c 0
 401 652 395 643 387 611 c 2
 252 71 l 2
 248 56 248 49 248 49 c 2
 248 38 248 31 310 31 c 0
 330 31 338 31 338 19 c 0
EndSplineSet
Position2: "'cpsp' Capital Spacing lookup 0 subtable" dx=7 dy=0 dh=14 dv=0
EndChar

StartChar: Idieresis
Encoding: 207 207 143
Width: 386
GlyphClass: 2
Flags: MW
HStem: 0 31<76.5 91 298 320> 652 31<237 259.5 235.5 264 467 480.5> 736 96
VStem: 57 444
AnchorPoint: "Anchor-5" 192 -25 basechar 0
AnchorPoint: "Anchor-3" 237 5 basechar 0
AnchorPoint: "Anchor-2" 403 869 basechar 0
AnchorPoint: "Anchor-1" 493 428 basechar 0
AnchorPoint: "Anchor-0" 281 311 basechar 0
LayerCount: 2
Fore
SplineSet
347 806 m 0
 347 777 318 749 290 749 c 0
 263 749 249 768 249 788 c 0
 249 817 278 845 307 845 c 0
 334 845 347 825 347 806 c 0
524 806 m 0
 524 777 495 749 467 749 c 0
 440 749 426 768 426 788 c 0
 426 817 455 845 484 845 c 0
 511 845 524 825 524 806 c 0
338 19 m 0
 338 0 325 0 318 0 c 0
 278 0 235 3 194 3 c 0
 153 3 111 0 71 0 c 0
 64 0 57 2 57 13 c 0
 57 31 66 31 87 31 c 0
 154 31 163 39 171 72 c 2
 307 616 l 2
 308 619 310 632 310 635 c 0
 310 652 281 652 247 652 c 0
 227 652 220 652 220 665 c 0
 220 683 232 683 239 683 c 0
 280 683 323 680 364 680 c 0
 405 680 447 683 487 683 c 0
 491 683 501 683 501 671 c 0
 501 652 491 652 470 652 c 0
 401 652 395 643 387 611 c 2
 252 71 l 2
 248 56 248 49 248 49 c 2
 248 38 248 31 310 31 c 0
 330 31 338 31 338 19 c 0
EndSplineSet
Position2: "'cpsp' Capital Spacing lookup 0 subtable" dx=7 dy=0 dh=14 dv=0
EndChar

StartChar: Eth
Encoding: 208 208 144
Width: 755
GlyphClass: 2
Flags: MW
HStem: 0 31<82 88 88 124 275 378 378 395> 327 30<137 243 148 235 321 459> 652 31<253 268.5 418.5 435 435 532>
VStem: 692 83<446.5 509.5 325.5 541.5>
AnchorPoint: "Anchor-5" 378 -25 basechar 0
AnchorPoint: "Anchor-3" 357 1 basechar 0
AnchorPoint: "Anchor-2" 559 749 basechar 0
AnchorPoint: "Anchor-1" 843 428 basechar 0
AnchorPoint: "Anchor-0" 481 311 basechar 0
LayerCount: 2
Fore
SplineSet
775 438 m 0
 775 213 584 0 395 0 c 2
 88 0 l 2
 72 0 63 0 63 12 c 0
 63 31 74 31 90 31 c 0
 158 31 164 39 172 73 c 2
 235 327 l 1
 141 327 l 2
 133 327 127 333 130 342 c 0
 132 350 140 357 148 357 c 2
 243 357 l 1
 307 616 l 2
 311 630 311 632 311 635 c 0
 311 652 284 652 253 652 c 0
 234 652 226 652 226 664 c 0
 226 683 237 683 253 683 c 2
 565 683 l 2
 694 683 775 581 775 438 c 0
692 476 m 0
 692 607 613 652 532 652 c 2
 435 652 l 2
 402 652 395 651 386 616 c 2
 321 357 l 1
 467 357 l 2
 475 357 480 350 478 342 c 0
 476 333 467 327 459 327 c 2
 314 327 l 1
 248 63 l 2
 247 57 244 47 244 41 c 0
 244 34 244 31 275 31 c 2
 378 31 l 2
 458 31 529 73 578 130 c 0
 663 230 692 417 692 476 c 0
EndSplineSet
Position2: "'cpsp' Capital Spacing lookup 0 subtable" dx=7 dy=0 dh=14 dv=0
EndChar

StartChar: Ntilde
Encoding: 209 209 145
Width: 743
GlyphClass: 2
Flags: MW
HStem: 0 31<77 81 77 90 267 271> 652 31<252 255.5 643.5 646 837 838.5> 736 35 736 100 737 100 802 35
VStem: 62 790<7.5 674>
AnchorPoint: "Anchor-5" 418 -25 basechar 0
AnchorPoint: "Anchor-2" 579 905 basechar 0
AnchorPoint: "Anchor-1" 853 428 basechar 0
AnchorPoint: "Anchor-0" 491 311 basechar 0
LayerCount: 2
Fore
SplineSet
719 856 m 0x00
 719 847 637 766 591 766 c 0
 564 766 551 787 540 805 c 0
 531 820 523 832 508 832 c 0
 478 832 419 774 419 774 c 2
 414 770 411 767 406 767 c 0
 399 767 395 771 395 777 c 0
 395 788 448 831 448 831 c 2
 469 847 498 867 522 867 c 0
 549 867 561 849 576 824 c 0
 585 809 593 801 605 801 c 0
 635 801 692 855 695 859 c 0
 700 864 703 866 708 866 c 0
 714 866 719 862 719 856 c 0x00
852 670 m 0xc2
 852 653 840 652 837 652 c 0
 808 651 752 648 736 584 c 2
 596 20 l 2
 591 1 587 0 576 0 c 0
 562 0 561 2 556 17 c 2
 341 614 l 1
 212 99 l 2
 208 83 208 77 208 74 c 0
 208 59 210 33 267 31 c 0
 279 31 286 30 286 18 c 0
 286 0 274 0 268 0 c 0
 237 0 202 3 170 3 c 0
 139 3 105 0 75 0 c 0
 68 0 62 3 62 12 c 0
 62 30 73 31 81 31 c 0
 127 33 164 46 178 101 c 2
 310 631 l 2
 313 641 313 644 313 644 c 2
 313 652 259 652 252 652 c 0
 233 652 225 652 225 664 c 0
 225 683 236 683 252 683 c 2
 377 683 l 2
 398 683 399 682 405 666 c 2
 592 146 l 1
 702 585 l 2
 704 593 706 600 706 609 c 0
 706 630 698 650 646 652 c 0
 637 652 628 653 628 664 c 0
 628 683 641 683 646 683 c 0
 677 683 711 680 743 680 c 0
 775 680 808 683 839 683 c 0
 848 683 852 678 852 670 c 0xc2
EndSplineSet
Position2: "'cpsp' Capital Spacing lookup 0 subtable" dx=7 dy=0 dh=14 dv=0
EndChar

StartChar: Ograve
Encoding: 210 210 146
Width: 767
GlyphClass: 2
Flags: MW
HStem: -22 26<339.5 422.5 339.5 478> 680 25<509.5 592> 747 21G 886 20G
VStem: 148 90<160.5 228 145.5 352> 703 85<442 526 323.5 553>
AnchorPoint: "Anchor-5" 373 -45 basechar 0
AnchorPoint: "Anchor-3" 384 -14 basechar 0
AnchorPoint: "Anchor-2" 627 995 basechar 0
AnchorPoint: "Anchor-1" 854 428 basechar 0
AnchorPoint: "Anchor-0" 492 311 basechar 0
LayerCount: 2
Fore
SplineSet
632 795 m 0
 628 787 615 778 608 778 c 0
 605 778 603 778 598 786 c 2
 498 909 l 2
 492 915 486 924 494 941 c 0
 503 959 524 969 536 969 c 0
 550 969 554 961 559 952 c 2
 630 810 l 2
 635 800 634 798 632 795 c 0
788 444 m 0
 788 203 578 -22 378 -22 c 0
 242 -22 148 85 148 236 c 0
 148 468 355 705 560 705 c 0
 686 705 788 608 788 444 c 0
703 486 m 0
 703 620 631 680 553 680 c 0
 466 680 375 607 322 513 c 0
 252 391 238 251 238 205 c 0
 238 86 294 4 385 4 c 0
 460 4 549 63 614 174 c 0
 667 265 703 398 703 486 c 0
EndSplineSet
Position2: "'cpsp' Capital Spacing lookup 0 subtable" dx=7 dy=0 dh=14 dv=0
EndChar

StartChar: Oacute
Encoding: 211 211 147
Width: 767
GlyphClass: 2
Flags: MW
HStem: -22 26<339.5 422.5 339.5 478> 680 25<509.5 592> 747 21G 886 20G
VStem: 148 90<160.5 228 145.5 352> 703 85<442 526 323.5 553>
AnchorPoint: "Anchor-5" 373 -45 basechar 0
AnchorPoint: "Anchor-3" 384 -14 basechar 0
AnchorPoint: "Anchor-2" 649 979 basechar 0
AnchorPoint: "Anchor-1" 854 428 basechar 0
AnchorPoint: "Anchor-0" 492 311 basechar 0
LayerCount: 2
Fore
SplineSet
789 924 m 0
 789 907 778 898 769 892 c 2
 608 769 l 2
 599 761 597 761 594 761 c 0
 587 761 578 770 578 778 c 0
 578 781 578 783 588 793 c 2
 730 935 l 2
 739 944 747 952 761 952 c 0
 773 952 789 942 789 924 c 0
788 444 m 0
 788 203 578 -22 378 -22 c 0
 242 -22 148 85 148 236 c 0
 148 468 355 705 560 705 c 0
 686 705 788 608 788 444 c 0
703 486 m 0
 703 620 631 680 553 680 c 0
 466 680 375 607 322 513 c 0
 252 391 238 251 238 205 c 0
 238 86 294 4 385 4 c 0
 460 4 549 63 614 174 c 0
 667 265 703 398 703 486 c 0
EndSplineSet
Position2: "'cpsp' Capital Spacing lookup 0 subtable" dx=7 dy=0 dh=14 dv=0
EndChar

StartChar: Ocircumflex
Encoding: 212 212 148
Width: 767
GlyphClass: 2
Flags: MW
HStem: -22 26<339.5 422.5 339.5 478> 680 25<509.5 592>
VStem: 148 90<160.5 228 145.5 352> 703 85<442 526 323.5 553>
AnchorPoint: "Anchor-5" 373 -45 basechar 0
AnchorPoint: "Anchor-3" 384 -14 basechar 0
AnchorPoint: "Anchor-2" 633 959 basechar 0
AnchorPoint: "Anchor-1" 854 428 basechar 0
AnchorPoint: "Anchor-0" 492 311 basechar 0
LayerCount: 2
Fore
SplineSet
722 773 m 2
 729 763 712 749 704 757 c 2
 606 856 l 1
 458 757 l 2
 446 749 436 763 447 773 c 2
 613 917 l 2
 618 921 625 921 628 917 c 2
 722 773 l 2
788 444 m 0
 788 203 578 -22 378 -22 c 0
 242 -22 148 85 148 236 c 0
 148 468 355 705 560 705 c 0
 686 705 788 608 788 444 c 0
703 486 m 0
 703 620 631 680 553 680 c 0
 466 680 375 607 322 513 c 0
 252 391 238 251 238 205 c 0
 238 86 294 4 385 4 c 0
 460 4 549 63 614 174 c 0
 667 265 703 398 703 486 c 0
EndSplineSet
Position2: "'cpsp' Capital Spacing lookup 0 subtable" dx=7 dy=0 dh=14 dv=0
EndChar

StartChar: Otilde
Encoding: 213 213 149
Width: 767
GlyphClass: 2
Flags: MW
HStem: -22 26<339.5 422.5 339.5 478> 680 25<509.5 592> 736 35 736 100 737 100 802 35
VStem: 148 90<160.5 228 145.5 352> 703 85<442 526 323.5 553>
AnchorPoint: "Anchor-5" 373 -45 basechar 0
AnchorPoint: "Anchor-3" 384 -14 basechar 0
AnchorPoint: "Anchor-2" 647 900 basechar 0
AnchorPoint: "Anchor-1" 854 428 basechar 0
AnchorPoint: "Anchor-0" 492 311 basechar 0
LayerCount: 2
Fore
SplineSet
779 856 m 0x00
 779 847 697 766 651 766 c 0
 624 766 611 787 600 805 c 0
 591 820 583 832 568 832 c 0
 538 832 479 774 479 774 c 2
 474 770 471 767 466 767 c 0
 459 767 455 771 455 777 c 0
 455 788 508 831 508 831 c 2
 529 847 558 867 582 867 c 0
 609 867 621 849 636 824 c 0
 645 809 653 801 665 801 c 0
 695 801 752 855 755 859 c 0
 760 864 763 866 768 866 c 0
 774 866 779 862 779 856 c 0x00
788 444 m 0xc3
 788 203 578 -22 378 -22 c 0
 242 -22 148 85 148 236 c 0
 148 468 355 705 560 705 c 0
 686 705 788 608 788 444 c 0xc3
703 486 m 0
 703 620 631 680 553 680 c 0
 466 680 375 607 322 513 c 0
 252 391 238 251 238 205 c 0
 238 86 294 4 385 4 c 0
 460 4 549 63 614 174 c 0
 667 265 703 398 703 486 c 0
EndSplineSet
Position2: "'cpsp' Capital Spacing lookup 0 subtable" dx=7 dy=0 dh=14 dv=0
EndChar

StartChar: Odieresis
Encoding: 214 214 150
Width: 767
GlyphClass: 2
Flags: MW
HStem: -22 26<339.5 422.5 339.5 478> 680 25<509.5 592> 736 96
VStem: 148 90<160.5 228 145.5 352> 703 85<442 526 323.5 553>
AnchorPoint: "Anchor-5" 373 -45 basechar 0
AnchorPoint: "Anchor-3" 384 -14 basechar 0
AnchorPoint: "Anchor-2" 625 871 basechar 0
AnchorPoint: "Anchor-1" 854 428 basechar 0
AnchorPoint: "Anchor-0" 492 311 basechar 0
LayerCount: 2
Fore
SplineSet
567 806 m 0
 567 777 538 749 510 749 c 0
 483 749 469 768 469 788 c 0
 469 817 498 845 527 845 c 0
 554 845 567 825 567 806 c 0
744 806 m 0
 744 777 715 749 687 749 c 0
 660 749 646 768 646 788 c 0
 646 817 675 845 704 845 c 0
 731 845 744 825 744 806 c 0
788 444 m 0
 788 203 578 -22 378 -22 c 0
 242 -22 148 85 148 236 c 0
 148 468 355 705 560 705 c 0
 686 705 788 608 788 444 c 0
703 486 m 0
 703 620 631 680 553 680 c 0
 466 680 375 607 322 513 c 0
 252 391 238 251 238 205 c 0
 238 86 294 4 385 4 c 0
 460 4 549 63 614 174 c 0
 667 265 703 398 703 486 c 0
EndSplineSet
Position2: "'cpsp' Capital Spacing lookup 0 subtable" dx=7 dy=0 dh=14 dv=0
EndChar

StartChar: multiply
Encoding: 215 215 151
Width: 767
GlyphClass: 2
Flags: W
LayerCount: 2
Fore
SplineSet
614 37 m 0
 605 30 591 27 580 34 c 0
 577 36 578 37 570 47 c 2
 439 222 l 1
 220 46 l 2
 207 36 191 23 176 34 c 0
 161 44 177 58 190 68 c 2
 418 250 l 1
 278 435 l 2
 273 441 265 452 279 464 c 0
 290 472 303 473 312 467 c 0
 315 465 315 465 322 454 c 2
 454 279 l 1
 672 454 l 2
 685 464 701 477 716 466 c 0
 731 456 715 442 702 432 c 2
 475 251 l 1
 615 66 l 2
 620 58 627 48 614 37 c 0
EndSplineSet
EndChar

StartChar: Oslash
Encoding: 216 216 152
Width: 767
GlyphClass: 2
Flags: MW
HStem: -60 21G<126 130> -22 22<356.5 423 354.5 478> 683 22<515.5 571> 723 20G<806.5 812>
VStem: 148 73<207 224.5 185.5 352> 716 72<459 490.5>
AnchorPoint: "Anchor-2" 599 749 basechar 0
LayerCount: 2
Fore
SplineSet
788 444 m 0
 788 203 578 -22 378 -22 c 0
 335 -22 276 -12 221 40 c 1
 177 -12 157 -33 151 -40 c 0
 133 -59 132 -60 128 -60 c 0
 124 -60 116 -56 116 -48 c 0
 116 -44 129 -29 137 -20 c 2
 205 59 l 1
 163 111 148 178 148 236 c 0
 148 468 355 705 560 705 c 0
 642 705 695 664 716 642 c 1
 795 734 l 2
 798 738 803 743 810 743 c 0
 814 743 822 739 822 731 c 0
 822 727 819 724 812 715 c 2
 732 623 l 1
 752 599 788 542 788 444 c 0
686 609 m 1
 648 673 588 683 554 683 c 0
 477 683 390 632 330 547 c 0
 248 429 221 255 221 194 c 0
 221 177 223 137 238 97 c 1
 686 609 l 1
716 487 m 0
 716 494 716 541 699 585 c 1
 251 73 l 1
 277 29 325 0 384 0 c 0
 462 0 548 51 606 132 c 0
 691 251 716 431 716 487 c 0
EndSplineSet
Position2: "'cpsp' Capital Spacing lookup 0 subtable" dx=7 dy=0 dh=14 dv=0
EndChar

StartChar: Ugrave
Encoding: 217 217 153
Width: 743
GlyphClass: 2
Flags: MW
HStem: -22 31<358 431 358 443.5> 652 31<242.5 263.5 241 267.5 463 476.5 646.5 649 837 838.5> 747 21G 886 20G
VStem: 202 75<106 145 88.5 171>
AnchorPoint: "Anchor-5" 379 -31 basechar 0
AnchorPoint: "Anchor-3" 380 -15 basechar 0
AnchorPoint: "Anchor-2" 615 993 basechar 0
AnchorPoint: "Anchor-1" 853 428 basechar 0
AnchorPoint: "Anchor-0" 481 311 basechar 0
LayerCount: 2
Fore
SplineSet
614 795 m 0
 610 787 597 778 590 778 c 0
 587 778 585 778 580 786 c 2
 480 909 l 2
 474 915 468 924 476 941 c 0
 485 959 506 969 518 969 c 0
 532 969 536 961 541 952 c 2
 612 810 l 2
 617 800 616 798 614 795 c 0
852 670 m 0
 852 653 840 652 837 652 c 0
 808 651 752 648 736 584 c 2
 645 218 l 2
 618 108 507 -22 380 -22 c 0
 286 -22 202 46 202 166 c 0
 202 176 202 198 210 230 c 2
 306 616 l 2
 310 630 310 632 310 635 c 0
 310 652 283 652 252 652 c 0
 233 652 225 652 225 664 c 0
 225 683 238 683 244 683 c 0
 283 683 324 680 364 680 c 0
 403 680 444 683 482 683 c 0
 489 683 496 681 496 670 c 0
 496 652 487 652 466 652 c 0
 403 652 395 644 387 612 c 2
 287 210 l 2
 282 188 277 156 277 134 c 0
 277 43 332 9 384 9 c 0
 478 9 584 100 616 229 c 2
 705 585 l 2
 707 593 709 600 709 609 c 0
 709 630 701 650 649 652 c 0
 640 652 631 653 631 664 c 0
 631 683 644 683 649 683 c 0
 680 683 713 680 745 680 c 0
 776 680 809 683 839 683 c 0
 848 683 852 678 852 670 c 0
EndSplineSet
Position2: "'cpsp' Capital Spacing lookup 0 subtable" dx=7 dy=0 dh=14 dv=0
EndChar

StartChar: Uacute
Encoding: 218 218 154
Width: 743
GlyphClass: 2
Flags: MW
HStem: -22 31<358 431 358 443.5> 652 31<242.5 263.5 241 267.5 463 476.5 646.5 649 837 838.5> 747 21G 886 20G
VStem: 202 75<106 145 88.5 171>
AnchorPoint: "Anchor-5" 379 -31 basechar 0
AnchorPoint: "Anchor-3" 380 -15 basechar 0
AnchorPoint: "Anchor-2" 631 981 basechar 0
AnchorPoint: "Anchor-1" 853 428 basechar 0
AnchorPoint: "Anchor-0" 481 311 basechar 0
LayerCount: 2
Fore
SplineSet
771 924 m 0
 771 907 760 898 751 892 c 2
 590 769 l 2
 581 761 579 761 576 761 c 0
 569 761 560 770 560 778 c 0
 560 781 560 783 570 793 c 2
 712 935 l 2
 721 944 729 952 743 952 c 0
 755 952 771 942 771 924 c 0
852 670 m 0
 852 653 840 652 837 652 c 0
 808 651 752 648 736 584 c 2
 645 218 l 2
 618 108 507 -22 380 -22 c 0
 286 -22 202 46 202 166 c 0
 202 176 202 198 210 230 c 2
 306 616 l 2
 310 630 310 632 310 635 c 0
 310 652 283 652 252 652 c 0
 233 652 225 652 225 664 c 0
 225 683 238 683 244 683 c 0
 283 683 324 680 364 680 c 0
 403 680 444 683 482 683 c 0
 489 683 496 681 496 670 c 0
 496 652 487 652 466 652 c 0
 403 652 395 644 387 612 c 2
 287 210 l 2
 282 188 277 156 277 134 c 0
 277 43 332 9 384 9 c 0
 478 9 584 100 616 229 c 2
 705 585 l 2
 707 593 709 600 709 609 c 0
 709 630 701 650 649 652 c 0
 640 652 631 653 631 664 c 0
 631 683 644 683 649 683 c 0
 680 683 713 680 745 680 c 0
 776 680 809 683 839 683 c 0
 848 683 852 678 852 670 c 0
EndSplineSet
Position2: "'cpsp' Capital Spacing lookup 0 subtable" dx=7 dy=0 dh=14 dv=0
EndChar

StartChar: Ucircumflex
Encoding: 219 219 155
Width: 743
GlyphClass: 2
Flags: MW
HStem: -22 31<358 431 358 443.5> 652 31<242.5 263.5 241 267.5 463 476.5 646.5 649 837 838.5>
VStem: 202 75<106 145 88.5 171>
AnchorPoint: "Anchor-5" 379 -31 basechar 0
AnchorPoint: "Anchor-3" 380 -15 basechar 0
AnchorPoint: "Anchor-2" 613 953 basechar 0
AnchorPoint: "Anchor-1" 853 428 basechar 0
AnchorPoint: "Anchor-0" 481 311 basechar 0
LayerCount: 2
Fore
SplineSet
704 773 m 2
 711 763 694 749 686 757 c 2
 588 856 l 1
 440 757 l 2
 428 749 418 763 429 773 c 2
 595 917 l 2
 600 921 607 921 610 917 c 2
 704 773 l 2
852 670 m 0
 852 653 840 652 837 652 c 0
 808 651 752 648 736 584 c 2
 645 218 l 2
 618 108 507 -22 380 -22 c 0
 286 -22 202 46 202 166 c 0
 202 176 202 198 210 230 c 2
 306 616 l 2
 310 630 310 632 310 635 c 0
 310 652 283 652 252 652 c 0
 233 652 225 652 225 664 c 0
 225 683 238 683 244 683 c 0
 283 683 324 680 364 680 c 0
 403 680 444 683 482 683 c 0
 489 683 496 681 496 670 c 0
 496 652 487 652 466 652 c 0
 403 652 395 644 387 612 c 2
 287 210 l 2
 282 188 277 156 277 134 c 0
 277 43 332 9 384 9 c 0
 478 9 584 100 616 229 c 2
 705 585 l 2
 707 593 709 600 709 609 c 0
 709 630 701 650 649 652 c 0
 640 652 631 653 631 664 c 0
 631 683 644 683 649 683 c 0
 680 683 713 680 745 680 c 0
 776 680 809 683 839 683 c 0
 848 683 852 678 852 670 c 0
EndSplineSet
Position2: "'cpsp' Capital Spacing lookup 0 subtable" dx=7 dy=0 dh=14 dv=0
EndChar

StartChar: Udieresis
Encoding: 220 220 156
Width: 743
GlyphClass: 2
Flags: MW
HStem: -22 31<358 431 358 443.5> 652 31<242.5 263.5 241 267.5 463 476.5 646.5 649 837 838.5> 736 96
VStem: 202 75<106 145 88.5 171>
AnchorPoint: "Anchor-5" 379 -31 basechar 0
AnchorPoint: "Anchor-3" 380 -15 basechar 0
AnchorPoint: "Anchor-2" 603 863 basechar 0
AnchorPoint: "Anchor-1" 853 428 basechar 0
AnchorPoint: "Anchor-0" 481 311 basechar 0
LayerCount: 2
Fore
SplineSet
549 806 m 0
 549 777 520 749 492 749 c 0
 465 749 451 768 451 788 c 0
 451 817 480 845 509 845 c 0
 536 845 549 825 549 806 c 0
726 806 m 0
 726 777 697 749 669 749 c 0
 642 749 628 768 628 788 c 0
 628 817 657 845 686 845 c 0
 713 845 726 825 726 806 c 0
852 670 m 0
 852 653 840 652 837 652 c 0
 808 651 752 648 736 584 c 2
 645 218 l 2
 618 108 507 -22 380 -22 c 0
 286 -22 202 46 202 166 c 0
 202 176 202 198 210 230 c 2
 306 616 l 2
 310 630 310 632 310 635 c 0
 310 652 283 652 252 652 c 0
 233 652 225 652 225 664 c 0
 225 683 238 683 244 683 c 0
 283 683 324 680 364 680 c 0
 403 680 444 683 482 683 c 0
 489 683 496 681 496 670 c 0
 496 652 487 652 466 652 c 0
 403 652 395 644 387 612 c 2
 287 210 l 2
 282 188 277 156 277 134 c 0
 277 43 332 9 384 9 c 0
 478 9 584 100 616 229 c 2
 705 585 l 2
 707 593 709 600 709 609 c 0
 709 630 701 650 649 652 c 0
 640 652 631 653 631 664 c 0
 631 683 644 683 649 683 c 0
 680 683 713 680 745 680 c 0
 776 680 809 683 839 683 c 0
 848 683 852 678 852 670 c 0
EndSplineSet
Position2: "'cpsp' Capital Spacing lookup 0 subtable" dx=7 dy=0 dh=14 dv=0
EndChar

StartChar: Yacute
Encoding: 221 221 157
Width: 743
GlyphClass: 2
Flags: MW
HStem: 0 31<259 266 259 274 471 491.5> 652 31<219 237.5 218 249.5 427.5 439.5> 747 21G 886 20G<693.5 708.5>
VStem: 202 672<662.5 672 662.5 673.5>
AnchorPoint: "Anchor-2" 635 981 basechar 0
LayerCount: 2
Fore
SplineSet
874 672 m 1
 874 653 864 653 855 652 c 0
 807 648 769 627 722 570 c 2
 486 283 l 2
 479 275 479 273 474 256 c 2
 443 133 l 2
 436 104 424 56 424 48 c 0
 424 31 451 31 482 31 c 0
 501 31 509 31 509 19 c 0
 509 0 496 0 490 0 c 0
 452 0 410 3 371 3 c 0
 333 3 293 0 255 0 c 0
 252 0 241 0 241 12 c 0
 241 31 252 31 266 31 c 0
 340 32 341 35 354 90 c 0
 359 109 400 268 400 273 c 0
 400 277 398 283 396 288 c 2
 290 622 l 2
 283 645 273 652 226 652 c 0
 212 652 202 652 202 664 c 0
 202 683 215 683 221 683 c 0
 254 683 291 680 325 680 c 0
 364 680 404 683 442 683 c 0
 446 683 456 683 456 671 c 0
 456 652 445 652 434 652 c 0
 421 652 378 651 378 628 c 1
 378 628 378 625 382 615 c 2
 477 315 l 1
 696 582 l 2
 698 585 721 612 721 629 c 0
 721 645 707 651 690 652 c 0
 684 652 675 653 675 664 c 0
 675 683 687 683 693 683 c 0
 723 683 755 680 786 680 c 0
 811 680 838 683 862 683 c 0
 874 683 874 672 874 672 c 1
727 873 m 0
 724 857 712 850 702 845 c 2
 522 752 l 2
 512 746 510 746 507 747 c 0
 500 748 493 758 494 766 c 0
 495 769 495 771 506 779 c 2
 671 895 l 2
 680 901 688 906 699 906 c 0
 718 906 730 892 727 873 c 0
EndSplineSet
Position2: "'cpsp' Capital Spacing lookup 0 subtable" dx=7 dy=0 dh=14 dv=0
EndChar

StartChar: Thorn
Encoding: 222 222 158
Width: 627
GlyphClass: 2
Flags: MW
HStem: 0 31<75 126.5 310 311> 178 31<283 379 379 402 275 379> 522 31<369 462 361 486> 652 31<245 246 242.5 283.5>
VStem: 556 91<371 424.5>
LayerCount: 2
Fore
SplineSet
647 409 m 0
 647 298 535 178 402 178 c 2
 275 178 l 1
 258 113 l 2
 253 91 244 55 244 49 c 0
 244 38 244 31 301 31 c 0
 321 31 329 31 329 19 c 0
 329 0 316 0 310 0 c 2
 193 3 l 1
 78 0 l 2
 72 0 64 2 64 12 c 0
 64 31 74 31 91 31 c 0
 162 31 165 40 173 74 c 2
 308 613 l 2
 309 618 312 628 312 635 c 0
 312 644 312 652 255 652 c 0
 235 652 227 652 227 664 c 0
 227 683 239 683 246 683 c 2
 363 680 l 1
 477 683 l 2
 481 683 492 683 492 671 c 0
 492 652 483 652 459 652 c 0
 402 652 395 643 389 630 c 0
 385 619 375 579 369 553 c 1
 486 553 l 2
 622 553 647 458 647 409 c 0
556 417 m 0
 556 432 554 466 534 493 c 0
 511 522 485 522 462 522 c 2
 361 522 l 1
 283 209 l 1
 379 209 l 2
 484 209 556 325 556 417 c 0
EndSplineSet
Position2: "'cpsp' Capital Spacing lookup 0 subtable" dx=7 dy=0 dh=14 dv=0
EndChar

StartChar: germandbls
Encoding: 223 223 159
Width: 537
GlyphClass: 2
Flags: MW
HStem: -205 22<34.5 68.5 34.5 94> -166 82 -11 22<340 380.5 340 393.5> 48 62 400 31<143.5 219 153 213> 683 22<388 466>
VStem: -20 84<-120 -119> 247 64<84 86.5> 394 49<323 333> 515 63<590 624>
LayerCount: 2
Fore
SplineSet
523 165 m 0
 523 90 442 -11 345 -11 c 0
 300 -11 247 11 247 63 c 0
 247 110 284 110 284 110 c 1
 300 110 311 98 311 84 c 1
 311 84 309 55 280 49 c 1
 294 12 336 11 344 11 c 0
 417 11 445 144 445 162 c 0
 445 192 427 214 419 224 c 0
 400 249 394 276 394 304 c 0
 394 362 415 386 454 424 c 0
 496 467 515 580 515 600 c 0
 515 648 491 683 441 683 c 0
 335 683 319 617 303 534 c 2
 206 37 l 2
 190 -47 143 -205 45 -205 c 0
 14 -205 -20 -186 -20 -141 c 0
 -20 -97 11 -84 30 -84 c 0
 46 -84 64 -94 64 -116 c 0
 64 -124 60 -160 15 -165 c 1
 15 -165 24 -183 45 -183 c 0
 92 -183 115 -104 140 25 c 2
 213 400 l 1
 151 400 l 2
 136 400 126 400 126 411 c 0
 126 431 137 431 153 431 c 2
 219 431 l 1
 242 548 l 2
 260 621 295 705 441 705 c 0
 522 705 578 660 578 591 c 0
 578 520 510 438 490 413 c 0
 463 381 443 357 443 335 c 0
 443 311 464 285 478 269 c 0
 495 247 523 212 523 165 c 0
EndSplineSet
EndChar

StartChar: agrave
Encoding: 224 224 160
Width: 511
GlyphClass: 2
Flags: MW
HStem: -11 22<197.5 237 411 440.5> 420 22<306.5 343 271.5 349> 505 21G 676 20G
VStem: 98 68<101.5 125 85 217>
AnchorPoint: "Anchor-5" 298 -25 basechar 0
AnchorPoint: "Anchor-3" 402 1 basechar 0
AnchorPoint: "Anchor-2" 412 715 basechar 0
AnchorPoint: "Anchor-1" 576 418 basechar 0
AnchorPoint: "Anchor-0" 284 238 basechar 0
LayerCount: 2
Fore
SplineSet
395 551 m 0
 391 543 378 534 371 534 c 0
 368 534 366 534 361 542 c 2
 261 665 l 2
 255 671 249 680 257 697 c 0
 266 715 287 725 299 725 c 0
 313 725 317 717 322 708 c 2
 393 566 l 2
 398 556 397 554 395 551 c 0
525 143 m 2
 525 143 513 83 495 45 c 0
 480 14 459 -11 422 -11 c 0
 387 -11 350 10 339 59 c 1
 299 10 255 -11 219 -11 c 0
 144 -11 98 59 98 144 c 0
 98 290 216 442 327 442 c 0
 359 442 391 426 410 383 c 1
 411 388 418 422 450 422 c 0
 460 422 477 417 477 396 c 0
 477 391 477 389 473 375 c 2
 405 103 l 2
 398 75 398 59 398 52 c 0
 398 38 398 11 424 11 c 0
 458 11 477 74 491 130 c 0
 497 152 498 153 510 153 c 0
 517 153 525 153 525 143 c 2
346 124 m 2
 393 313 l 2
 395 319 396 326 396 326 c 1
 396 368 371 420 327 420 c 0
 286 420 240 370 215 309 c 0
 197 267 166 150 166 100 c 0
 166 70 174 11 221 11 c 0
 276 11 338 92 346 124 c 2
EndSplineSet
EndChar

StartChar: aacute
Encoding: 225 225 161
Width: 511
GlyphClass: 2
Flags: MW
HStem: -11 22<197.5 237 411 440.5> 420 22<306.5 343 271.5 349> 505 21G 676 20G
VStem: 98 68<101.5 125 85 217>
AnchorPoint: "Anchor-5" 298 -25 basechar 0
AnchorPoint: "Anchor-3" 402 1 basechar 0
AnchorPoint: "Anchor-2" 392 715 basechar 0
AnchorPoint: "Anchor-1" 576 418 basechar 0
AnchorPoint: "Anchor-0" 284 238 basechar 0
LayerCount: 2
Fore
SplineSet
552 680 m 0
 552 663 541 654 532 648 c 2
 371 525 l 2
 362 517 360 517 357 517 c 0
 350 517 341 526 341 534 c 0
 341 537 341 539 351 549 c 2
 493 691 l 2
 502 700 510 708 524 708 c 0
 536 708 552 698 552 680 c 0
525 143 m 2
 525 143 513 83 495 45 c 0
 480 14 459 -11 422 -11 c 0
 387 -11 350 10 339 59 c 1
 299 10 255 -11 219 -11 c 0
 144 -11 98 59 98 144 c 0
 98 290 216 442 327 442 c 0
 359 442 391 426 410 383 c 1
 411 388 418 422 450 422 c 0
 460 422 477 417 477 396 c 0
 477 391 477 389 473 375 c 2
 405 103 l 2
 398 75 398 59 398 52 c 0
 398 38 398 11 424 11 c 0
 458 11 477 74 491 130 c 0
 497 152 498 153 510 153 c 0
 517 153 525 153 525 143 c 2
346 124 m 2
 393 313 l 2
 395 319 396 326 396 326 c 1
 396 368 371 420 327 420 c 0
 286 420 240 370 215 309 c 0
 197 267 166 150 166 100 c 0
 166 70 174 11 221 11 c 0
 276 11 338 92 346 124 c 2
EndSplineSet
EndChar

StartChar: acircumflex
Encoding: 226 226 162
Width: 511
GlyphClass: 2
Flags: MW
HStem: -11 22<197.5 237 411 440.5> 420 22<306.5 343 271.5 349>
VStem: 98 68<101.5 125 85 217>
AnchorPoint: "Anchor-5" 298 -25 basechar 0
AnchorPoint: "Anchor-3" 402 1 basechar 0
AnchorPoint: "Anchor-2" 402 715 basechar 0
AnchorPoint: "Anchor-1" 576 418 basechar 0
AnchorPoint: "Anchor-0" 284 238 basechar 0
LayerCount: 2
Fore
SplineSet
485 529 m 2
 492 519 475 505 467 513 c 2
 369 612 l 1
 221 513 l 2
 209 505 199 519 210 529 c 2
 376 673 l 2
 381 677 388 677 391 673 c 2
 485 529 l 2
525 143 m 2
 525 143 513 83 495 45 c 0
 480 14 459 -11 422 -11 c 0
 387 -11 350 10 339 59 c 1
 299 10 255 -11 219 -11 c 0
 144 -11 98 59 98 144 c 0
 98 290 216 442 327 442 c 0
 359 442 391 426 410 383 c 1
 411 388 418 422 450 422 c 0
 460 422 477 417 477 396 c 0
 477 391 477 389 473 375 c 2
 405 103 l 2
 398 75 398 59 398 52 c 0
 398 38 398 11 424 11 c 0
 458 11 477 74 491 130 c 0
 497 152 498 153 510 153 c 0
 517 153 525 153 525 143 c 2
346 124 m 2
 393 313 l 2
 395 319 396 326 396 326 c 1
 396 368 371 420 327 420 c 0
 286 420 240 370 215 309 c 0
 197 267 166 150 166 100 c 0
 166 70 174 11 221 11 c 0
 276 11 338 92 346 124 c 2
EndSplineSet
EndChar

StartChar: atilde
Encoding: 227 227 163
Width: 511
GlyphClass: 2
Flags: MW
HStem: -11 22<197.5 237 411 440.5> 420 22<306.5 343 271.5 349> 550 35 550 100 551 100 616 35
VStem: 98 68<101.5 125 85 217>
AnchorPoint: "Anchor-5" 298 -25 basechar 0
AnchorPoint: "Anchor-3" 402 1 basechar 0
AnchorPoint: "Anchor-2" 412 715 basechar 0
AnchorPoint: "Anchor-1" 576 418 basechar 0
AnchorPoint: "Anchor-0" 284 238 basechar 0
LayerCount: 2
Fore
SplineSet
542 612 m 0x00
 542 603 460 522 414 522 c 0
 387 522 374 543 363 561 c 0
 354 576 346 588 331 588 c 0
 301 588 242 530 242 530 c 2
 237 526 234 523 229 523 c 0
 222 523 218 527 218 533 c 0
 218 544 271 587 271 587 c 2
 292 603 321 623 345 623 c 0
 372 623 384 605 399 580 c 0
 408 565 416 557 428 557 c 0
 458 557 515 611 518 615 c 0
 523 620 526 622 531 622 c 0
 537 622 542 618 542 612 c 0x00
525 143 m 2xc2
 525 143 513 83 495 45 c 0
 480 14 459 -11 422 -11 c 0
 387 -11 350 10 339 59 c 1
 299 10 255 -11 219 -11 c 0
 144 -11 98 59 98 144 c 0
 98 290 216 442 327 442 c 0
 359 442 391 426 410 383 c 1
 411 388 418 422 450 422 c 0
 460 422 477 417 477 396 c 0
 477 391 477 389 473 375 c 2
 405 103 l 2
 398 75 398 59 398 52 c 0
 398 38 398 11 424 11 c 0
 458 11 477 74 491 130 c 0
 497 152 498 153 510 153 c 0
 517 153 525 153 525 143 c 2xc2
346 124 m 2
 393 313 l 2
 395 319 396 326 396 326 c 1
 396 368 371 420 327 420 c 0
 286 420 240 370 215 309 c 0
 197 267 166 150 166 100 c 0
 166 70 174 11 221 11 c 0
 276 11 338 92 346 124 c 2
EndSplineSet
EndChar

StartChar: adieresis
Encoding: 228 228 164
Width: 511
GlyphClass: 2
Flags: MW
HStem: -11 22<197.5 237 411 440.5> 420 22<306.5 343 271.5 349> 553 96
VStem: 98 68<101.5 125 85 217>
AnchorPoint: "Anchor-5" 298 -25 basechar 0
AnchorPoint: "Anchor-3" 402 1 basechar 0
AnchorPoint: "Anchor-2" 392 715 basechar 0
AnchorPoint: "Anchor-1" 576 418 basechar 0
AnchorPoint: "Anchor-0" 284 238 basechar 0
LayerCount: 2
Fore
SplineSet
330 562 m 0
 330 533 301 505 273 505 c 0
 246 505 232 524 232 544 c 0
 232 573 261 601 290 601 c 0
 317 601 330 581 330 562 c 0
507 562 m 0
 507 533 478 505 450 505 c 0
 423 505 409 524 409 544 c 0
 409 573 438 601 467 601 c 0
 494 601 507 581 507 562 c 0
525 143 m 2
 525 143 513 83 495 45 c 0
 480 14 459 -11 422 -11 c 0
 387 -11 350 10 339 59 c 1
 299 10 255 -11 219 -11 c 0
 144 -11 98 59 98 144 c 0
 98 290 216 442 327 442 c 0
 359 442 391 426 410 383 c 1
 411 388 418 422 450 422 c 0
 460 422 477 417 477 396 c 0
 477 391 477 389 473 375 c 2
 405 103 l 2
 398 75 398 59 398 52 c 0
 398 38 398 11 424 11 c 0
 458 11 477 74 491 130 c 0
 497 152 498 153 510 153 c 0
 517 153 525 153 525 143 c 2
346 124 m 2
 393 313 l 2
 395 319 396 326 396 326 c 1
 396 368 371 420 327 420 c 0
 286 420 240 370 215 309 c 0
 197 267 166 150 166 100 c 0
 166 70 174 11 221 11 c 0
 276 11 338 92 346 124 c 2
EndSplineSet
EndChar

StartChar: aring
Encoding: 229 229 165
Width: 511
GlyphClass: 2
Flags: MW
HStem: -11 22<197.5 237 411 440.5> 420 22<306.5 343 271.5 349> 529 30 675 30
VStem: 98 68<101.5 125 85 217> 314 38 468 38
AnchorPoint: "Anchor-5" 298 -25 basechar 0
AnchorPoint: "Anchor-3" 402 1 basechar 0
AnchorPoint: "Anchor-2" 424 765 basechar 0
AnchorPoint: "Anchor-1" 576 418 basechar 0
AnchorPoint: "Anchor-0" 284 238 basechar 0
LayerCount: 2
Fore
SplineSet
446 643 m 1
 446 668 432 679 402 679 c 0
 330 679 330 598 330 598 c 1
 330 569 353 563 374 563 c 0
 445 563 446 643 446 643 c 1
484 642 m 0
 484 586 425 533 366 533 c 0
 330 533 292 554 292 601 c 0
 293 659 352 709 409 709 c 0
 461 709 484 673 484 642 c 0
525 143 m 2
 525 143 513 83 495 45 c 0
 480 14 459 -11 422 -11 c 0
 387 -11 350 10 339 59 c 1
 299 10 255 -11 219 -11 c 0
 144 -11 98 59 98 144 c 0
 98 290 216 442 327 442 c 0
 359 442 391 426 410 383 c 1
 411 388 418 422 450 422 c 0
 460 422 477 417 477 396 c 0
 477 391 477 389 473 375 c 2
 405 103 l 2
 398 75 398 59 398 52 c 0
 398 38 398 11 424 11 c 0
 458 11 477 74 491 130 c 0
 497 152 498 153 510 153 c 0
 517 153 525 153 525 143 c 2
346 124 m 2
 393 313 l 2
 395 319 396 326 396 326 c 1
 396 368 371 420 327 420 c 0
 286 420 240 370 215 309 c 0
 197 267 166 150 166 100 c 0
 166 70 174 11 221 11 c 0
 276 11 338 92 346 124 c 2
EndSplineSet
EndChar

StartChar: ae
Encoding: 230 230 166
Width: 716
GlyphClass: 2
Flags: MW
HStem: -11 22<218 251 481 530.5> 231 22<450 480 480 496 444 480> 420 22<609 638.5>
VStem: 92 73<65.5 117.5 48 129.5> 681 38<350.5 375.5>
AnchorPoint: "Anchor-2" 515 505 basechar 0
LayerCount: 2
Fore
SplineSet
699 104 m 0
 699 90 622 -11 512 -11 c 0
 448 -11 414 34 401 60 c 1
 387 2 384 -11 358 -11 c 0
 350 -11 334 -7 334 12 c 0
 334 15 334 18 343 53 c 1
 342 54 l 1
 310 19 275 -11 227 -11 c 0
 156 -11 92 31 92 100 c 0
 92 159 151 316 434 415 c 1
 440 440 461 442 466 442 c 0
 475 442 490 437 490 419 c 0
 490 409 486 398 484 390 c 1
 508 409 559 442 619 442 c 0
 678 442 719 406 719 357 c 0
 719 344 716 284 642 253 c 0
 600 236 537 231 496 231 c 2
 444 231 l 1
 433 183 430 148 430 133 c 0
 430 82 449 11 513 11 c 0
 548 11 613 29 670 110 c 0
 676 117 678 120 683 120 c 0
 691 120 699 109 699 104 c 0
681 359 m 0
 681 392 659 420 618 420 c 0
 600 420 498 412 450 253 c 1
 480 253 l 2
 553 253 681 264 681 359 c 0
366 145 m 2
 427 389 l 1
 246 311 165 162 165 73 c 0
 165 23 206 11 230 11 c 0
 296 11 358 114 366 145 c 2
EndSplineSet
EndChar

StartChar: ccedilla
Encoding: 231 231 167
Width: 460
GlyphClass: 2
Flags: MW
HStem: -11 22<232 267.5 232 321> 296 79 420 22<341.5 369.5>
VStem: 110 70<104.5 140.5 85 227> 385 85<320 380.5>
AnchorPoint: "Anchor-5" 218 -235 basechar 0
AnchorPoint: "Anchor-2" 382 505 basechar 0
AnchorPoint: "Anchor-1" 506 418 basechar 0
AnchorPoint: "Anchor-0" 304 238 basechar 0
LayerCount: 2
Fore
SplineSet
106 -197 m 0
 106 -186 120 -186 132 -186 c 2
 134 -186 l 2
 199 -186 273 -177 273 -125 c 0
 273 -78 212 -98 212 -73 c 0
 212 -66 214 -64 225 -18 c 0
 230 4 233 6 256 6 c 2
 267 6 l 2
 285 6 291 3 291 -8 c 0
 291 -19 285 -38 277 -69 c 1
 305 -75 338 -89 338 -125 c 0
 338 -195 244 -208 128 -208 c 2
 124 -208 l 2
 108 -208 106 -201 106 -197 c 0
468 104 m 0
 468 89 385 -11 257 -11 c 0
 169 -11 110 55 110 154 c 0
 110 300 239 442 363 442 c 0
 427 442 470 405 470 356 c 0
 470 318 446 296 419 296 c 0
 396 296 385 312 385 328 c 1
 385 328 385 371 435 377 c 1
 420 418 375 420 364 420 c 0
 319 420 269 385 233 320 c 0
 207 272 180 167 180 114 c 0
 180 56 205 11 259 11 c 0
 276 11 365 15 439 109 c 0
 447 119 448 120 452 120 c 0
 460 120 468 109 468 104 c 0
EndSplineSet
EndChar

StartChar: egrave
Encoding: 232 232 168
Width: 460
GlyphClass: 2
Flags: MW
HStem: -11 22<226.5 267.5 226.5 321> 231 22<206 227 227 239 200 227> 420 22<357 382> 505 21G 676 20G
VStem: 114 69<119 140 101.5 252.5> 425 38<353.5 376>
AnchorPoint: "Anchor-5" 298 -25 basechar 0
AnchorPoint: "Anchor-3" 278 -6 basechar 0
AnchorPoint: "Anchor-2" 412 715 basechar 0
AnchorPoint: "Anchor-1" 496 418 basechar 0
AnchorPoint: "Anchor-0" 284 238 basechar 0
LayerCount: 2
Fore
SplineSet
425 551 m 0
 421 543 408 534 401 534 c 0
 398 534 396 534 391 542 c 2
 291 665 l 2
 285 671 279 680 287 697 c 0
 296 715 317 725 329 725 c 0
 343 725 347 717 352 708 c 2
 423 566 l 2
 428 556 427 554 425 551 c 0
468 104 m 0
 468 89 385 -11 257 -11 c 0
 162 -11 114 74 114 164 c 0
 114 341 257 442 362 442 c 0
 426 442 463 403 463 357 c 0
 463 350 463 285 384 253 c 0
 336 234 269 231 239 231 c 2
 200 231 l 1
 193 204 183 159 183 121 c 0
 183 82 194 11 259 11 c 0
 276 11 365 15 439 109 c 0
 447 119 448 120 452 120 c 0
 460 120 468 109 468 104 c 0
425 359 m 0
 425 393 402 420 362 420 c 0
 352 420 249 417 206 253 c 1
 227 253 l 2
 260 253 425 253 425 359 c 0
EndSplineSet
EndChar

StartChar: eacute
Encoding: 233 233 169
Width: 460
GlyphClass: 2
Flags: MW
HStem: -11 22<226.5 267.5 226.5 321> 231 22<206 227 227 239 200 227> 420 22<357 382> 505 21G 676 20G
VStem: 114 69<119 140 101.5 252.5> 425 38<353.5 376>
AnchorPoint: "Anchor-5" 298 -25 basechar 0
AnchorPoint: "Anchor-3" 278 -6 basechar 0
AnchorPoint: "Anchor-2" 412 715 basechar 0
AnchorPoint: "Anchor-1" 496 418 basechar 0
AnchorPoint: "Anchor-0" 284 238 basechar 0
LayerCount: 2
Fore
SplineSet
582 680 m 0
 582 663 571 654 562 648 c 2
 401 525 l 2
 392 517 390 517 387 517 c 0
 380 517 371 526 371 534 c 0
 371 537 371 539 381 549 c 2
 523 691 l 2
 532 700 540 708 554 708 c 0
 566 708 582 698 582 680 c 0
468 104 m 0
 468 89 385 -11 257 -11 c 0
 162 -11 114 74 114 164 c 0
 114 341 257 442 362 442 c 0
 426 442 463 403 463 357 c 0
 463 350 463 285 384 253 c 0
 336 234 269 231 239 231 c 2
 200 231 l 1
 193 204 183 159 183 121 c 0
 183 82 194 11 259 11 c 0
 276 11 365 15 439 109 c 0
 447 119 448 120 452 120 c 0
 460 120 468 109 468 104 c 0
425 359 m 0
 425 393 402 420 362 420 c 0
 352 420 249 417 206 253 c 1
 227 253 l 2
 260 253 425 253 425 359 c 0
EndSplineSet
EndChar

StartChar: ecircumflex
Encoding: 234 234 170
Width: 460
GlyphClass: 2
Flags: MW
HStem: -11 22<226.5 267.5 226.5 321> 231 22<206 227 227 239 200 227> 420 22<357 382>
VStem: 114 69<119 140 101.5 252.5> 425 38<353.5 376>
AnchorPoint: "Anchor-5" 298 -25 basechar 0
AnchorPoint: "Anchor-3" 278 -6 basechar 0
AnchorPoint: "Anchor-2" 432 715 basechar 0
AnchorPoint: "Anchor-1" 496 418 basechar 0
AnchorPoint: "Anchor-0" 284 238 basechar 0
LayerCount: 2
Fore
SplineSet
515 529 m 2
 522 519 505 505 497 513 c 2
 399 612 l 1
 251 513 l 2
 239 505 229 519 240 529 c 2
 406 673 l 2
 411 677 418 677 421 673 c 2
 515 529 l 2
468 104 m 0
 468 89 385 -11 257 -11 c 0
 162 -11 114 74 114 164 c 0
 114 341 257 442 362 442 c 0
 426 442 463 403 463 357 c 0
 463 350 463 285 384 253 c 0
 336 234 269 231 239 231 c 2
 200 231 l 1
 193 204 183 159 183 121 c 0
 183 82 194 11 259 11 c 0
 276 11 365 15 439 109 c 0
 447 119 448 120 452 120 c 0
 460 120 468 109 468 104 c 0
425 359 m 0
 425 393 402 420 362 420 c 0
 352 420 249 417 206 253 c 1
 227 253 l 2
 260 253 425 253 425 359 c 0
EndSplineSet
EndChar

StartChar: edieresis
Encoding: 235 235 171
Width: 460
GlyphClass: 2
Flags: MW
HStem: -11 22<226.5 267.5 226.5 321> 231 22<206 227 227 239 200 227> 420 22<357 382> 553 96
VStem: 114 69<119 140 101.5 252.5> 425 38<353.5 376>
AnchorPoint: "Anchor-5" 298 -25 basechar 0
AnchorPoint: "Anchor-3" 278 -6 basechar 0
AnchorPoint: "Anchor-2" 412 715 basechar 0
AnchorPoint: "Anchor-1" 496 418 basechar 0
AnchorPoint: "Anchor-0" 284 238 basechar 0
LayerCount: 2
Fore
SplineSet
360 562 m 0
 360 533 331 505 303 505 c 0
 276 505 262 524 262 544 c 0
 262 573 291 601 320 601 c 0
 347 601 360 581 360 562 c 0
537 562 m 0
 537 533 508 505 480 505 c 0
 453 505 439 524 439 544 c 0
 439 573 468 601 497 601 c 0
 524 601 537 581 537 562 c 0
468 104 m 0
 468 89 385 -11 257 -11 c 0
 162 -11 114 74 114 164 c 0
 114 341 257 442 362 442 c 0
 426 442 463 403 463 357 c 0
 463 350 463 285 384 253 c 0
 336 234 269 231 239 231 c 2
 200 231 l 1
 193 204 183 159 183 121 c 0
 183 82 194 11 259 11 c 0
 276 11 365 15 439 109 c 0
 447 119 448 120 452 120 c 0
 460 120 468 109 468 104 c 0
425 359 m 0
 425 393 402 420 362 420 c 0
 352 420 249 417 206 253 c 1
 227 253 l 2
 260 253 425 253 425 359 c 0
EndSplineSet
EndChar

StartChar: igrave
Encoding: 236 236 172
Width: 307
GlyphClass: 2
Flags: MW
HStem: -11 22<202 235 202 251> 420 22<180 214.5> 505 21G 676 20G
VStem: 128 56<49.5 52 25.5 79> 231 55<380 389.5 352.5 403.5>
AnchorPoint: "Anchor-5" 178 -25 basechar 0
AnchorPoint: "Anchor-3" 183 0 basechar 0
AnchorPoint: "Anchor-2" 328 725 basechar 0
AnchorPoint: "Anchor-1" 416 416 basechar 0
AnchorPoint: "Anchor-0" 220 228 basechar 0
LayerCount: 2
Fore
SplineSet
305 551 m 0
 301 543 288 534 281 534 c 0
 278 534 276 534 271 542 c 2
 171 665 l 2
 165 671 159 680 167 697 c 0
 176 715 197 725 209 725 c 0
 223 725 227 717 232 708 c 2
 303 566 l 2
 308 556 307 554 305 551 c 0
331 143 m 0
 331 139 298 -11 204 -11 c 0
 152 -11 128 30 128 69 c 0
 128 89 132 100 146 138 c 2
 183 237 l 1
 213 320 l 2
 220 339 231 368 231 392 c 0
 231 415 220 420 209 420 c 0
 151 420 125 327 116 294 c 0
 112 280 111 278 98 278 c 0
 93 278 83 278 83 288 c 0
 83 293 117 442 211 442 c 0
 248 442 286 417 286 362 c 0
 286 343 284 335 274 306 c 2
 210 135 l 2
 197 98 184 65 184 39 c 0
 184 12 198 11 206 11 c 0
 264 11 291 107 299 136 c 0
 303 151 303 153 316 153 c 0
 323 153 331 153 331 143 c 0
EndSplineSet
EndChar

StartChar: iacute
Encoding: 237 237 173
Width: 307
GlyphClass: 2
Flags: MW
HStem: -11 22<202 235 202 251> 420 22<180 214.5> 505 21G 676 20G
VStem: 128 56<49.5 52 25.5 79> 231 55<380 389.5 352.5 403.5>
AnchorPoint: "Anchor-5" 178 -25 basechar 0
AnchorPoint: "Anchor-3" 183 0 basechar 0
AnchorPoint: "Anchor-2" 328 725 basechar 0
AnchorPoint: "Anchor-1" 416 416 basechar 0
AnchorPoint: "Anchor-0" 220 228 basechar 0
LayerCount: 2
Fore
SplineSet
462 680 m 0
 462 663 451 654 442 648 c 2
 281 525 l 2
 272 517 270 517 267 517 c 0
 260 517 251 526 251 534 c 0
 251 537 251 539 261 549 c 2
 403 691 l 2
 412 700 420 708 434 708 c 0
 446 708 462 698 462 680 c 0
331 143 m 0
 331 139 298 -11 204 -11 c 0
 152 -11 128 30 128 69 c 0
 128 89 132 100 146 138 c 2
 183 237 l 1
 213 320 l 2
 220 339 231 368 231 392 c 0
 231 415 220 420 209 420 c 0
 151 420 125 327 116 294 c 0
 112 280 111 278 98 278 c 0
 93 278 83 278 83 288 c 0
 83 293 117 442 211 442 c 0
 248 442 286 417 286 362 c 0
 286 343 284 335 274 306 c 2
 210 135 l 2
 197 98 184 65 184 39 c 0
 184 12 198 11 206 11 c 0
 264 11 291 107 299 136 c 0
 303 151 303 153 316 153 c 0
 323 153 331 153 331 143 c 0
EndSplineSet
EndChar

StartChar: icircumflex
Encoding: 238 238 174
Width: 307
GlyphClass: 2
Flags: MW
HStem: -11 22<202 235 202 251> 420 22<180 214.5>
VStem: 128 56<49.5 52 25.5 79> 231 55<380 389.5 352.5 403.5>
AnchorPoint: "Anchor-5" 178 -25 basechar 0
AnchorPoint: "Anchor-3" 183 0 basechar 0
AnchorPoint: "Anchor-2" 302 725 basechar 0
AnchorPoint: "Anchor-1" 416 416 basechar 0
AnchorPoint: "Anchor-0" 220 228 basechar 0
LayerCount: 2
Fore
SplineSet
395 529 m 2
 402 519 385 505 377 513 c 2
 279 612 l 1
 131 513 l 2
 119 505 109 519 120 529 c 2
 286 673 l 2
 291 677 298 677 301 673 c 2
 395 529 l 2
331 143 m 0
 331 139 298 -11 204 -11 c 0
 152 -11 128 30 128 69 c 0
 128 89 132 100 146 138 c 2
 183 237 l 1
 213 320 l 2
 220 339 231 368 231 392 c 0
 231 415 220 420 209 420 c 0
 151 420 125 327 116 294 c 0
 112 280 111 278 98 278 c 0
 93 278 83 278 83 288 c 0
 83 293 117 442 211 442 c 0
 248 442 286 417 286 362 c 0
 286 343 284 335 274 306 c 2
 210 135 l 2
 197 98 184 65 184 39 c 0
 184 12 198 11 206 11 c 0
 264 11 291 107 299 136 c 0
 303 151 303 153 316 153 c 0
 323 153 331 153 331 143 c 0
EndSplineSet
EndChar

StartChar: idieresis
Encoding: 239 239 175
Width: 307
GlyphClass: 2
Flags: MW
HStem: -11 22<202 235 202 251> 420 22<180 214.5> 553 96
VStem: 128 56<49.5 52 25.5 79> 231 55<380 389.5 352.5 403.5>
AnchorPoint: "Anchor-5" 178 -25 basechar 0
AnchorPoint: "Anchor-3" 183 0 basechar 0
AnchorPoint: "Anchor-2" 303 635 basechar 0
AnchorPoint: "Anchor-1" 416 416 basechar 0
AnchorPoint: "Anchor-0" 220 228 basechar 0
LayerCount: 2
Fore
SplineSet
240 562 m 0
 240 533 211 505 183 505 c 0
 156 505 142 524 142 544 c 0
 142 573 171 601 200 601 c 0
 227 601 240 581 240 562 c 0
417 562 m 0
 417 533 388 505 360 505 c 0
 333 505 319 524 319 544 c 0
 319 573 348 601 377 601 c 0
 404 601 417 581 417 562 c 0
331 143 m 0
 331 139 298 -11 204 -11 c 0
 152 -11 128 30 128 69 c 0
 128 89 132 100 146 138 c 2
 183 237 l 1
 213 320 l 2
 220 339 231 368 231 392 c 0
 231 415 220 420 209 420 c 0
 151 420 125 327 116 294 c 0
 112 280 111 278 98 278 c 0
 93 278 83 278 83 288 c 0
 83 293 117 442 211 442 c 0
 248 442 286 417 286 362 c 0
 286 343 284 335 274 306 c 2
 210 135 l 2
 197 98 184 65 184 39 c 0
 184 12 198 11 206 11 c 0
 264 11 291 107 299 136 c 0
 303 151 303 153 316 153 c 0
 323 153 331 153 331 143 c 0
EndSplineSet
EndChar

StartChar: eth
Encoding: 240 240 176
Width: 511
GlyphClass: 2
Flags: MW
HStem: -11 25<235 280.5 235 298.5> 425 22<340 387>
VStem: 97 70<99 141 83 227.5> 449 86<342 344>
LayerCount: 2
Fore
SplineSet
535 357 m 0
 535 327 530 205 467 112 c 0
 426 53 344 -11 253 -11 c 0
 172 -11 97 44 97 154 c 0
 97 301 236 447 365 447 c 0
 418 447 444 412 454 394 c 1
 448 473 420 543 371 596 c 1
 276 548 l 2
 273 547 270 546 267 546 c 0
 259 546 254 552 254 559 c 0
 254 566 258 573 267 577 c 2
 349 619 l 1
 329 638 305 654 279 667 c 0
 274 670 271 674 271 679 c 0
 271 687 279 696 286 694 c 0
 327 682 364 665 396 642 c 1
 490 690 l 2
 493 691 496 692 499 692 c 0
 507 692 512 686 512 679 c 0
 512 673 508 665 499 661 c 2
 422 622 l 1
 494 559 535 465 535 357 c 0
449 306 m 0
 449 382 413 425 361 425 c 0
 319 425 260 398 221 329 c 0
 194 279 167 163 167 119 c 0
 167 47 211 14 259 14 c 0
 302 14 360 41 399 110 c 0
 426 160 449 255 449 306 c 0
EndSplineSet
EndChar

StartChar: ntilde
Encoding: 241 241 177
Width: 562
GlyphClass: 2
Flags: MW
HStem: -11 22<450.5 490 450.5 505.5> 420 22<169.5 198 373 433> 550 35 550 100 551 100 616 35
VStem: 383 56<47 52.5 33 79.5> 457 61<323 364.5>
AnchorPoint: "Anchor-5" 318 -25 basechar 0
AnchorPoint: "Anchor-2" 422 650 basechar 0
AnchorPoint: "Anchor-1" 596 416 basechar 0
AnchorPoint: "Anchor-0" 330 228 basechar 0
LayerCount: 2
Fore
SplineSet
562 612 m 0x00
 562 603 480 522 434 522 c 0
 407 522 394 543 383 561 c 0
 374 576 366 588 351 588 c 0
 321 588 262 530 262 530 c 2
 257 526 254 523 249 523 c 0
 242 523 238 527 238 533 c 0
 238 544 291 587 291 587 c 2
 312 603 341 623 365 623 c 0
 392 623 404 605 419 580 c 0
 428 565 436 557 448 557 c 0
 478 557 535 611 538 615 c 0
 543 620 546 622 551 622 c 0
 557 622 562 618 562 612 c 0x00
586 143 m 0xc3
 586 138 552 -11 459 -11 c 0
 411 -11 383 25 383 69 c 0
 383 90 386 99 399 133 c 0
 413 173 457 292 457 354 c 0
 457 375 455 420 411 420 c 0
 335 420 290 345 276 321 c 0
 259 292 259 291 246 240 c 0
 241 218 235 197 230 175 c 2
 190 15 l 2
 183 -4 166 -11 154 -11 c 0
 134 -11 126 4 126 15 c 0
 126 18 127 23 129 29 c 2
 204 329 l 2
 208 345 211 364 211 380 c 0
 211 391 211 420 185 420 c 0
 154 420 135 371 117 301 c 0
 112 279 111 278 98 278 c 0
 93 278 83 278 83 288 c 2
 83 288 96 349 115 389 c 0
 131 419 151 442 187 442 c 0
 230 442 264 412 271 363 c 1
 284 382 332 442 414 442 c 0
 463 442 518 420 518 338 c 0
 518 280 477 168 457 115 c 0
 449 91 439 65 439 40 c 0
 439 26 440 11 461 11 c 0
 519 11 546 109 554 136 c 0
 558 151 558 153 571 153 c 0
 578 153 586 153 586 143 c 0xc3
EndSplineSet
EndChar

StartChar: ograve
Encoding: 242 242 178
Width: 511
GlyphClass: 2
Flags: MW
HStem: -11 22<236.5 280.5 236.5 318> 420 22<342.5 386.5> 505 21G 676 20G
VStem: 110 70<102.5 139 78 227> 439 70<295.5 325.5 204.5 346.5>
AnchorPoint: "Anchor-5" 256 -24 basechar 0
AnchorPoint: "Anchor-3" 256 -6 basechar 0
AnchorPoint: "Anchor-2" 456 749 basechar 0
AnchorPoint: "Anchor-1" 576 416 basechar 0
AnchorPoint: "Anchor-0" 310 228 basechar 0
LayerCount: 2
Fore
SplineSet
445 551 m 0
 441 543 428 534 421 534 c 0
 418 534 416 534 411 542 c 2
 311 665 l 2
 305 671 299 680 307 697 c 0
 316 715 337 725 349 725 c 0
 363 725 367 717 372 708 c 2
 443 566 l 2
 448 556 447 554 445 551 c 0
509 278 m 0
 509 131 380 -11 256 -11 c 0
 173 -11 110 51 110 154 c 0
 110 300 239 442 363 442 c 0
 450 442 509 373 509 278 c 0
439 317 m 0
 439 376 411 420 362 420 c 0
 323 420 275 390 238 329 c 0
 206 275 180 164 180 114 c 0
 180 42 217 11 256 11 c 0
 305 11 356 56 385 111 c 0
 417 171 439 274 439 317 c 0
EndSplineSet
EndChar

StartChar: oacute
Encoding: 243 243 179
Width: 511
GlyphClass: 2
Flags: MW
HStem: -11 22<236.5 280.5 236.5 318> 420 22<342.5 386.5> 505 21G 676 20G
VStem: 110 70<102.5 139 78 227> 439 70<295.5 325.5 204.5 346.5>
AnchorPoint: "Anchor-5" 256 -24 basechar 0
AnchorPoint: "Anchor-3" 256 -6 basechar 0
AnchorPoint: "Anchor-2" 466 733 basechar 0
AnchorPoint: "Anchor-1" 576 416 basechar 0
AnchorPoint: "Anchor-0" 310 228 basechar 0
LayerCount: 2
Fore
SplineSet
602 680 m 0
 602 663 591 654 582 648 c 2
 421 525 l 2
 412 517 410 517 407 517 c 0
 400 517 391 526 391 534 c 0
 391 537 391 539 401 549 c 2
 543 691 l 2
 552 700 560 708 574 708 c 0
 586 708 602 698 602 680 c 0
509 278 m 0
 509 131 380 -11 256 -11 c 0
 173 -11 110 51 110 154 c 0
 110 300 239 442 363 442 c 0
 450 442 509 373 509 278 c 0
439 317 m 0
 439 376 411 420 362 420 c 0
 323 420 275 390 238 329 c 0
 206 275 180 164 180 114 c 0
 180 42 217 11 256 11 c 0
 305 11 356 56 385 111 c 0
 417 171 439 274 439 317 c 0
EndSplineSet
EndChar

StartChar: ocircumflex
Encoding: 244 244 180
Width: 511
GlyphClass: 2
Flags: MW
HStem: -11 22<236.5 280.5 236.5 318> 420 22<342.5 386.5>
VStem: 110 70<102.5 139 78 227> 439 70<295.5 325.5 204.5 346.5>
AnchorPoint: "Anchor-5" 256 -24 basechar 0
AnchorPoint: "Anchor-3" 256 -6 basechar 0
AnchorPoint: "Anchor-2" 448 709 basechar 0
AnchorPoint: "Anchor-1" 576 416 basechar 0
AnchorPoint: "Anchor-0" 310 228 basechar 0
LayerCount: 2
Fore
SplineSet
535 529 m 2
 542 519 525 505 517 513 c 2
 419 612 l 1
 271 513 l 2
 259 505 249 519 260 529 c 2
 426 673 l 2
 431 677 438 677 441 673 c 2
 535 529 l 2
509 278 m 0
 509 131 380 -11 256 -11 c 0
 173 -11 110 51 110 154 c 0
 110 300 239 442 363 442 c 0
 450 442 509 373 509 278 c 0
439 317 m 0
 439 376 411 420 362 420 c 0
 323 420 275 390 238 329 c 0
 206 275 180 164 180 114 c 0
 180 42 217 11 256 11 c 0
 305 11 356 56 385 111 c 0
 417 171 439 274 439 317 c 0
EndSplineSet
EndChar

StartChar: otilde
Encoding: 245 245 181
Width: 511
GlyphClass: 2
Flags: MW
HStem: -11 22<236.5 280.5 236.5 318> 420 22<342.5 386.5> 550 35 550 100 551 100 616 35
VStem: 110 70<102.5 139 78 227> 439 70<295.5 325.5 204.5 346.5>
AnchorPoint: "Anchor-5" 256 -24 basechar 0
AnchorPoint: "Anchor-3" 256 -6 basechar 0
AnchorPoint: "Anchor-2" 457 651 basechar 0
AnchorPoint: "Anchor-1" 576 416 basechar 0
AnchorPoint: "Anchor-0" 310 228 basechar 0
LayerCount: 2
Fore
SplineSet
592 612 m 0x00
 592 603 510 522 464 522 c 0
 437 522 424 543 413 561 c 0
 404 576 396 588 381 588 c 0
 351 588 292 530 292 530 c 2
 287 526 284 523 279 523 c 0
 272 523 268 527 268 533 c 0
 268 544 321 587 321 587 c 2
 342 603 371 623 395 623 c 0
 422 623 434 605 449 580 c 0
 458 565 466 557 478 557 c 0
 508 557 565 611 568 615 c 0
 573 620 576 622 581 622 c 0
 587 622 592 618 592 612 c 0x00
509 278 m 0xc3
 509 131 380 -11 256 -11 c 0
 173 -11 110 51 110 154 c 0
 110 300 239 442 363 442 c 0
 450 442 509 373 509 278 c 0xc3
439 317 m 0
 439 376 411 420 362 420 c 0
 323 420 275 390 238 329 c 0
 206 275 180 164 180 114 c 0
 180 42 217 11 256 11 c 0
 305 11 356 56 385 111 c 0
 417 171 439 274 439 317 c 0
EndSplineSet
EndChar

StartChar: odieresis
Encoding: 246 246 182
Width: 511
GlyphClass: 2
Flags: MW
HStem: -11 22<236.5 280.5 236.5 318> 420 22<342.5 386.5> 553 96
VStem: 110 70<102.5 139 78 227> 439 70<295.5 325.5 204.5 346.5>
AnchorPoint: "Anchor-5" 256 -24 basechar 0
AnchorPoint: "Anchor-3" 256 -6 basechar 0
AnchorPoint: "Anchor-2" 442 637 basechar 0
AnchorPoint: "Anchor-1" 576 416 basechar 0
AnchorPoint: "Anchor-0" 310 228 basechar 0
LayerCount: 2
Fore
SplineSet
380 562 m 0
 380 533 351 505 323 505 c 0
 296 505 282 524 282 544 c 0
 282 573 311 601 340 601 c 0
 367 601 380 581 380 562 c 0
557 562 m 0
 557 533 528 505 500 505 c 0
 473 505 459 524 459 544 c 0
 459 573 488 601 517 601 c 0
 544 601 557 581 557 562 c 0
509 278 m 0
 509 131 380 -11 256 -11 c 0
 173 -11 110 51 110 154 c 0
 110 300 239 442 363 442 c 0
 450 442 509 373 509 278 c 0
439 317 m 0
 439 376 411 420 362 420 c 0
 323 420 275 390 238 329 c 0
 206 275 180 164 180 114 c 0
 180 42 217 11 256 11 c 0
 305 11 356 56 385 111 c 0
 417 171 439 274 439 317 c 0
EndSplineSet
EndChar

StartChar: divide
Encoding: 247 247 183
Width: 767
GlyphClass: 2
Flags: MW
HStem: 40 106<401 413> 230 40<166 719 173 719> 354 106<480 492>
CounterMasks: 1 e0
LayerCount: 2
Fore
SplineSet
752 250 m 0
 752 230 734 230 719 230 c 2
 173 230 l 2
 159 230 139 230 139 250 c 0
 139 270 159 270 173 270 c 2
 719 270 l 2
 734 270 752 270 752 250 c 0
540 417 m 0
 540 387 509 354 475 354 c 0
 449 354 431 371 431 397 c 0
 431 430 464 460 496 460 c 0
 524 460 540 439 540 417 c 0
461 103 m 0
 461 73 430 40 396 40 c 0
 370 40 352 57 352 83 c 0
 352 116 385 146 417 146 c 0
 445 146 461 125 461 103 c 0
EndSplineSet
EndChar

StartChar: oslash
Encoding: 248 248 184
Width: 511
GlyphClass: 2
Flags: MW
HStem: -107 21G<76 81> -12 22<250 314.5 250 315.5> 421 22<305 368.5> 518 20G<538.5 542.5>
VStem: 116 59<132 176.5 117 221.5> 444 58<256 310 206 315.5>
AnchorPoint: "Anchor-2" 390 552 basechar 0
LayerCount: 2
Fore
SplineSet
502 281 m 0
 502 131 376 -12 255 -12 c 0
 226 -12 198 -4 174 14 c 1
 130 -45 130 -47 102 -85 c 0
 84 -106 83 -107 79 -107 c 0
 73 -107 68 -103 68 -97 c 0
 68 -94 68 -92 76 -83 c 2
 158 29 l 1
 126 65 116 114 116 150 c 0
 116 293 238 443 364 443 c 0
 392 443 420 435 445 417 c 1
 526 528 l 2
 534 538 537 538 540 538 c 0
 545 538 550 534 550 528 c 2
 550 528 550 524 542 513 c 2
 461 402 l 1
 483 377 502 339 502 281 c 0
423 389 m 1
 402 421 374 421 363 421 c 0
 247 421 175 232 175 121 c 0
 175 113 175 86 183 64 c 1
 423 389 l 1
444 311 m 0
 444 320 444 343 435 367 c 1
 195 42 l 1
 218 10 244 10 256 10 c 0
 373 10 444 201 444 311 c 0
EndSplineSet
EndChar

StartChar: ugrave
Encoding: 249 249 185
Width: 537
GlyphClass: 2
Flags: MW
HStem: -11 22<247.5 292 247.5 293.5 448.5 476.5> 420 22<180 214.5> 505 21G 676 20G
VStem: 155 61<71.5 118.5 71.5 131> 231 56<379 386 351.5 404>
AnchorPoint: "Anchor-5" 328 -25 basechar 0
AnchorPoint: "Anchor-3" 464 -4 basechar 0
AnchorPoint: "Anchor-2" 402 745 basechar 0
AnchorPoint: "Anchor-1" 596 416 basechar 0
AnchorPoint: "Anchor-0" 330 228 basechar 0
LayerCount: 2
Fore
SplineSet
405 551 m 0
 401 543 388 534 381 534 c 0
 378 534 376 534 371 542 c 2
 271 665 l 2
 265 671 259 680 267 697 c 0
 276 715 297 725 309 725 c 0
 323 725 327 717 332 708 c 2
 403 566 l 2
 408 556 407 554 405 551 c 0
561 143 m 2
 561 143 549 83 531 45 c 0
 516 14 495 -11 458 -11 c 0
 439 -11 396 -5 378 49 c 1
 354 19 320 -11 267 -11 c 0
 213 -11 155 18 155 105 c 0
 155 157 181 231 207 301 c 0
 221 340 231 367 231 391 c 0
 231 417 220 420 209 420 c 0
 151 420 124 325 116 294 c 0
 112 280 111 278 98 278 c 0
 93 278 83 278 83 288 c 0
 83 294 118 442 211 442 c 0
 254 442 287 411 287 361 c 0
 287 342 282 328 274 307 c 0
 249 239 216 149 216 88 c 0
 216 55 225 11 270 11 c 0
 314 11 343 41 362 69 c 0
 371 82 371 84 376 102 c 2
 449 394 l 2
 451 402 458 431 488 431 c 0
 508 431 516 416 516 405 c 0
 516 402 515 397 513 391 c 2
 441 103 l 2
 434 75 434 59 434 52 c 0
 434 38 434 11 460 11 c 0
 494 11 513 74 527 130 c 0
 533 152 534 153 546 153 c 0
 553 153 561 153 561 143 c 2
EndSplineSet
EndChar

StartChar: uacute
Encoding: 250 250 186
Width: 537
GlyphClass: 2
Flags: MW
HStem: -11 22<247.5 292 247.5 293.5 448.5 476.5> 420 22<180 214.5> 505 21G 676 20G
VStem: 155 61<71.5 118.5 71.5 131> 231 56<379 386 351.5 404>
AnchorPoint: "Anchor-5" 328 -25 basechar 0
AnchorPoint: "Anchor-3" 464 -4 basechar 0
AnchorPoint: "Anchor-2" 422 729 basechar 0
AnchorPoint: "Anchor-1" 596 416 basechar 0
AnchorPoint: "Anchor-0" 330 228 basechar 0
LayerCount: 2
Fore
SplineSet
562 680 m 0
 562 663 551 654 542 648 c 2
 381 525 l 2
 372 517 370 517 367 517 c 0
 360 517 351 526 351 534 c 0
 351 537 351 539 361 549 c 2
 503 691 l 2
 512 700 520 708 534 708 c 0
 546 708 562 698 562 680 c 0
561 143 m 2
 561 143 549 83 531 45 c 0
 516 14 495 -11 458 -11 c 0
 439 -11 396 -5 378 49 c 1
 354 19 320 -11 267 -11 c 0
 213 -11 155 18 155 105 c 0
 155 157 181 231 207 301 c 0
 221 340 231 367 231 391 c 0
 231 417 220 420 209 420 c 0
 151 420 124 325 116 294 c 0
 112 280 111 278 98 278 c 0
 93 278 83 278 83 288 c 0
 83 294 118 442 211 442 c 0
 254 442 287 411 287 361 c 0
 287 342 282 328 274 307 c 0
 249 239 216 149 216 88 c 0
 216 55 225 11 270 11 c 0
 314 11 343 41 362 69 c 0
 371 82 371 84 376 102 c 2
 449 394 l 2
 451 402 458 431 488 431 c 0
 508 431 516 416 516 405 c 0
 516 402 515 397 513 391 c 2
 441 103 l 2
 434 75 434 59 434 52 c 0
 434 38 434 11 460 11 c 0
 494 11 513 74 527 130 c 0
 533 152 534 153 546 153 c 0
 553 153 561 153 561 143 c 2
EndSplineSet
EndChar

